<svg xmlns="http://www.w3.org/2000/svg" width="43.746" height="46.866" viewBox="0 0 43.746 46.866">
  <g id="Grupo_623" data-name="Grupo 623" transform="translate(0)">
    <path id="Trazado_796" data-name="Trazado 796" d="M-1271.947,850.44a19.678,19.678,0,0,0-5.459-13.762c-.1-.1-.2-.2-.293-.307a1.081,1.081,0,0,1,0-1.6,1.1,1.1,0,0,1,1.63.057,21.241,21.241,0,0,1,5.924,10.882,21.841,21.841,0,0,1-15.148,25.442,21.8,21.8,0,0,1-27.5-15.9c-1.767-7.763.219-14.6,5.687-20.409a1.092,1.092,0,0,1,1.661-.118,1.111,1.111,0,0,1-.047,1.666,19.407,19.407,0,0,0-5.445,10.993,19.507,19.507,0,0,0,8.809,19.342,19.408,19.408,0,0,0,22.8-1.2,19.014,19.014,0,0,0,7.224-13.039C-1272.021,851.725-1271.988,850.954-1271.947,850.44Z" transform="translate(1313.425 -825.215)" fill="#eeedaa"/>
    <path id="Trazado_797" data-name="Trazado 797" d="M-1286.443,825.651c-.273.26-.443.415-.605.577-1.518,1.516-3.027,3.041-4.555,4.547a1.425,1.425,0,0,1-2.073-.029,1.408,1.408,0,0,1-.094-2.068q3.915-3.958,7.87-7.876a1.377,1.377,0,0,1,2.021.012q3.93,3.9,7.829,7.827a1.427,1.427,0,0,1-.082,2.119,1.434,1.434,0,0,1-2.119-.041c-1.526-1.507-3.036-3.031-4.554-4.547-.145-.145-.3-.279-.547-.5v.8c0,4.913.014,9.825-.02,14.738a2.446,2.446,0,0,1-.48,1.4,1.336,1.336,0,0,1-1.589.348,1.539,1.539,0,0,1-1-1.571q-.008-3.893,0-7.787Z" transform="translate(1306.772 -820.365)" fill="#032854"/>
    <path id="Trazado_798" data-name="Trazado 798" d="M-1280.821,865.2a1.548,1.548,0,0,1-1.533-1.555,1.549,1.549,0,0,1,1.557-1.534,1.549,1.549,0,0,1,1.532,1.556A1.547,1.547,0,0,1-1280.821,865.2Z" transform="translate(1302.684 -834.796)" fill="#032854"/>
  </g>
</svg>
