<svg xmlns="http://www.w3.org/2000/svg" width="45.216" height="45.216" viewBox="0 0 45.216 45.216">
  <g id="Grupo_625" data-name="Grupo 625" transform="translate(0 0)">
    <g id="Grupo_576" data-name="Grupo 576" transform="translate(10.374 13.389)">
      <path id="Trazado_786" data-name="Trazado 786" d="M-1297.1,1064.055l-1.59,3.379h24.468l-1.592-3.379Z" transform="translate(1298.693 -1048.993)" fill="#032854"/>
      <path id="Trazado_787" data-name="Trazado 787" d="M-1297.1,1052.542l-1.59,3.379h24.468l-1.592-3.379Z" transform="translate(1298.693 -1045.012)" fill="#032854"/>
      <path id="Trazado_788" data-name="Trazado 788" d="M-1297.1,1041.034l-1.59,3.38h24.468l-1.592-3.38Z" transform="translate(1298.693 -1041.034)" fill="#032854"/>
    </g>
    <path id="Trazado_801" data-name="Trazado 801" d="M-1291.932,1020.571h0a22.628,22.628,0,0,0-22.612,22.575,22.477,22.477,0,0,0,6.625,16.016,22.48,22.48,0,0,0,16,6.625h.019a22.629,22.629,0,0,0,22.569-22.624A22.63,22.63,0,0,0-1291.932,1020.571Zm14.493,37.111a20.4,20.4,0,0,1-14.521,6.021h-.02a20.543,20.543,0,0,1-20.485-20.539,20.545,20.545,0,0,1,20.515-20.51h.005a20.544,20.544,0,0,1,20.529,20.49A20.4,20.4,0,0,1-1277.438,1057.682Z" transform="translate(1314.548 -1020.571)" fill="#eeedaa"/>
  </g>
</svg>
