<svg xmlns="http://www.w3.org/2000/svg" width="32.309" height="32.007" viewBox="0 0 32.309 32.007">
  <g id="Grupo_661" data-name="Grupo 661" transform="translate(0 0)">
    <path id="Trazado_805" data-name="Trazado 805" d="M511.1,1245.9a3.3,3.3,0,0,1,.3-.415q4.912-4.923,9.833-9.837a4.1,4.1,0,0,1,6.1,5.484c-.079.089-.159.177-.243.261q-6.555,6.558-13.113,13.113a4.032,4.032,0,0,1-4.764.859,4.777,4.777,0,0,1-1.181-.85q-2.769-2.723-5.5-5.487a4.1,4.1,0,0,1,2.017-6.961,3.826,3.826,0,0,1,3.532.941c.874.8,1.7,1.665,2.535,2.507a3.059,3.059,0,0,1,.282.385Zm-.071,8.022a2.254,2.254,0,0,0,1.709-.762q6.466-6.478,12.94-12.948a4.557,4.557,0,0,0,.349-.378,2.24,2.24,0,0,0-3.426-2.884q-5.412,5.374-10.819,10.754a.937.937,0,0,1-1.564,0q-1.584-1.582-3.167-3.165a2.2,2.2,0,0,0-1.976-.69,2.12,2.12,0,0,0-1.8,1.53,2.149,2.149,0,0,0,.573,2.292c1.282,1.3,2.575,2.58,3.863,3.869q.826.827,1.653,1.652A2.225,2.225,0,0,0,511.027,1253.926Z" transform="translate(-500.803 -1234.324)" fill="#032854"/>
    <path id="Trazado_806" data-name="Trazado 806" d="M512.928,1342.814q-6.1,0-12.206,0c-.817,0-1.29-.6-1.022-1.28a.9.9,0,0,1,.783-.582,2.73,2.73,0,0,1,.356-.006h24.135c.815,0,1.252.326,1.253.934s-.437.935-1.252.935Z" transform="translate(-499.626 -1310.808)" fill="#eeedaa"/>
    <path id="Trazado_807" data-name="Trazado 807" d="M608.266,1342.824a.933.933,0,1,1,.937-.93A.956.956,0,0,1,608.266,1342.824Z" transform="translate(-576.894 -1310.819)" fill="#eeedaa"/>
  </g>
</svg>
