<svg xmlns="http://www.w3.org/2000/svg" width="82.63" height="73.071" viewBox="0 0 82.63 73.071">
  <g id="Grupo_403" data-name="Grupo 403" transform="translate(0 0)">
    <path id="Trazado_81" data-name="Trazado 81" d="M1800.184,774.429c-8.689-10.333-19.159-17.4-33.2-17.135-8.478.155-15.859,3.745-22.335,9.022-2.976,2.425-5.5,5.408-8.225,8.137-1.5,2.074-3,4.14-4.485,6.224-.378.532-.66,1.13-1,1.685-.918,1.482-1.985,1.915-3.058,1.18-1.282-.88-1.125-2.008-.378-3.142,1.74-2.641,3.344-5.389,5.285-7.874,6.219-7.957,13.932-13.984,23.571-17.248,11.5-3.895,22.377-2.038,32.646,4.077a55.347,55.347,0,0,1,19.989,20.978c.872,1.554.729,2.635-.4,3.271-1.081.611-2.007.113-3.015-1.392C1803.821,779.59,1801.985,777.02,1800.184,774.429Z" transform="translate(-1726.92 -731.63)" fill="#032854"/>
    <path id="Trazado_82" data-name="Trazado 82" d="M1733.906,768.345c1.469-.258,2.172.664,2.794,1.772a43.124,43.124,0,0,0,9.464,11.838c11.576,9.9,26.035,9.437,37.044-1.157a47,47,0,0,0,8.323-10.891c.648-1.146,1.456-1.929,2.9-1.432a2.03,2.03,0,0,1,.779,2.958c-4.979,8.828-11.408,16.193-21.183,19.8-10.793,3.979-20.6,1.614-29.446-5.375a46.956,46.956,0,0,1-11.634-14.241C1732.132,770.161,1732.566,769.135,1733.906,768.345Z" transform="translate(-1722.617 -720.088)" fill="#032854"/>
    <path id="Trazado_83" data-name="Trazado 83" d="M1753.163,748.9v5.557c0,1.355-.632,2.257-2.017,2.234-1.286-.021-1.916-.883-1.916-2.171q0-5.638,0-11.274c0-1.357.631-2.259,2.017-2.236,1.287.021,1.915.889,1.919,2.171C1753.168,745.082,1753.163,746.989,1753.163,748.9Z" transform="translate(-1709.827 -741.005)" fill="#032854"/>
    <path id="Trazado_84" data-name="Trazado 84" d="M1764.787,744.662a13.238,13.238,0,0,1-.353,1.346c-1.284,3.126-2.56,6.256-3.889,9.363a1.837,1.837,0,0,1-2.645,1.155,1.8,1.8,0,0,1-.987-2.577c1.293-3.121,2.575-6.247,3.875-9.367.419-1.007,1.168-1.743,2.27-1.344C1763.764,743.492,1764.294,744.238,1764.787,744.662Z" transform="translate(-1704.096 -739.379)" fill="#032854"/>
    <path id="Trazado_85" data-name="Trazado 85" d="M1747.407,755.15c-.334.344-.809,1.254-1.408,1.346a2.519,2.519,0,0,1-2.166-.853c-1.54-3.292-2.951-6.653-4.191-10.069a2.466,2.466,0,0,1,1.024-2.2,2.43,2.43,0,0,1,2.307.677c1.586,3.389,2.945,6.887,4.372,10.352A4.593,4.593,0,0,1,1747.407,755.15Z" transform="translate(-1717.202 -739.253)" fill="#032854"/>
    <path id="Trazado_86" data-name="Trazado 86" d="M1739.932,755.292c-.063,1.669-1.627,2.639-2.806,1.761a31.718,31.718,0,0,1-4.6-4.161,2.418,2.418,0,0,1,.109-2.291,2.179,2.179,0,0,1,2.089-.489,57.624,57.624,0,0,1,4.887,4.32C1739.856,754.658,1739.874,755.122,1739.932,755.292Z" transform="translate(-1722.808 -734.114)" fill="#032854"/>
    <path id="Trazado_87" data-name="Trazado 87" d="M1771.578,751.684a5.441,5.441,0,0,1-.595,1.249c-1.261,1.351-2.515,2.717-3.868,3.974a1.923,1.923,0,0,1-2.708-2.66,45.352,45.352,0,0,1,3.9-3.928,2.144,2.144,0,0,1,1.908-.2C1770.8,750.4,1771.157,751.17,1771.578,751.684Z" transform="translate(-1698.545 -734.125)" fill="#032854"/>
    <path id="Trazado_88" data-name="Trazado 88" d="M1754.624,762.17a9.843,9.843,0,1,1-9.851,9.912A9.86,9.86,0,0,1,1754.624,762.17Z" transform="translate(-1713.239 -724.787)" fill="#eeedaa"/>
  </g>
</svg>
