<svg xmlns="http://www.w3.org/2000/svg" width="10.552" height="8.629" viewBox="0 0 10.552 8.629">
  <defs>
    <style>
      .cls-1 {
        fill: #eeedaa;
      }
    </style>
  </defs>
  <path id="Trazado_809" data-name="Trazado 809" class="cls-1" d="M3.6,2.457c-.127.121-.206.193-.281.268-.706.7-1.407,1.414-2.118,2.114a.663.663,0,0,1-.964-.014A.655.655,0,0,1,.19,3.864Q2.01,2.024,3.849.2a.64.64,0,0,1,.939.005Q6.615,2.02,8.428,3.846a.663.663,0,0,1-.038.985A.666.666,0,0,1,7.4,4.812C6.694,4.111,5.993,3.4,5.287,2.7c-.068-.068-.14-.13-.254-.234v.371c0,2.284.006,4.568-.009,6.851a1.137,1.137,0,0,1-.223.649.621.621,0,0,1-.739.162.715.715,0,0,1-.464-.73q0-1.81,0-3.62Z" transform="translate(10.552) rotate(90)"/>
</svg>
