<svg id="Grupo_456" data-name="Grupo 456" xmlns="http://www.w3.org/2000/svg" width="26.066" height="34.151" viewBox="0 0 26.066 34.151">
  <defs>
    <style>
      .cls-1 {
        fill: #eeedaa;
      }

      .cls-2 {
        fill: #032854;
      }
    </style>
  </defs>
  <path id="Trazado_132" data-name="Trazado 132" class="cls-1" d="M240.92,373.178a13,13,0,0,1,6.1,24.471c-.724.389-1.2.336-1.459-.163-.251-.479-.051-.869.665-1.264a11.24,11.24,0,0,0,5.86-8.033,11.378,11.378,0,1,0-22.571-1.642,11.138,11.138,0,0,0,5.876,9.607c.175.1.363.184.534.292.41.258.629.612.374,1.081a.75.75,0,0,1-1.148.322,19.225,19.225,0,0,1-3-2.068c-3.825-3.668-5.247-8.141-3.735-13.262,1.506-5.1,5.079-8.114,10.278-9.2a8.106,8.106,0,0,1,1.143-.142C240.2,373.16,240.558,373.178,240.92,373.178Z" transform="translate(-227.822 -373.171)"/>
  <path id="Trazado_133" data-name="Trazado 133" class="cls-2" d="M239.174,402.7V389.4c0-.181,0-.362,0-.542,0-.826.284-1.237.836-1.223.524.015.791.412.792,1.2q0,6.507,0,13.013v.944c.838-.854,1.54-1.57,2.243-2.285.174-.178.345-.36.53-.524a.8.8,0,0,1,1.207-.008.759.759,0,0,1-.08,1.188c-1.054,1.055-2.115,2.1-3.167,3.16-1.568,1.577-1.471,1.653-3.088.006-1.011-1.033-2.043-2.046-3.064-3.07-.32-.32-.569-.66-.282-1.133.315-.518.855-.557,1.37-.062.764.737,1.5,1.5,2.258,2.248C238.833,402.414,238.952,402.507,239.174,402.7Z" transform="translate(-226.937 -371.381)"/>
  <path id="Trazado_134" data-name="Trazado 134" class="cls-2" d="M240.337,382.6c0,.427.018.856,0,1.282a.774.774,0,0,1-.8.823.763.763,0,0,1-.809-.816c-.022-.9-.028-1.8,0-2.7a.8.8,0,0,1,1.6-.007c.03.47.007.944.007,1.417Z" transform="translate(-226.475 -372.276)"/>
</svg>
