<svg id="Grupo_621" data-name="Grupo 621" xmlns="http://www.w3.org/2000/svg" width="37.504" height="30.788" viewBox="0 0 37.504 30.788">
  <path id="Trazado_794" data-name="Trazado 794" d="M-769.449,834.328a7.75,7.75,0,0,0-.4-10.807,7.749,7.749,0,0,0-10.973.151c-.891.874-1.767,1.766-2.652,2.647a.95.95,0,0,1-1.549,0c-1.005-.986-1.971-2.017-3.024-2.95a7.441,7.441,0,0,0-8.073-1.531,7.458,7.458,0,0,0-4.909,6.211,7.47,7.47,0,0,0,2.27,6.633c.73.735,1.472,1.459,2.2,2.2a.916.916,0,0,1-.424,1.606,1.021,1.021,0,0,1-.8-.187,38.6,38.6,0,0,1-3.146-3.218,9.668,9.668,0,0,1,5.844-15.506,9.607,9.607,0,0,1,8.753,2.756c.684.666,1.35,1.351,2.052,2.055.7-.7,1.387-1.385,2.068-2.071a9.709,9.709,0,0,1,4.491-2.6,9.712,9.712,0,0,1,12.11,8.192,9.494,9.494,0,0,1-2.82,8.166q-6.375,6.421-12.8,12.8a4.175,4.175,0,0,1-6.062.013c-1.373-1.351-2.729-2.72-4.089-4.085a.936.936,0,0,1-.089-1.408.947.947,0,0,1,1.438.075q2.017,2.013,4.032,4.029a2.225,2.225,0,0,0,2.862.437,7.255,7.255,0,0,0,.614-.5q6.329-6.317,12.65-12.642C-769.72,834.651-769.589,834.486-769.449,834.328Z" transform="translate(803.034 -819.399)" fill="#032854"/>
  <path id="Trazado_795" data-name="Trazado 795" d="M-757.468,842.481c-.149.17-.288.348-.446.508q-6.706,6.8-13.419,13.591a7.655,7.655,0,0,1-.651.534.735.735,0,0,0-.2-.055,1.022,1.022,0,0,1-1.03-.731,1.012,1.012,0,0,1,.364-1.137q5.308-5.367,10.608-10.743c.926-.938,1.855-1.873,2.777-2.817.378-.387.759-.773,1.354-.508A1.2,1.2,0,0,1-757.468,842.481Z" transform="translate(790.744 -829.549)" fill="#eeedaa"/>
</svg>
