<svg xmlns="http://www.w3.org/2000/svg" width="44.972" height="43.543" viewBox="0 0 44.972 43.543">
  <g id="Grupo_451" data-name="Grupo 451" transform="translate(684.409 -1018.7)">
    <path id="Trazado_623" data-name="Trazado 623" d="M-625.148,1033.3a7.789,7.789,0,0,1-5.82-.36,7.508,7.508,0,0,1-4.283-7.115c.554-4.359,3.59-7.163,7.709-7.121a7.561,7.561,0,0,1,7.062,5.56,7.515,7.515,0,0,1-3.518,8.421C-624.378,1032.892-624.765,1033.091-625.148,1033.3Z" transform="translate(-19.194 0)" fill="#eeedaa"/>
    <path id="Trazado_624" data-name="Trazado 624" d="M-658.089,1028.111a1.349,1.349,0,0,1-1.513.811,40.267,40.267,0,0,0-11.078.729c-3.638.866-6.911,2.363-9.151,5.527a13.636,13.636,0,0,0,6.162,20.527c.687.265,1.484.393,1.66,1.309-.3,1.083-.818,1.378-1.847,1.014-8.006-2.835-11.182-9.162-10.45-16.855.733-7.709,5.722-11.793,12.6-13.573a41.687,41.687,0,0,1,12.358-.932C-658.41,1026.708-658.084,1027.1-658.089,1028.111Z" transform="translate(0 -3.08)" fill="#032854"/>
    <path id="Trazado_625" data-name="Trazado 625" d="M-647.542,1067.046a3.4,3.4,0,0,1,2.633-1.361,23.889,23.889,0,0,0,8.734-2.212,12.242,12.242,0,0,0,7.2-11.17,22.862,22.862,0,0,0-.077-2.71,1.576,1.576,0,0,1,.677-1.618c1.073-.057,1.479.182,1.571,1.125.509,5.2-.43,9.974-4.41,13.723a19.155,19.155,0,0,1-9.873,4.592c-1.193.229-2.407.345-3.611.515-1.131.159-1.315.579-.676,1.559.477.731.974,1.451,1.442,2.188.491.772.42,1.422-.167,1.807s-1.208.177-1.722-.573c-.477-.695-.912-1.418-1.409-2.1A3.3,3.3,0,0,1-647.542,1067.046Z" transform="translate(-14.219 -11.428)" fill="#032854"/>
    <path id="Trazado_626" data-name="Trazado 626" d="M-654.33,1049.849q-4.443,0-8.885,0c-.984,0-1.513-.405-1.51-1.127s.533-1.12,1.518-1.12q8.978,0,17.956,0c.981,0,1.513.4,1.51,1.126s-.53,1.118-1.518,1.12Q-649.794,1049.852-654.33,1049.849Z" transform="translate(-7.686 -11.284)" fill="#032854"/>
    <path id="Trazado_627" data-name="Trazado 627" d="M-657.884,1059.9c1.744,0,3.488,0,5.232,0,.9,0,1.417.43,1.415,1.126s-.521,1.117-1.422,1.118q-5.326.009-10.651,0c-.9,0-1.418-.431-1.415-1.126s.523-1.115,1.423-1.119C-661.5,1059.891-659.691,1059.9-657.884,1059.9Z" transform="translate(-7.685 -16.085)" fill="#032854"/>
  </g>
</svg>
