<svg xmlns="http://www.w3.org/2000/svg" width="34.921" height="34.921" viewBox="0 0 34.921 34.921">
  <g id="Grupo_674" data-name="Grupo 674" transform="translate(-509.95 -1094.169)">
    <path id="Trazado_9" data-name="Trazado 9" d="M4821.79,743.67a17.46,17.46,0,1,1-17.454-17.449A17.472,17.472,0,0,1,4821.79,743.67Zm-17.469-15.131a15.143,15.143,0,1,0,15.152,15.117A15.17,15.17,0,0,0,4804.321,728.539Z" transform="translate(-4276.919 367.948)" fill="#aaa"/>
    <path id="Trazado_10" data-name="Trazado 10" d="M4797.618,742.721c3.258-3.488,6.448-6.906,9.642-10.322a4.182,4.182,0,0,1,.558-.571,1.118,1.118,0,0,1,1.47.035,1.144,1.144,0,0,1,.193,1.513,3.179,3.179,0,0,1-.331.384q-5.183,5.557-10.368,11.11c-.918.983-1.407.979-2.332-.006q-2.413-2.574-4.818-5.151c-.67-.72-.73-1.4-.173-1.9s1.205-.38,1.886.347C4794.751,739.657,4796.157,741.16,4797.618,742.721Z" transform="translate(-4272.919 373.028)" fill="#032854"/>
  </g>
</svg>
