<svg id="Grupo_152" data-name="Grupo 152" xmlns="http://www.w3.org/2000/svg" width="46.127" height="46.127" viewBox="0 0 46.127 46.127">
  <rect id="Rectángulo_98" data-name="Rectángulo 98" width="46.127" height="46.127" rx="4.229" fill="#032854"/>
  <g id="Grupo_151" data-name="Grupo 151" transform="translate(9.114 9.115)">
    <g id="Grupo_150" data-name="Grupo 150">
      <path id="Trazado_78" data-name="Trazado 78" d="M2207.12,2753.161a1.636,1.636,0,1,0,1.636,1.637A1.636,1.636,0,0,0,2207.12,2753.161Z" transform="translate(-2185.785 -2748.181)" fill="#fff"/>
      <path id="Trazado_79" data-name="Trazado 79" d="M2205.272,2754.349a6.87,6.87,0,1,0,6.87,6.871A6.879,6.879,0,0,0,2205.272,2754.349Zm0,11.272a4.4,4.4,0,1,1,4.4-4.4A4.4,4.4,0,0,1,2205.272,2765.621Z" transform="translate(-2191.208 -2747.271)" fill="#fff"/>
      <path id="Trazado_80" data-name="Trazado 80" d="M2213.845,2778.238h-11.139a8.389,8.389,0,0,1-8.379-8.379v-11.14a8.388,8.388,0,0,1,8.379-8.378h11.139a8.389,8.389,0,0,1,8.38,8.378v11.14A8.39,8.39,0,0,1,2213.845,2778.238Zm-11.139-25.273a5.762,5.762,0,0,0-5.756,5.754v11.14a5.762,5.762,0,0,0,5.756,5.754h11.139a5.76,5.76,0,0,0,5.755-5.754v-11.14a5.761,5.761,0,0,0-5.755-5.754Z" transform="translate(-2194.327 -2750.34)" fill="#fff"/>
    </g>
  </g>
</svg>
