<svg id="Grupo_205" data-name="Grupo 205" xmlns="http://www.w3.org/2000/svg" width="155.006" height="96.848" viewBox="0 0 155.006 96.848">
  <defs>
    <style>
      .cls-1 {
        fill: #032854;
      }

      .cls-2 {
        fill: #eeedaa;
      }

      .cls-3 {
        fill: #314659;
      }
    </style>
  </defs>
  <path id="Trazado_137" data-name="Trazado 137" class="cls-1" d="M600.276,832.606a46.624,46.624,0,0,0,7.6-15.775c6.378-23.974-9.79-49.326-34.206-53.545-22.138-3.826-42.552,8.324-49.6,29.518-8.054,24.234,7.474,50.965,32.594,55.925a54.1,54.1,0,0,0,10.249.925c24.042.079,48.083.041,72.125.045,2.869,0,4.18.823,4.107,2.555-.071,1.659-1.311,2.375-4.094,2.371q-36.558-.035-73.117-.071a48.487,48.487,0,0,1-48.74-50.219c.614-22.224,17.683-42.011,39.486-45.771,25.593-4.416,49.1,10.392,55.8,35.447,3.562,13.321,1.394,25.974-5.819,37.722a2.759,2.759,0,0,1-1.828,1.05,30.65,30.65,0,0,1-3.967.034A2.912,2.912,0,0,1,600.276,832.606Z" transform="translate(-488.149 -757.789)"/>
  <path id="Trazado_138" data-name="Trazado 138" class="cls-2" d="M578.115,827.51c2.812-3.121,6.076-6.008,8.451-9.5,13.116-19.283.407-46.178-22.786-48.512a31.5,31.5,0,0,0-34.762,27.114c-2.493,16.951,10.261,33.522,27.252,35.362a58.235,58.235,0,0,0,6.137.339q35.867.032,71.735.014c.53,0,1.227-.2,1.555.061.8.636,1.828,1.393,2.043,2.275.316,1.305-.693,2.184-2.028,2.441a7.657,7.657,0,0,1-1.389.034q-36.761,0-73.523-.011c-17.808-.031-32.014-11.456-36.013-28.846-4.494-19.537,9.438-39.863,29.207-43.2,19.176-3.239,37.952,9.042,41.823,28.427,2.457,12.309-.764,23.179-9.292,32.46a4.282,4.282,0,0,1-3.8,1.575C581.09,827.407,579.438,827.51,578.115,827.51Z" transform="translate(-482.84 -752.47)"/>
  <path id="Trazado_139" data-name="Trazado 139" class="cls-3" d="M554.216,817.989a22.994,22.994,0,1,1,23.247-22.338C577.111,808.1,566.5,818.3,554.216,817.989Zm.28-4.908a18.131,18.131,0,1,0-18.233-18.121A18.182,18.182,0,0,0,554.5,813.081Z" transform="translate(-476.954 -746.618)"/>
  <path id="Trazado_140" data-name="Trazado 140" class="cls-1" d="M555.905,814.206c-17.553,0-34.747,0-51.94,0-1.669,0-2.867-.636-3.034-2.416-.141-1.51,1.121-2.523,3.114-2.525q21.348-.024,42.7,0a3.127,3.127,0,0,1,1.512.332C550.7,811.028,553.112,812.515,555.905,814.206Z" transform="translate(-500.921 -717.362)"/>
  <path id="Trazado_141" data-name="Trazado 141" class="cls-2" d="M539.2,807.231c-.6.048-.9.093-1.2.093-11.381,0-22.759.039-34.138-.071a4.039,4.039,0,0,1-2.776-1.636c-.325-.461.289-1.8.787-2.535.273-.407,1.178-.541,1.8-.543q15.285-.048,30.566.007a2.55,2.55,0,0,1,1.68.713C537.028,804.439,538,805.747,539.2,807.231Z" transform="translate(-500.858 -722.658)"/>
</svg>
