<svg id="Grupo_207" data-name="Grupo 207" xmlns="http://www.w3.org/2000/svg" width="100.59" height="98.495" viewBox="0 0 100.59 98.495">
  <defs>
    <style>
      .cls-1 {
        fill: #eeedaa;
      }

      .cls-2 {
        fill: #032854;
      }
    </style>
  </defs>
  <path id="Trazado_142" data-name="Trazado 142" class="cls-1" d="M737.222,792.931a12.38,12.38,0,1,1-.089-17.653A12.433,12.433,0,0,1,737.222,792.931Z" transform="translate(-659.424 -752.565)"/>
  <path id="Trazado_143" data-name="Trazado 143" class="cls-2" d="M690.33,849.623a31.955,31.955,0,0,0-.87-4.83,5.013,5.013,0,0,0-1.3-2.275,1.951,1.951,0,0,0-1.3-.495,2.513,2.513,0,0,0-1.214.341,2.319,2.319,0,0,0-1.243,2.575c.527,3.508,1.169,7.133,1.912,10.77.075.37.252,1.236,2.053,1.625l2.364.507c2.294.491,4.589.98,6.869,1.532a3.685,3.685,0,0,0,3.864-1.161q9.347-9.068,18.733-18.1,8.75-8.434,17.485-16.887a4.617,4.617,0,0,1,4.874-1.159l1.578.409a30.9,30.9,0,0,0,8.228,1.45c14.029-.034,24.125-6.4,30.009-18.924,4.987-10.609,2.562-25.115-5.639-33.739-7.147-7.517-15.846-10.92-25.838-10.125a29.89,29.89,0,0,0-23.3,13.425c-5.821,8.5-7.187,17.892-4.064,27.929a3.873,3.873,0,0,1-1.2,4.433c-.971.848-1.884,1.75-2.848,2.705l-.737.73a3.1,3.1,0,0,0-1.082,2.1,2.406,2.406,0,0,0,.794,1.705c1.509,1.53,2.98.577,3.725-.127,1.569-1.486,3.121-2.987,4.673-4.487l1.711-1.657c1.625-1.566,1.762-2.309.811-4.415A26.42,26.42,0,0,1,774.9,777.145a26.478,26.478,0,0,1-33.544,39.011c-2-.991-2.641-.891-4.26.67l-18.392,17.721q-2.424,2.335-4.862,4.651c-4.069,3.88-8.276,7.89-12.266,11.957-1.766,1.8-4.321,3.676-8.4,2.162a3.777,3.777,0,0,1-2.8-3.282Z" transform="translate(-684.366 -761.025)"/>
  <path id="Trazado_144" data-name="Trazado 144" class="cls-2" d="M695.731,807.494c.95-.882,1.878-1.786,2.807-2.687l4.1-3.944c.459-.434.918-.868,1.359-1.32a2.411,2.411,0,0,0,.095-3.592,2.483,2.483,0,0,0-1.787-.845,2.587,2.587,0,0,0-1.768.784q-4.194,3.948-8.3,7.99a2.517,2.517,0,1,0,3.5,3.614Z" transform="translate(-678.902 -734.255)"/>
</svg>
