<svg xmlns="http://www.w3.org/2000/svg" width="107.206" height="106.642" viewBox="0 0 107.206 106.642">
  <g id="Grupo_670" data-name="Grupo 670" transform="translate(-503 -979.096)">
    <path id="Trazado_44" data-name="Trazado 44" d="M3353.554,701.281c-4.768.065-9.539.188-14.308.168-2.065-.009-2.788-.918-2.855-3.036.7-1.682,1.432-2.09,3.292-2.108,4.459-.045,8.925-.013,13.371-.273a35.233,35.233,0,0,0,11.436-2.577,15.981,15.981,0,0,0,2.725-1.466c1.2-.8,1.237-1.208.053-2.052a17.667,17.667,0,0,0-3.182-1.729c-1.925-.844-2.3-1.376-2.1-3.421.961-1.768,1.906-2.121,3.777-1.414a15.548,15.548,0,0,1,5.5,3.227,6.408,6.408,0,0,1,2.042,4.781q-.009,25.627-.013,51.253c0,2.895-1.9,4.589-4.139,5.952a30.98,30.98,0,0,1-10.787,3.645,76.158,76.158,0,0,1-19.541.884,2.506,2.506,0,0,1-2.424-2.618,2.548,2.548,0,0,1,2.542-2.515c.928-.018,1.859.112,2.784.079,3.953-.132,7.905-.3,11.858-.457,2.793-.53,5.629-.908,8.368-1.64a32.062,32.062,0,0,0,5.169-2.244,1.857,1.857,0,0,0,1.047-1.924c-.052-2.926-.018-5.851-.021-8.779,0-.3-.04-.6-.067-.96-.23.063-.362.1-.492.136-2.714.848-5.4,1.794-8.146,2.513-1.918.5-3.918.7-5.881,1.029-2.562.132-5.122.336-7.687.372-2.244.032-4.493-.087-6.735-.208a2.574,2.574,0,0,1-2.738-2.756c.083-1.528,1.257-2.387,3.069-2.4,4.17-.022,8.339-.092,12.511-.165a13.238,13.238,0,0,0,1.584-.215c1.86-.286,3.74-.49,5.581-.877a23.873,23.873,0,0,0,7.782-2.86,2.32,2.32,0,0,0,1.25-2.26c-.084-2.922-.026-5.849-.031-8.773,0-.259-.042-.517-.071-.855-4.675,2.215-9.572,3.077-14.529,3.7-4.8.063-9.609.17-14.413.166a2.47,2.47,0,0,1-2.733-2.71,2.632,2.632,0,0,1,3.067-2.412,79.069,79.069,0,0,0,14.091-.324c1.76-.273,3.537-.47,5.276-.839a24.628,24.628,0,0,0,8.3-3.036,2,2,0,0,0,1.042-1.931c-.07-2.141-.022-4.285-.022-6.43v-3.37A47.08,47.08,0,0,1,3353.554,701.281Z" transform="translate(-2813.67 332.365)" fill="#032854"/>
    <path id="Trazado_45" data-name="Trazado 45" d="M3336.578,674.411c2.884.613,5.75,1.342,8.656,1.823,13.85,2.293,27.832,3.086,41.84,3.51,7.289.219,14.582.293,21.873.354,7.1.062,11.8,4.732,11.806,11.845,0,.929.023,1.859-.007,2.788a2.568,2.568,0,0,1-5.136.02c-.036-1.143,0-2.287-.011-3.432a5.978,5.978,0,0,0-6.044-6.061c-8.294-.134-16.593-.1-24.874-.472-9.456-.423-18.9-1.121-28.343-1.866a97.5,97.5,0,0,1-19.511-3.256,20.708,20.708,0,0,1-4.9-2.081c-2.985-1.8-2.924-5.122.032-7.017a21.289,21.289,0,0,1,8.133-2.851c5.985-.987,11.981-1.967,18.009-2.6,16.655-1.743,33.38-2.11,50.114-2.159a4.726,4.726,0,0,1,1.271.114,2.5,2.5,0,0,1,1.817,2.7,2.531,2.531,0,0,1-2.281,2.32c-.284.029-.573.009-.859.016-11.291.293-22.589.414-33.87.931a215.928,215.928,0,0,0-32.459,3.575c-1.537.306-3.047.747-4.567,1.139a4.41,4.41,0,0,0-.657.28Z" transform="translate(-2819.065 316.141)" fill="#032854"/>
    <path id="Trazado_46" data-name="Trazado 46" d="M3392.87,709.387c0,4.244.024,8.317-.007,12.389-.036,4.869-2.1,8.578-6.609,10.592a12.681,12.681,0,0,1-4.863,1c-4.823.074-9.648-.069-14.473-.141a2.561,2.561,0,0,1-2.786-2.593,2.661,2.661,0,0,1,2.872-2.546c4.715.045,9.432.137,14.148.172,4.235.029,6.636-2.4,6.636-6.639q0-5.95-.011-11.9a2.207,2.207,0,0,0-.079-.333c-1.846,0-3.727.027-5.605-.006a11.567,11.567,0,0,1-.34-23.124c5.716-.126,11.435-.043,17.154-.029a2.384,2.384,0,0,1,2.537,2.573q.027,8.9,0,17.794c-.007,1.844-1.03,2.784-2.912,2.792C3396.676,709.393,3394.826,709.387,3392.87,709.387Zm3.453-18.018c-4.7,0-9.269-.005-13.843,0a6.44,6.44,0,1,0,.052,12.867q6.379.008,12.76,0c.342,0,.686-.029,1.031-.043Z" transform="translate(-2791.251 334.914)" fill="#032854"/>
    <path id="Trazado_47" data-name="Trazado 47" d="M3369.656,684.905c-.2,2.045.173,2.577,2.1,3.421a17.668,17.668,0,0,1,3.182,1.729c1.184.844,1.148,1.255-.053,2.052a15.985,15.985,0,0,1-2.725,1.466,35.235,35.235,0,0,1-11.436,2.577c-4.446.26-8.912.228-13.371.273-1.86.018-2.593.427-3.292,2.108-2.528-.421-5.062-.826-7.586-1.269a17.847,17.847,0,0,1-7.551-3.121c-2.705-1.978-2.683-4.291.024-6.244a10.07,10.07,0,0,1,2.8-1.549,75.361,75.361,0,0,1,9.256-2.521,74.111,74.111,0,0,1,10.212-.9A64.9,64.9,0,0,1,3369.656,684.905Z" transform="translate(-2821.336 332.248)" fill="#eeedaa"/>
    <path id="Trazado_48" data-name="Trazado 48" d="M3345.884,704.268c4.958-.62,9.854-1.483,14.529-3.7.029.338.071.6.071.855,0,2.924-.053,5.851.031,8.773a2.321,2.321,0,0,1-1.25,2.26,23.871,23.871,0,0,1-7.782,2.86c-1.841.387-3.721.591-5.581.877Q3345.893,710.232,3345.884,704.268Z" transform="translate(-2806 346.538)" fill="#eeedaa"/>
    <path id="Trazado_49" data-name="Trazado 49" d="M3345.891,713.825c1.964-.333,3.963-.526,5.882-1.029,2.747-.72,5.431-1.665,8.146-2.513.13-.04.262-.072.492-.136.027.362.067.66.067.96,0,2.927-.031,5.853.021,8.779a1.856,1.856,0,0,1-1.047,1.924,32.062,32.062,0,0,1-5.169,2.244c-2.739.732-5.575,1.11-8.368,1.64Q3345.9,719.759,3345.891,713.825Z" transform="translate(-2805.992 354.277)" fill="#eeedaa"/>
    <path id="Trazado_50" data-name="Trazado 50" d="M3345.884,694.791a47.078,47.078,0,0,0,14.6-3.727v3.37c0,2.145-.048,4.289.022,6.43a2,2,0,0,1-1.042,1.931,24.625,24.625,0,0,1-8.3,3.036c-1.74.369-3.517.566-5.276.839Q3345.89,700.73,3345.884,694.791Z" transform="translate(-2806 338.855)" fill="#eeedaa"/>
    <path id="Trazado_51" data-name="Trazado 51" d="M3325.484,698.39a2.643,2.643,0,0,1,2.275-2.918,2.454,2.454,0,0,1,2.783,1.96,2.344,2.344,0,0,0,1.294,1.83c1.383.725,2.821,1.345,4.25,1.978.484.215,1.028.3,1.517.512a2.613,2.613,0,0,1,1.523,3.074,2.478,2.478,0,0,1-2.9,1.808,18.862,18.862,0,0,1-8.814-4.349A5.724,5.724,0,0,1,3325.484,698.39Z" transform="translate(-2822.484 342.404)" fill="#032854"/>
    <path id="Trazado_52" data-name="Trazado 52" d="M3325.486,707.961c-.016-1.719.877-2.817,2.208-2.992a2.725,2.725,0,0,1,2.924,1.98,3.388,3.388,0,0,0,1.267,1.8,32.824,32.824,0,0,0,4.752,2.146c2.014.736,2.958,1.936,2.47,3.459-.517,1.616-2,2.264-4.05,1.445a46.051,46.051,0,0,1-6.611-3.177A5.82,5.82,0,0,1,3325.486,707.961Z" transform="translate(-2822.482 350.073)" fill="#032854"/>
    <path id="Trazado_53" data-name="Trazado 53" d="M3325.486,717.494c-.016-1.763.877-2.86,2.208-3.036a2.725,2.725,0,0,1,2.924,1.982,3.4,3.4,0,0,0,1.267,1.8,32.824,32.824,0,0,0,4.752,2.146c2.016.736,2.958,1.935,2.47,3.459-.516,1.616-2,2.266-4.048,1.446a45.671,45.671,0,0,1-6.611-3.179A5.818,5.818,0,0,1,3325.486,717.494Z" transform="translate(-2822.482 357.742)" fill="#032854"/>
  </g>
</svg>
