<svg xmlns="http://www.w3.org/2000/svg" width="112.583" height="120.575" viewBox="0 0 112.583 120.575">
  <g id="Grupo_672" data-name="Grupo 672" transform="translate(-894 -969.13)">
    <path id="Trazado_32" data-name="Trazado 32" d="M3592.153,672.174a13.059,13.059,0,1,1-13.082-13.071A13.061,13.061,0,0,1,3592.153,672.174Zm-13.008-7.041a7.033,7.033,0,1,0,6.98,7.052A7.03,7.03,0,0,0,3579.145,665.133Z" transform="translate(-2628.802 310.027)" fill="#032854"/>
    <g id="Grupo_671" data-name="Grupo 671">
      <path id="Trazado_29" data-name="Trazado 29" d="M3614.649,760.14c1.63.014,3.264.013,4.9.045a3.013,3.013,0,1,1-.04,6.019q-30.952.014-61.9,0a3.016,3.016,0,1,1-.033-6.017c5.231-.018,10.462-.007,15.885-.007v-1.47q0-19.59-.011-39.182a3.3,3.3,0,0,1,1.244-2.985,2.909,2.909,0,0,1,3.092-.277,2.8,2.8,0,0,1,1.69,2.589c.04,1.8.013,3.6.013,5.4q0,17.331,0,34.662v1.188h6.023v-1.345q0-16.7.005-33.405c0-2.5,2.015-4,4.161-3.119a3.068,3.068,0,0,1,1.873,3.228q-.027,13.626-.009,27.252v7.374h6.028v-1.28q0-19.463,0-38.929c0-2.784.669-3.555,3.394-3.925a2.877,2.877,0,0,0,2.615-2.891c-.043-7.364-.016-14.731-.291-22.088a17.4,17.4,0,0,0-1.736-6.075,5.23,5.23,0,0,0-5.18-3.092c-5.734.009-11.467-.016-17.2.007a6.977,6.977,0,0,0-6.918,6.064c-1.137,8.918-2.222,17.843-3.327,26.766-.181,1.452-.342,2.908-.541,4.358a3.084,3.084,0,0,1-3.3,2.909,3.039,3.039,0,0,1-2.648-3.609c.927-7.6,1.891-15.188,2.846-22.781.365-2.9.7-5.811,1.128-8.708a13.005,13.005,0,0,1,12.6-11.017c5.608-.062,11.217-.018,16.826-.016,6.028,0,9.826,2.616,11.977,8.256a27.279,27.279,0,0,1,1.767,9.446c.078,6.573.125,13.147.009,19.716a8.585,8.585,0,0,1-5.1,7.889c-.567.284-.912.512-.911,1.262q.048,18.649.027,37.3c0,.121.027.242.056.492h11Z" transform="translate(-2638.23 323.493)" fill="#032854"/>
      <path id="Trazado_30" data-name="Trazado 30" d="M3606.7,741.215q0-9.23,0-18.461c0-2.166.985-3.247,3.1-3.446a2.969,2.969,0,0,0,2.917-3.141c.018-8.079.034-16.159-.009-24.238a6.942,6.942,0,0,0-6.994-6.777c-5.357-.02-10.714.005-16.072-.011a3,3,0,0,1-1.336-5.714,3.574,3.574,0,0,1,1.45-.3c5.484-.018,10.968-.071,16.449.009a12.984,12.984,0,0,1,12.529,12.59c.061,8.247.081,16.494-.008,24.741a8.564,8.564,0,0,1-4.981,7.842,1.652,1.652,0,0,0-1.036,1.732c.025,11.218-.032,22.437.056,33.656a3.285,3.285,0,0,1-3.058,3.544c-1.8-.016-3.005-1.421-3.007-3.569Q3606.688,750.446,3606.7,741.215Z" transform="translate(-2612.2 326.185)" fill="#eeedaa"/>
      <path id="Trazado_31" data-name="Trazado 31" d="M3548.188,703.1q0,5.4,0,10.8a4.866,4.866,0,0,0,3.674,5.173,3.106,3.106,0,0,1,2.351,3.287q.006,18.9,0,37.8c0,2.049-1.222,3.378-3.058,3.354a3,3,0,0,1-2.963-3.325q-.008-17.393.014-34.785a1.942,1.942,0,0,0-1.023-1.893,10.462,10.462,0,0,1-4.993-8.928c-.1-7.534-.066-15.069-.016-22.6a12.989,12.989,0,0,1,12.91-12.854c5.316-.042,10.63-.014,15.946-.009a3.023,3.023,0,1,1-.009,6.025c-5.189.011-10.378,0-15.567.007a6.972,6.972,0,0,0-7.262,7.278C3548.181,695.983,3548.189,699.54,3548.188,703.1Z" transform="translate(-2648.125 326.188)" fill="#eeedaa"/>
      <path id="Trazado_33" data-name="Trazado 33" d="M3559.679,662.439a13.06,13.06,0,1,1-13.089,12.935A13.052,13.052,0,0,1,3559.679,662.439Zm7,13.062a7.032,7.032,0,1,0-7,7.032A7.022,7.022,0,0,0,3566.68,675.5Z" transform="translate(-2644.516 312.723)" fill="#eeedaa"/>
      <path id="Trazado_34" data-name="Trazado 34" d="M3598.422,688.559a13.061,13.061,0,1,1,13.174-12.85A13.052,13.052,0,0,1,3598.422,688.559Zm.128-6.027a7.034,7.034,0,1,0-7.042-6.992A7.033,7.033,0,0,0,3598.55,682.533Z" transform="translate(-2613.086 312.723)" fill="#eeedaa"/>
      <path id="Trazado_35" data-name="Trazado 35" d="M3590.407,735.12h-6.039q0-12.555,0-25.108a3.032,3.032,0,0,1,4.682-2.781,3.075,3.075,0,0,1,1.361,2.908Q3590.387,722.629,3590.407,735.12Z" transform="translate(-2613.989 348.513)" fill="#eeedaa"/>
      <path id="Trazado_36" data-name="Trazado 36" d="M3564.843,713.613c0,2.258.011,4.515,0,6.773a3.02,3.02,0,1,1-6.02-.013q-.022-6.772,0-13.547a3.021,3.021,0,1,1,6.021.013C3564.858,709.1,3564.845,711.355,3564.843,713.613Z" transform="translate(-2634.643 345.954)" fill="#032854"/>
    </g>
  </g>
</svg>
