<svg xmlns="http://www.w3.org/2000/svg" width="121.877" height="115.96" viewBox="0 0 121.877 115.96">
  <g id="Grupo_673" data-name="Grupo 673" transform="translate(-1285 -971.438)">
    <path id="Trazado_37" data-name="Trazado 37" d="M3830.457,674.456a13.077,13.077,0,0,1,6.986,2.723,12.563,12.563,0,0,1,4.993,10.156c.045,8.907.018,17.815.01,26.722a3,3,0,1,1-5.985.011c-.01-8.865,0-17.732-.01-26.6a6.969,6.969,0,0,0-4.827-6.721,10.939,10.939,0,0,0-1.159-.251v1.484c0,20.312-.031,40.625.013,60.937a45.052,45.052,0,0,1-5.04,21.249c-1.723,3.316-3.363,6.677-5.018,10.028a3.087,3.087,0,0,1-5.872.013c-2.619-5.6-5.414-11.125-7.779-16.83a35.509,35.509,0,0,1-2.278-13.7q-.006-34.965,0-69.929c0-7.581,5.677-13.384,13.022-13.369a12.983,12.983,0,0,1,12.939,12.7C3830.465,673.493,3830.457,673.907,3830.457,674.456Zm-6.023,60.346c.012-.248.034-.5.034-.745q0-19.775,0-39.547c0-5.654-.027-11.308-.042-16.962.013-1.539.083-3.079.026-4.616a6.99,6.99,0,0,0-13.962.694q-.009,31.388.009,62.775c0,3.783-.011,7.574.254,11.342.48,6.786,3.478,12.713,6.741,18.728,2.423-4.706,4.829-9.218,6.012-14.281C3824.85,746.439,3824.4,740.614,3824.434,734.8Z" transform="translate(-2435.584 311.06)" fill="#032854"/>
    <path id="Trazado_38" data-name="Trazado 38" d="M3758.086,718.2q0-22.224,0-44.446a12.957,12.957,0,0,1,13.391-13.369q31.581,0,63.164,0a3.093,3.093,0,0,1,3.323,2.4,2.96,2.96,0,0,1-1.925,3.383,6.323,6.323,0,0,1-1.962.2c-20.723.009-41.444.071-62.167-.045a7.547,7.547,0,0,0-7.884,7.932c.1,29.463.053,58.927.051,88.392,0,4.777,2.824,7.623,7.589,7.623q31.459,0,62.916,0c2.122,0,3.462,1.222,3.412,3.1a2.975,2.975,0,0,1-2.733,2.889c-.332.025-.666.011-1,.011q-31.269,0-62.54,0c-7.232,0-12.3-4.256-13.532-11.386a14.761,14.761,0,0,1-.1-2.488Q3758.081,740.293,3758.086,718.2Z" transform="translate(-2473.085 311.059)" fill="#eeedaa"/>
    <path id="Trazado_39" data-name="Trazado 39" d="M3794.113,682.481q10.853,0,21.71,0a3,3,0,1,1-.008,5.987q-21.711.011-43.424,0a3,3,0,0,1-.981-5.9,6.118,6.118,0,0,1,1.365-.083Q3783.442,682.479,3794.113,682.481Z" transform="translate(-2464.157 329.462)" fill="#032854"/>
    <path id="Trazado_40" data-name="Trazado 40" d="M3794.072,696.764q-10.793,0-21.586,0c-1.918,0-3.157-1-3.336-2.658a2.966,2.966,0,0,1,3.156-3.329c4.535-.018,9.068-.005,13.6-.005q14.911,0,29.822,0c1.909,0,3.166,1.015,3.338,2.656a2.971,2.971,0,0,1-3.161,3.331c-5.073.018-10.147.005-15.222.005Q3797.38,696.767,3794.072,696.764Z" transform="translate(-2464.158 336.159)" fill="#032854"/>
    <path id="Trazado_41" data-name="Trazado 41" d="M3786.768,705.05q-7.049,0-14.1,0c-2.183,0-3.446-1.148-3.414-3.067.029-1.842,1.288-2.924,3.43-2.924q14.032-.005,28.066,0c2.073,0,3.421,1.155,3.453,2.942.035,1.833-1.334,3.047-3.469,3.05Q3793.754,705.06,3786.768,705.05Z" transform="translate(-2464.054 342.858)" fill="#032854"/>
    <path id="Trazado_42" data-name="Trazado 42" d="M3796.5,705.054a3,3,0,1,1,.134-6,3,3,0,1,1-.134,6Z" transform="translate(-2444.513 342.312)" fill="#032854"/>
    <path id="Trazado_43" data-name="Trazado 43" d="M3818.184,728.111a3.307,3.307,0,0,1-2.622,2.034,2.888,2.888,0,0,1-3.331-3.112q-.019-9.544-.005-19.09,0-17.9,0-35.808c0-1.756.628-2.772,1.969-3.256,1.68-.608,3,.049,3.978,1.978.015,5.654.04,11.308.042,16.962q.011,19.775,0,39.547C3818.218,727.614,3818.2,727.864,3818.184,728.111Z" transform="translate(-2429.334 317.75)" fill="#eeedaa"/>
  </g>
</svg>
