<svg xmlns="http://www.w3.org/2000/svg" width="44.263" height="44.21" viewBox="0 0 44.263 44.21">
  <g id="Grupo_624" data-name="Grupo 624" transform="translate(0 0)">
    <path id="Trazado_799" data-name="Trazado 799" d="M-1269.557,944.055a22.173,22.173,0,0,1-23.437,21.985,22.442,22.442,0,0,1-8.22-2.105,2.324,2.324,0,0,0-1.407-.143c-2.1.5-4.186,1.083-6.282,1.614a3.182,3.182,0,0,1-4.019-4.029c.527-2.035,1.124-4.051,1.636-6.09a1.949,1.949,0,0,0-.121-1.245,22.119,22.119,0,0,1,15.373-31.734,22.128,22.128,0,0,1,26.244,19C-1269.683,942.222-1269.634,943.14-1269.557,944.055Zm-2.153-.083c-.1-1.062-.123-2.138-.309-3.184a19.689,19.689,0,0,0-17.625-16.6,18.774,18.774,0,0,0-17.646,7.415c-5.3,6.765-5.746,14.172-2.054,21.89a2.865,2.865,0,0,1,.2,1.757c-.508,2.161-1.134,4.294-1.708,6.44-.358,1.339.248,1.947,1.593,1.6,2.208-.572,4.4-1.194,6.628-1.7a3.043,3.043,0,0,1,1.841.2,21.189,21.189,0,0,0,7.942,2.114A20.074,20.074,0,0,0-1271.71,943.972Z" transform="translate(1313.82 -921.867)" fill="#eeedaa"/>
    <path id="Trazado_800" data-name="Trazado 800" d="M-1294.449,941.014a1.465,1.465,0,0,1,1.689,1.033c.571,1.381,1.156,2.755,1.727,4.135.358.864-.194,1.467-.656,2.061-1.247,1.6-1.265,1.6-.13,3.256a14.772,14.772,0,0,0,6.76,5.4,1.169,1.169,0,0,0,1.577-.415c.474-.638,1.007-1.231,1.5-1.855a.966.966,0,0,1,1.337-.306c1.428.7,2.895,1.324,4.288,2.085a1.57,1.57,0,0,1,.667,1.185c-.053,2.574-1.584,4.08-4.154,4.557a8.017,8.017,0,0,1-3.188-.177c-7.259-1.7-11.979-6.43-15-12.982a6.079,6.079,0,0,1,1.189-7A2.758,2.758,0,0,1-1294.449,941.014Z" transform="translate(1308.58 -928.479)" fill="#032854"/>
  </g>
</svg>
