<svg id="Grupo_200" data-name="Grupo 200" xmlns="http://www.w3.org/2000/svg" width="305.943" height="87.194" viewBox="0 0 305.943 87.194">
  <defs>
    <style>
      .cls-1 {
        fill: #eeebd9;
      }

      .cls-2 {
        fill: #eeedaa;
      }
    </style>
  </defs>
  <g id="Grupo_197" data-name="Grupo 197" transform="translate(0 0)">
    <g id="Grupo_194" data-name="Grupo 194">
      <g id="Grupo_191" data-name="Grupo 191" transform="translate(0 14.243)">
        <path id="Trazado_114" data-name="Trazado 114" class="cls-1" d="M378.532,1047.679a15.927,15.927,0,0,1-7.9-1.935,13.452,13.452,0,0,1-5.4-5.59,20.567,20.567,0,0,1,0-17.428,13.613,13.613,0,0,1,5.308-5.589,15.152,15.152,0,0,1,7.683-1.935,14.145,14.145,0,0,1,7.463,1.871,12.358,12.358,0,0,1,4.715,5.092,15.765,15.765,0,0,1,1.625,7.213q0,1.063-.063,1.937a14.749,14.749,0,0,1-.187,1.561H366.539v-4.433h23.049l-2.56.5q0-4.5-2.467-6.935a8.812,8.812,0,0,0-6.465-2.435,9.643,9.643,0,0,0-5.278,1.405,9.173,9.173,0,0,0-3.435,4.06,15.272,15.272,0,0,0-1.219,6.4,15,15,0,0,0,1.25,6.372,9.226,9.226,0,0,0,3.53,4.092,10.213,10.213,0,0,0,5.464,1.405,10.607,10.607,0,0,0,5.59-1.314,9.965,9.965,0,0,0,3.467-3.558l3.935,2.31a13.061,13.061,0,0,1-7.34,6.09A17.008,17.008,0,0,1,378.532,1047.679Z" transform="translate(-363.291 -1015.201)"/>
        <path id="Trazado_115" data-name="Trazado 115" class="cls-1" d="M384.7,1047.054v-31.23h4.373l.313,4.873a10.229,10.229,0,0,1,4.4-4.185,12.71,12.71,0,0,1,5.59-1.311,13.569,13.569,0,0,1,6.247,1.5,10.094,10.094,0,0,1,4.5,4.623,9.031,9.031,0,0,1,2.81-3.466,12.906,12.906,0,0,1,3.967-2,14.043,14.043,0,0,1,4.091-.655,13.541,13.541,0,0,1,5.715,1.248,10.659,10.659,0,0,1,4.465,3.873,11.933,11.933,0,0,1,1.75,6.746v19.987h-5v-19.489q0-4.245-2.125-6.119a7.632,7.632,0,0,0-5.246-1.875,9.187,9.187,0,0,0-4.56,1.187,8.73,8.73,0,0,0-3.4,3.5,11.569,11.569,0,0,0-1.28,5.683v17.114h-5v-19.489q0-4.245-2.123-6.119a7.637,7.637,0,0,0-5.248-1.875,9.289,9.289,0,0,0-4.216,1.093,8.941,8.941,0,0,0-3.592,3.466,11.955,11.955,0,0,0-1.436,6.247v16.677Z" transform="translate(-346.475 -1015.201)"/>
      </g>
      <g id="Grupo_193" data-name="Grupo 193" transform="translate(96.013)">
        <g id="Grupo_192" data-name="Grupo 192">
          <path id="Trazado_116" data-name="Trazado 116" class="cls-2" d="M417.065,1060.172v-44.348h9.558l.561,11.306-1.248-1.312a13.687,13.687,0,0,1,1.936-5.5,11.094,11.094,0,0,1,3.873-3.748,10.644,10.644,0,0,1,5.435-1.373,11.92,11.92,0,0,1,6.744,1.9,12.446,12.446,0,0,1,4.467,5.5,21.421,21.421,0,0,1,1.593,8.713,21.727,21.727,0,0,1-1.625,8.808,12.683,12.683,0,0,1-4.528,5.621,11.934,11.934,0,0,1-6.778,1.935,9.48,9.48,0,0,1-6.871-2.53,12.485,12.485,0,0,1-3.5-6.4l1-1.5v22.924Zm16.364-20.3a5.131,5.131,0,0,0,4.31-2.03q1.561-2.03,1.562-6.4t-1.53-6.4a5.442,5.442,0,0,0-7.34-1.061,6.13,6.13,0,0,0-2.028,2.841,12.952,12.952,0,0,0-.72,4.621,13.956,13.956,0,0,0,.655,4.53,5.969,5.969,0,0,0,1.968,2.9A5,5,0,0,0,433.429,1039.871Z" transform="translate(-417.065 -1000.958)"/>
          <path id="Trazado_117" data-name="Trazado 117" class="cls-2" d="M439,1047.054v-31.23h9.37l.436,6.746a11.725,11.725,0,0,1,3.53-5.433,9.048,9.048,0,0,1,5.965-1.935,9.512,9.512,0,0,1,2.03.186,4.33,4.33,0,0,1,1.343.5l-1.062,8.745a7.77,7.77,0,0,0-1.593-.407,15.275,15.275,0,0,0-2.343-.157,7.741,7.741,0,0,0-3.5.813,6.282,6.282,0,0,0-2.593,2.405,7.657,7.657,0,0,0-.968,4.03v15.739Z" transform="translate(-399.836 -1000.958)"/>
          <path id="Trazado_118" data-name="Trazado 118" class="cls-2" d="M469.786,1047.679a19.424,19.424,0,0,1-8.963-1.935,13.808,13.808,0,0,1-5.839-5.558,19.574,19.574,0,0,1,0-17.491,13.89,13.89,0,0,1,5.776-5.558,18.189,18.189,0,0,1,8.526-1.935,17.229,17.229,0,0,1,8.4,1.9,12.965,12.965,0,0,1,5.278,5.246,15.812,15.812,0,0,1,1.81,7.653q0,1.122-.062,2.248a17.909,17.909,0,0,1-.186,1.875H459.793v-5.683h20.051l-5.06,1.936a10.288,10.288,0,0,0-1.343-5.746,4.658,4.658,0,0,0-4.155-2,5.993,5.993,0,0,0-3.4.938,5.674,5.674,0,0,0-2.123,2.935,15.348,15.348,0,0,0-.72,5.123,12.82,12.82,0,0,0,.812,4.966,5.46,5.46,0,0,0,2.31,2.748,7.3,7.3,0,0,0,3.623.845,6.726,6.726,0,0,0,3.78-.939,5.611,5.611,0,0,0,2.093-2.621l8.5,2.811a9.891,9.891,0,0,1-3.032,4.528,14.51,14.51,0,0,1-5.121,2.78A20.569,20.569,0,0,1,469.786,1047.679Z" transform="translate(-388.9 -1000.958)"/>
          <path id="Trazado_119" data-name="Trazado 119" class="cls-2" d="M474.086,1047.054v-31.23h9.5l.561,10.743-1.186-1.185a14,14,0,0,1,2.218-5.623,10.309,10.309,0,0,1,4-3.4,12.32,12.32,0,0,1,5.4-1.153,12.117,12.117,0,0,1,5.653,1.248,9.071,9.071,0,0,1,3.778,3.685,12.325,12.325,0,0,1,1.375,6.121v20.8H494.762v-17.989q0-3.246-1.25-4.5a4.317,4.317,0,0,0-3.185-1.25,5.758,5.758,0,0,0-2.81.718,4.922,4.922,0,0,0-2.062,2.28,9.771,9.771,0,0,0-.748,4.185v16.552Z" transform="translate(-372.276 -1000.958)"/>
          <path id="Trazado_120" data-name="Trazado 120" class="cls-2" d="M507.872,1053.231a12.089,12.089,0,0,1-6.776-1.9,12.347,12.347,0,0,1-4.5-5.53,24.527,24.527,0,0,1,.063-17.551,12.764,12.764,0,0,1,4.623-5.558,12.224,12.224,0,0,1,6.838-1.935,9.254,9.254,0,0,1,6.84,2.591,12.247,12.247,0,0,1,3.341,6.589l-1,1.313v-23.112h10.618v44.473H518.43l-.687-10.618,1.248.937a12.351,12.351,0,0,1-1.9,5.433,10.826,10.826,0,0,1-3.873,3.592A10.96,10.96,0,0,1,507.872,1053.231Zm3.685-7.808a4.97,4.97,0,0,0,3.092-.968,6.047,6.047,0,0,0,1.968-2.9,14.307,14.307,0,0,0,.687-4.746,13.365,13.365,0,0,0-.655-4.466,5.886,5.886,0,0,0-1.937-2.81,4.973,4.973,0,0,0-3.092-.969,5.221,5.221,0,0,0-4.34,2.03q-1.591,2.03-1.593,6.4t1.562,6.4A5.126,5.126,0,0,0,511.557,1045.423Z" transform="translate(-355.844 -1006.51)"/>
          <path id="Trazado_121" data-name="Trazado 121" class="cls-2" d="M533.666,1053.945a19.423,19.423,0,0,1-8.965-1.935,13.805,13.805,0,0,1-5.838-5.558,19.573,19.573,0,0,1,0-17.491,13.888,13.888,0,0,1,5.776-5.558,18.188,18.188,0,0,1,8.526-1.935,17.211,17.211,0,0,1,8.4,1.9,12.957,12.957,0,0,1,5.28,5.246,15.814,15.814,0,0,1,1.81,7.653q0,1.122-.062,2.248a17.93,17.93,0,0,1-.186,1.875H523.671v-5.683h20.051l-5.06,1.936a10.273,10.273,0,0,0-1.343-5.746,4.658,4.658,0,0,0-4.155-2,5.994,5.994,0,0,0-3.4.938,5.673,5.673,0,0,0-2.123,2.935,15.351,15.351,0,0,0-.72,5.123,12.821,12.821,0,0,0,.812,4.966,5.459,5.459,0,0,0,2.31,2.748,7.3,7.3,0,0,0,3.624.845,6.726,6.726,0,0,0,3.778-.939,5.6,5.6,0,0,0,2.093-2.621l8.5,2.811a9.9,9.9,0,0,1-3.03,4.528,14.513,14.513,0,0,1-5.122,2.78A20.562,20.562,0,0,1,533.666,1053.945Zm-1.312-46.721h9.868l-6.308,10.806h-7.745Z" transform="translate(-338.725 -1007.224)"/>
        </g>
      </g>
    </g>
    <g id="Grupo_196" data-name="Grupo 196" transform="translate(115.183 56.414)">
      <g id="Grupo_195" data-name="Grupo 195">
        <path id="Trazado_122" data-name="Trazado 122" class="cls-2" d="M435.522,1043.107a7.715,7.715,0,0,1,2.918.51,6.28,6.28,0,0,1,2.185,1.466,7.651,7.651,0,0,1,1.5,2.266L439.7,1048.5a4.834,4.834,0,0,0-1.546-2.344,4.242,4.242,0,0,0-2.7-.812,5.089,5.089,0,0,0-2.744.716,4.577,4.577,0,0,0-1.753,2.073,9.092,9.092,0,0,0,0,6.524,4.557,4.557,0,0,0,1.753,2.089,5.074,5.074,0,0,0,2.744.718,5.528,5.528,0,0,0,2.153-.382,3.792,3.792,0,0,0,1.5-1.116,4.183,4.183,0,0,0,.814-1.787l2.36.83a7.787,7.787,0,0,1-1.482,2.519,6.269,6.269,0,0,1-2.266,1.61,7.708,7.708,0,0,1-3.014.559,7.975,7.975,0,0,1-3.987-.989,6.887,6.887,0,0,1-2.744-2.855,10.5,10.5,0,0,1,0-8.9,6.9,6.9,0,0,1,2.744-2.857A7.973,7.973,0,0,1,435.522,1043.107Z" transform="translate(-427.802 -1035.453)"/>
        <path id="Trazado_123" data-name="Trazado 123" class="cls-2" d="M445.526,1043.107a7.954,7.954,0,0,1,4,.987,6.953,6.953,0,0,1,2.728,2.857,10.5,10.5,0,0,1,0,8.9,6.939,6.939,0,0,1-2.728,2.855,8.563,8.563,0,0,1-7.99,0,6.9,6.9,0,0,1-2.743-2.855,10.5,10.5,0,0,1,0-8.9,6.908,6.908,0,0,1,2.743-2.857A7.978,7.978,0,0,1,445.526,1043.107Zm0,2.2a5.06,5.06,0,0,0-2.775.734,4.756,4.756,0,0,0-1.769,2.089,8.85,8.85,0,0,0,0,6.524,4.733,4.733,0,0,0,1.769,2.105,5.614,5.614,0,0,0,5.549,0,4.747,4.747,0,0,0,1.771-2.105,8.874,8.874,0,0,0,0-6.524,4.77,4.77,0,0,0-1.771-2.089A5.059,5.059,0,0,0,445.526,1045.307Z" transform="translate(-419.943 -1035.453)"/>
        <path id="Trazado_124" data-name="Trazado 124" class="cls-2" d="M449.151,1059.375v-15.95h2.234l.223,3.573-.414-.35a5.445,5.445,0,0,1,1.371-2.057,5.242,5.242,0,0,1,1.993-1.134,7.882,7.882,0,0,1,2.344-.35,7.319,7.319,0,0,1,3.126.653,5.226,5.226,0,0,1,2.25,1.993,6.311,6.311,0,0,1,.845,3.414v10.208h-2.553v-9.315q0-2.646-1.13-3.683a3.985,3.985,0,0,0-2.792-1.036,5.32,5.32,0,0,0-2.3.541,4.474,4.474,0,0,0-1.9,1.755,6.132,6.132,0,0,0-.75,3.253v8.485Z" transform="translate(-411.033 -1035.453)"/>
        <path id="Trazado_125" data-name="Trazado 125" class="cls-2" d="M473.459,1059.694a8.136,8.136,0,0,1-4.035-.989,6.865,6.865,0,0,1-2.759-2.855,10.5,10.5,0,0,1,0-8.9,6.962,6.962,0,0,1,2.712-2.857,7.731,7.731,0,0,1,3.923-.987,7.216,7.216,0,0,1,3.812.957,6.3,6.3,0,0,1,2.407,2.6,8.046,8.046,0,0,1,.83,3.683c0,.363-.011.691-.032.989a7.325,7.325,0,0,1-.1.8H467.335v-2.264H479.1l-1.309.255a4.76,4.76,0,0,0-1.259-3.541,4.491,4.491,0,0,0-3.3-1.243,4.945,4.945,0,0,0-2.7.716,4.7,4.7,0,0,0-1.753,2.073,7.815,7.815,0,0,0-.623,3.271,7.662,7.662,0,0,0,.637,3.253,4.719,4.719,0,0,0,1.8,2.089,5.22,5.22,0,0,0,2.792.718,5.431,5.431,0,0,0,2.853-.67,5.085,5.085,0,0,0,1.769-1.82l2.01,1.18a6.659,6.659,0,0,1-3.748,3.112A8.684,8.684,0,0,1,473.459,1059.694Z" transform="translate(-398.053 -1035.453)"/>
        <path id="Trazado_126" data-name="Trazado 126" class="cls-2" d="M482.453,1059.554a7.367,7.367,0,0,1-2.887-.573,4.862,4.862,0,0,1-2.2-1.868,6.03,6.03,0,0,1-.846-3.366v-10.463h2.551v9.793q0,2.424,1.053,3.333a4.393,4.393,0,0,0,2.966.909,5.262,5.262,0,0,0,1.755-.3,4.288,4.288,0,0,0,1.546-.957,4.588,4.588,0,0,0,1.086-1.677,6.68,6.68,0,0,0,.4-2.423v-8.677h2.551v15.95H488.2l-.161-2.423a4.966,4.966,0,0,1-2.248,2.089A7.909,7.909,0,0,1,482.453,1059.554Z" transform="translate(-389.535 -1035.313)"/>
        <path id="Trazado_127" data-name="Trazado 127" class="cls-2" d="M497.013,1058.484a5.463,5.463,0,0,1,3.539,1.038,3.37,3.37,0,0,1,1.277,2.759,3.91,3.91,0,0,1-1.036,2.71,6.671,6.671,0,0,1-2.775,1.769,11.525,11.525,0,0,1-3.908.623,10.037,10.037,0,0,1-5.63-1.276,3.67,3.67,0,0,1-1.866-3.062,3.441,3.441,0,0,1,.845-2.28,3.9,3.9,0,0,1,2.855-1.132l-.223.479a4.287,4.287,0,0,1-1.834-.973,2.557,2.557,0,0,1-.75-1.993,3.015,3.015,0,0,1,.973-2.25,4.856,4.856,0,0,1,2.887-1.166l1.689.863h-.318a3.748,3.748,0,0,0-2.218.782,1.852,1.852,0,0,0-.654,1.355,1.471,1.471,0,0,0,.654,1.323,3.317,3.317,0,0,0,1.835.432Zm-3.159-14.226a8.018,8.018,0,0,1,3.4.686,5.552,5.552,0,0,1,2.312,1.9,5.133,5.133,0,0,1,0,5.6,5.5,5.5,0,0,1-2.312,1.914,8,8,0,0,1-3.4.686,7.014,7.014,0,0,1-4.848-1.516,4.965,4.965,0,0,1-1.693-3.875,4.8,4.8,0,0,1,.846-2.807,5.678,5.678,0,0,1,2.312-1.9A7.91,7.91,0,0,1,493.854,1044.258Zm.223,20.99a10.24,10.24,0,0,0,3.048-.384,4.162,4.162,0,0,0,1.769-.989,1.876,1.876,0,0,0,.573-1.307,1.625,1.625,0,0,0-.686-1.373,4.348,4.348,0,0,0-2.471-.511H491.4a2.789,2.789,0,0,0-1.723.527,1.716,1.716,0,0,0-.7,1.452,2.109,2.109,0,0,0,1.355,1.882A8.255,8.255,0,0,0,494.077,1065.248Zm-.223-18.917a4.244,4.244,0,0,0-2.775.911,3.138,3.138,0,0,0,0,4.8,4.624,4.624,0,0,0,5.549,0,3.135,3.135,0,0,0,0-4.8A4.248,4.248,0,0,0,493.854,1046.331Zm8.006-4.688.575,2.264h-.223a4.01,4.01,0,0,0-2.409.623,2.308,2.308,0,0,0-.846,1.993l-1.562-.8a4.016,4.016,0,0,1,.575-2.169,3.811,3.811,0,0,1,1.562-1.42,4.794,4.794,0,0,1,2.169-.494h.159Z" transform="translate(-381.606 -1036.603)"/>
        <path id="Trazado_128" data-name="Trazado 128" class="cls-2" d="M504.294,1063.062a8.136,8.136,0,0,1-4.035-.989,6.864,6.864,0,0,1-2.759-2.855,10.5,10.5,0,0,1,0-8.9,6.961,6.961,0,0,1,2.712-2.857,7.73,7.73,0,0,1,3.923-.987,7.217,7.217,0,0,1,3.812.957,6.305,6.305,0,0,1,2.407,2.6,8.047,8.047,0,0,1,.83,3.683c0,.363-.011.691-.032.989a7.318,7.318,0,0,1-.1.8H498.17v-2.264h11.77l-1.309.255a4.76,4.76,0,0,0-1.259-3.541,4.491,4.491,0,0,0-3.3-1.243,4.944,4.944,0,0,0-2.7.716,4.7,4.7,0,0,0-1.753,2.073,7.816,7.816,0,0,0-.623,3.271,7.664,7.664,0,0,0,.637,3.253,4.718,4.718,0,0,0,1.8,2.089,5.22,5.22,0,0,0,2.793.718,5.431,5.431,0,0,0,2.853-.669,5.086,5.086,0,0,0,1.769-1.819l2.01,1.18a6.661,6.661,0,0,1-3.748,3.112A8.69,8.69,0,0,1,504.294,1063.062Zm.511-24.241h2.775l-3.125,5.326H502.38Z" transform="translate(-373.832 -1038.82)"/>
        <path id="Trazado_129" data-name="Trazado 129" class="cls-2" d="M507.444,1059.375v-15.95h2.234L509.9,1047l-.416-.35a5.469,5.469,0,0,1,1.373-2.057,5.241,5.241,0,0,1,1.993-1.134,7.885,7.885,0,0,1,2.346-.35,7.317,7.317,0,0,1,3.125.653,5.213,5.213,0,0,1,2.248,1.993,6.3,6.3,0,0,1,.846,3.414v10.208h-2.551v-9.315q0-2.646-1.132-3.683a3.981,3.981,0,0,0-2.791-1.036,5.321,5.321,0,0,0-2.3.541,4.46,4.46,0,0,0-1.9,1.755,6.115,6.115,0,0,0-.75,3.253v8.485Z" transform="translate(-365.245 -1035.453)"/>
        <path id="Trazado_130" data-name="Trazado 130" class="cls-2" d="M520.059,1043.255a1.807,1.807,0,1,1,1.389-.527A1.879,1.879,0,0,1,520.059,1043.255Zm1.277,3.06v15.95h-2.551v-15.95Z" transform="translate(-356.839 -1038.343)"/>
        <path id="Trazado_131" data-name="Trazado 131" class="cls-2" d="M530.412,1059.694a8.14,8.14,0,0,1-4.035-.989,6.866,6.866,0,0,1-2.759-2.855,10.5,10.5,0,0,1,0-8.9,6.962,6.962,0,0,1,2.712-2.857,7.736,7.736,0,0,1,3.923-.987,7.216,7.216,0,0,1,3.812.957,6.292,6.292,0,0,1,2.407,2.6,8.047,8.047,0,0,1,.83,3.683c0,.363-.011.691-.03.989s-.055.564-.1.8H524.288v-2.264h11.77l-1.307.255a4.754,4.754,0,0,0-1.261-3.541,4.488,4.488,0,0,0-3.3-1.243,4.938,4.938,0,0,0-2.694.716,4.7,4.7,0,0,0-1.755,2.073,7.816,7.816,0,0,0-.621,3.271,7.662,7.662,0,0,0,.637,3.253,4.715,4.715,0,0,0,1.8,2.089,5.22,5.22,0,0,0,2.792.718,5.427,5.427,0,0,0,2.853-.67,5.09,5.09,0,0,0,1.771-1.82l2.01,1.18a6.672,6.672,0,0,1-3.75,3.112A8.676,8.676,0,0,1,530.412,1059.694Z" transform="translate(-353.317 -1035.453)"/>
      </g>
    </g>
  </g>
</svg>
