<svg xmlns="http://www.w3.org/2000/svg" xmlns:xlink="http://www.w3.org/1999/xlink" width="312.57" height="138.922" viewBox="0 0 312.57 138.922">
  <defs>
    <linearGradient id="linear-gradient" y1="0.5" x2="1" y2="0.5" gradientUnits="objectBoundingBox">
      <stop offset="0" stop-color="#ff57cc"/>
      <stop offset="0.125" stop-color="#ff4ed5"/>
      <stop offset="0.193" stop-color="#f048da"/>
      <stop offset="0.25" stop-color="#ea46dd"/>
      <stop offset="0.375" stop-color="#d03fe5"/>
      <stop offset="0.5" stop-color="#af3cec"/>
      <stop offset="0.625" stop-color="#863df3"/>
      <stop offset="0.75" stop-color="#4f40ff"/>
      <stop offset="0.878" stop-color="#0046ff"/>
      <stop offset="1" stop-color="#004bff"/>
    </linearGradient>
  </defs>
  <g id="Grupo_21" data-name="Grupo 21" transform="translate(0.273 -0.043)">
    <rect id="Rectángulo_167" data-name="Rectángulo 167" width="312.57" height="138.922" rx="10" transform="translate(-0.273 0.043)" fill="#fff"/>
    <g id="Grupo_363" data-name="Grupo 363" transform="translate(78.727 34.043)">
      <g id="Grupo_359" data-name="Grupo 359">
        <g id="Grupo_358" data-name="Grupo 358">
          <rect id="Rectángulo_168" data-name="Rectángulo 168" width="155.653" height="61.267" rx="17.157" fill="url(#linear-gradient)"/>
          <g id="Grupo_357" data-name="Grupo 357" transform="translate(23.835 8.026)">
            <path id="Trazado_519" data-name="Trazado 519" d="M38.485,3114.987h5.84v15.335a14.166,14.166,0,0,1,3.951-2.123,14.431,14.431,0,0,1,10.293.384,14.3,14.3,0,0,1,4.571,3.154,15.374,15.374,0,0,1,3.1,4.689,14.663,14.663,0,0,1,0,11.384,14.946,14.946,0,0,1-3.1,4.66,14.525,14.525,0,0,1-4.571,3.126,14.455,14.455,0,0,1-10.293.384,14.115,14.115,0,0,1-3.951-2.123v2.3h-5.84Zm14.452,35.922a8.167,8.167,0,0,0,3.362-.708,8.705,8.705,0,0,0,2.743-1.887,8.928,8.928,0,0,0,1.828-2.771,8.655,8.655,0,0,0,.678-3.423,8.987,8.987,0,0,0-2.507-6.251,8.733,8.733,0,0,0-2.743-1.889,8.345,8.345,0,0,0-6.724,0A8.626,8.626,0,0,0,45,3138.67a8.832,8.832,0,0,0-.678,3.45,8.624,8.624,0,0,0,.678,3.423,8.9,8.9,0,0,0,1.828,2.771,8.705,8.705,0,0,0,2.743,1.887A8.167,8.167,0,0,0,52.937,3150.909Z" transform="translate(-38.485 -3114.928)" fill="#fff"/>
            <path id="Trazado_520" data-name="Trazado 520" d="M67.389,3156.748a10.365,10.365,0,0,1-4.158-.855,10.72,10.72,0,0,1-5.721-5.72,10.485,10.485,0,0,1-.855-4.218v-30.968h5.839v30.968a4.821,4.821,0,0,0,1.416,3.508,4.681,4.681,0,0,0,3.48,1.446Z" transform="translate(-24.213 -3114.928)" fill="#fff"/>
            <path id="Trazado_521" data-name="Trazado 521" d="M68.424,3123.289a3.826,3.826,0,0,1-3.775-3.774,3.692,3.692,0,0,1,1.121-2.713,3.623,3.623,0,0,1,2.653-1.12,3.826,3.826,0,0,1,3.835,3.833,3.633,3.633,0,0,1-1.121,2.655A3.7,3.7,0,0,1,68.424,3123.289Zm-2.891,4.13h5.84v28.195h-5.84Z" transform="translate(-17.934 -3114.383)" fill="#fff"/>
            <path id="Trazado_522" data-name="Trazado 522" d="M86.287,3151.248a15.6,15.6,0,0,1-5.987-1.15,15.762,15.762,0,0,1-4.9-3.127,14.506,14.506,0,0,1-3.3-4.66,14.005,14.005,0,0,1,0-11.384,14.565,14.565,0,0,1,3.3-4.659,15.756,15.756,0,0,1,4.9-3.126,15.587,15.587,0,0,1,5.987-1.152,16.432,16.432,0,0,1,5.162.826,15.3,15.3,0,0,1,4.571,2.417l-3.6,4.66a9.866,9.866,0,0,0-2.86-1.533,10.362,10.362,0,0,0-6.962.148,9.346,9.346,0,0,0-5.1,4.689,8.009,8.009,0,0,0,0,6.844,8.949,8.949,0,0,0,2.064,2.771A10.111,10.111,0,0,0,82.6,3144.7a9.674,9.674,0,0,0,3.687.708,10.141,10.141,0,0,0,3.275-.53,9.874,9.874,0,0,0,2.86-1.534l3.6,4.659a16.6,16.6,0,0,1-4.571,2.389A15.9,15.9,0,0,1,86.287,3151.248Z" transform="translate(-13.029 -3109.428)" fill="#fff"/>
            <path id="Trazado_523" data-name="Trazado 523" d="M86.948,3114.954h5.839v25.6a17.819,17.819,0,0,0,5.751-5.455,39.543,39.543,0,0,0,3.628-7.108H108.3l-.648,1.947a31.6,31.6,0,0,1-6.785,11.562l10.677,14.687h-7.256l-7.961-10.972q-.828.533-1.711,1c-.591.314-1.2.611-1.83.884v9.084H86.948Z" transform="translate(-0.418 -3114.954)" fill="#fff"/>
          </g>
        </g>
      </g>
      <g id="Grupo_362" data-name="Grupo 362" transform="translate(99.756 52.201)">
        <rect id="Rectángulo_169" data-name="Rectángulo 169" width="39.614" height="18.13" rx="5.077"/>
        <g id="Grupo_361" data-name="Grupo 361" transform="translate(6.111 5.964)">
          <g id="Grupo_360" data-name="Grupo 360">
            <path id="Trazado_524" data-name="Trazado 524" d="M88.9,3143.187a.142.142,0,0,1,.041-.109.137.137,0,0,1,.1-.042h1.8a.152.152,0,0,1,.105.042.138.138,0,0,1,.045.109v7.149a.146.146,0,0,1-.045.106.148.148,0,0,1-.105.044H88.98a.138.138,0,0,1-.127-.075l-2.332-4.126v4.051a.142.142,0,0,1-.045.109.151.151,0,0,1-.1.041h-1.8a.141.141,0,0,1-.148-.15v-7.149a.142.142,0,0,1,.041-.109.145.145,0,0,1,.107-.042h1.862a.128.128,0,0,1,.12.068l2.339,3.76Z" transform="translate(-84.429 -3143.036)" fill="#fff"/>
            <path id="Trazado_525" data-name="Trazado 525" d="M88.9,3150.485a.149.149,0,0,1-.109-.041.153.153,0,0,1-.041-.109v-7.149a.142.142,0,0,1,.15-.15h4.373a.151.151,0,0,1,.1.042.138.138,0,0,1,.045.109v1.482a.152.152,0,0,1-.148.148H90.844v1.059h2.1a.137.137,0,0,1,.1.039.145.145,0,0,1,.041.1v1.489a.138.138,0,0,1-.041.1.13.13,0,0,1-.1.041h-2.1v1.066h2.428a.152.152,0,0,1,.1.041.129.129,0,0,1,.045.1v1.482a.142.142,0,0,1-.045.109.151.151,0,0,1-.1.041Z" transform="translate(-81.035 -3143.036)" fill="#fff"/>
            <path id="Trazado_526" data-name="Trazado 526" d="M97.551,3143.036a.128.128,0,0,1,.141.113l.878,3.925.545-3.911a.154.154,0,0,1,.048-.089.144.144,0,0,1,.1-.038h1.8a.145.145,0,0,1,.111.048.126.126,0,0,1,.03.116l-.991,7.158a.151.151,0,0,1-.048.089.134.134,0,0,1-.093.037H98.1a.132.132,0,0,1-.1-.037,2.433,2.433,0,0,1-.405-.621,8.6,8.6,0,0,1-.384-.908c-.114-.322-.218-.632-.312-.936s-.166-.552-.216-.745l-.075-.3c-.02.075-.046.179-.082.309s-.105.371-.211.719-.212.667-.318.96a7.963,7.963,0,0,1-.377.882,2.539,2.539,0,0,1-.405.637.139.139,0,0,1-.1.037H93.157a.147.147,0,0,1-.1-.037.151.151,0,0,1-.048-.089l-.989-7.158a.146.146,0,0,1,.036-.116.149.149,0,0,1,.112-.048H93.96a.133.133,0,0,1,.093.038.136.136,0,0,1,.048.089l.552,3.911.878-3.925a.13.13,0,0,1,.143-.113Z" transform="translate(-78.469 -3143.036)" fill="#fff"/>
            <path id="Trazado_527" data-name="Trazado 527" d="M102.273,3143.29l-.141,1.452a.147.147,0,0,1-.061.1.12.12,0,0,1-.111.025,6.692,6.692,0,0,0-1.362-.169,1.132,1.132,0,0,0-.437.062.559.559,0,0,0-.261.182.861.861,0,0,0-.107.195.436.436,0,0,0-.03.148.535.535,0,0,0,.03.164.958.958,0,0,0,.12.223.892.892,0,0,0,.3.261,1.875,1.875,0,0,0,.518.2,2.373,2.373,0,0,1,.666.275,2.744,2.744,0,0,1,.6.488,2.18,2.18,0,0,1,.439.726,2.63,2.63,0,0,1,.164.938,1.921,1.921,0,0,1-.671,1.614,3.538,3.538,0,0,1-2.168.525,13.344,13.344,0,0,1-1.578-.089.148.148,0,0,1-.089-.054.155.155,0,0,1-.037-.1L98.2,3149a.142.142,0,0,1,.061-.1.135.135,0,0,1,.118-.021,6.67,6.67,0,0,0,1.312.164,1.181,1.181,0,0,0,.443-.064.539.539,0,0,0,.257-.178.849.849,0,0,0,.1-.195.469.469,0,0,0,.03-.151.528.528,0,0,0-.03-.165,1.171,1.171,0,0,0-.114-.223.894.894,0,0,0-.3-.26,1.906,1.906,0,0,0-.518-.2,2.3,2.3,0,0,1-.671-.275,2.867,2.867,0,0,1-.595-.484,2.188,2.188,0,0,1-.445-.727,2.615,2.615,0,0,1-.166-.943,1.838,1.838,0,0,1,.755-1.589,3.48,3.48,0,0,1,2.082-.549,15.023,15.023,0,0,1,1.623.1.131.131,0,0,1,.089.052A.154.154,0,0,1,102.273,3143.29Z" transform="translate(-74.016 -3143.036)" fill="#fff"/>
          </g>
        </g>
      </g>
    </g>
  </g>
</svg>
