<?xml version="1.0" encoding="utf-8"?>
<!-- Generator: Adobe Illustrator 25.3.1, SVG Export Plug-In . SVG Version: 6.00 Build 0)  -->
<svg version="1.2" baseProfile="tiny" id="Capa_1" xmlns="http://www.w3.org/2000/svg" xmlns:xlink="http://www.w3.org/1999/xlink"
	 x="0px" y="0px" viewBox="0 0 312.6 138.9" overflow="visible" xml:space="preserve">
<g id="Grupo_23" transform="translate(0.084 -0.043)">
	<g id="Grupo_373" transform="translate(29.916 55.043)">
		<path id="Trazado_552" fill-rule="evenodd" fill="#C3C18D" d="M20.6,5c5.3,0,9.6,4.3,9.6,9.6c0,5.3-4.3,9.6-9.6,9.6
			c-2.7,0-5.3-1.1-7.1-3.1L7,14.6l6.5-6.5C15.3,6.1,17.9,5,20.6,5 M20.6,9.5c2.8,0,5.1,2.3,5.1,5.1s-2.3,5.1-5.1,5.1
			c-2.8,0-5.1-2.3-5.1-5.1c0,0,0,0,0,0C15.5,11.8,17.8,9.5,20.6,9.5 M20.7,0c8.1,0,14.6,6.5,14.6,14.6s-6.5,14.6-14.6,14.6
			c-4.1,0-8-1.7-10.8-4.8L0,14.6l9.9-9.9C12.6,1.7,16.5,0,20.7,0"/>
		<path id="Trazado_553" fill-rule="evenodd" fill="#C3C18D" d="M25.7,14.6H15.5v0c0-2.8,2.2-5.1,5-5.2c2.8,0,5.1,2.2,5.2,5
			C25.7,14.5,25.7,14.6,25.7,14.6L25.7,14.6z M20.7,0c8.1,0,14.6,6.5,14.6,14.6l0,0h-5c0-5.3-4.3-9.6-9.6-9.6
			c-2.7,0-5.3,1.1-7.1,3.1L7,14.6H0l9.9-9.9C12.6,1.7,16.5,0,20.7,0"/>
		<path id="Trazado_554" fill="#C3C18D" d="M104,23.9V5.4h13.4v2.2h-10.9v5.7h10.2v2.2h-10.2v6.3h11.3v2.2L104,23.9z M94.7,23.9V7.5
			h-6.1V5.4h14.6v2.2h-6.1v16.3H94.7z M74,17.9l2.3-0.2c0.1,0.8,0.3,1.6,0.8,2.3c0.5,0.7,1.1,1.2,1.9,1.4c0.9,0.4,1.9,0.6,2.8,0.6
			c0.8,0,1.7-0.1,2.5-0.4c0.6-0.2,1.2-0.6,1.6-1.1c0.3-0.5,0.5-1,0.5-1.6c0-0.5-0.2-1.1-0.5-1.5c-0.4-0.5-1-0.9-1.7-1.1
			c-1.1-0.4-2.2-0.7-3.3-0.9c-1.2-0.3-2.4-0.6-3.6-1.2c-0.8-0.4-1.5-1-2-1.7c-0.4-0.7-0.7-1.5-0.6-2.3c0-0.9,0.3-1.8,0.8-2.6
			C76,6.7,76.8,6,77.8,5.7C78.8,5.2,80,5,81.2,5c1.2,0,2.5,0.2,3.6,0.7c1,0.4,1.8,1.1,2.4,1.9c0.6,0.9,0.9,1.9,0.9,2.9l-2.4,0.2
			c-0.1-1-0.5-2-1.3-2.6c-0.9-0.7-2.1-1-3.2-0.9C80.1,7.1,79,7.4,78,8c-0.6,0.5-1,1.2-1,2c0,0.6,0.2,1.2,0.7,1.6
			c1.1,0.7,2.4,1.1,3.7,1.3c1.4,0.3,2.8,0.7,4.1,1.2c1,0.4,1.8,1,2.4,1.9c0.5,0.8,0.8,1.7,0.8,2.6c0,1-0.3,2-0.8,2.8
			c-0.6,0.9-1.4,1.6-2.4,2c-1.1,0.5-2.3,0.7-3.6,0.7c-1.4,0-2.9-0.2-4.2-0.7c-1.1-0.4-2-1.2-2.7-2.2C74.3,20.2,74,19.1,74,17.9
			 M60.3,23.8V5.3h13.4v2.2H62.8v5.7H73v2.2H62.8v6.3h11.3v2.2L60.3,23.8z"/>
		<path id="Trazado_555" fill="#C3C18D" d="M49.2,5.1c-5.3,0-9.7,4.3-9.7,9.7s4.3,9.7,9.7,9.7s9.7-4.3,9.7-9.7c0,0,0,0,0,0
			C58.8,9.5,54.5,5.2,49.2,5.1z M49.2,22.4c-4.2,0-7.6-3.4-7.6-7.6c0-4.2,3.4-7.6,7.6-7.6c4.2,0,7.6,3.4,7.6,7.6
			C56.8,19,53.4,22.4,49.2,22.4z"/>
		<path id="Trazado_556" fill="#C3C18D" d="M237,5.4h14.6v4h-9.1v2.9h8.5V16h-8.5v3.6h9.4v4.2H237V5.4z M219.5,17.7l5.2-0.3
			c0.1,0.7,0.3,1.4,0.7,2c0.6,0.7,1.5,1.2,2.4,1.1c0.7,0,1.3-0.2,1.8-0.6c0.4-0.3,0.6-0.8,0.6-1.3c0-0.5-0.2-1-0.6-1.3
			c-0.8-0.6-1.8-0.9-2.8-1.1c-1.9-0.3-3.6-1.1-5.1-2.2c-1-0.9-1.6-2.2-1.5-3.6c0-1,0.3-1.9,0.8-2.7c0.6-0.9,1.4-1.6,2.4-2
			c1.4-0.5,2.9-0.8,4.3-0.7c1.8-0.1,3.6,0.3,5.2,1.3c1.3,1,2,2.6,2.1,4.2l-5.1,0.3c-0.1-0.7-0.4-1.3-0.9-1.8
			c-0.5-0.4-1.2-0.6-1.8-0.6c-0.5,0-1,0.1-1.4,0.4c-0.3,0.3-0.5,0.6-0.5,1c0,0.3,0.2,0.6,0.4,0.8c0.6,0.4,1.2,0.6,1.8,0.7
			c1.8,0.3,3.5,0.9,5.1,1.6c0.9,0.5,1.7,1.2,2.3,2c0.5,0.8,0.7,1.8,0.7,2.7c0,1.2-0.3,2.3-0.9,3.3c-0.6,1-1.5,1.8-2.6,2.3
			c-1.3,0.6-2.8,0.8-4.3,0.8c-3,0-5.1-0.6-6.2-1.8C220.3,21.1,219.6,19.4,219.5,17.7 M201,5.4h5.1l6.6,10.2V5.4h5.2v18.5h-5.2
			l-6.6-10.1v10.1H201L201,5.4z M184.7,5.4h14.6v4h-9.1v2.9h8.5V16h-8.5v3.6h9.4v4.2h-14.9V5.4z M167.4,5.4H184v4.6h-5.6v13.9h-5.5
			V9.9h-5.6L167.4,5.4z M161.9,16.8l-1.9-6.6l-1.9,6.6H161.9z M163,20.8h-6.2l-0.9,3h-5.6L157,5.4h6l6.6,18.5h-5.7L163,20.8z
			 M136,5.4h5.5v13.9h8.5v4.5h-14L136,5.4z M125.7,13.3h1.3c0.8,0.1,1.6-0.1,2.2-0.6c0.4-0.4,0.7-0.9,0.6-1.5c0-0.5-0.2-1.1-0.6-1.5
			c-0.6-0.5-1.3-0.7-2.1-0.6h-1.6L125.7,13.3z M120.3,5.4h9.1c1.6-0.1,3.2,0.4,4.4,1.5c1,1.1,1.6,2.7,1.5,4.2
			c0.1,1.6-0.5,3.2-1.6,4.4c-1.4,1.2-3.1,1.7-4.9,1.6h-3v6.8h-5.5L120.3,5.4z"/>
	</g>
</g>
</svg>
