<svg id="Grupo_280" data-name="Grupo 280" xmlns="http://www.w3.org/2000/svg" width="312.57" height="138.922" viewBox="0 0 312.57 138.922">
  <defs>
    <style>
      .cls-1 {
        fill: #fff;
      }

      .cls-2 {
        fill: #c3c18d;
      }
    </style>
  </defs>
  <g id="Grupo_272" data-name="Grupo 272" transform="translate(0)">
    <rect id="Rect치ngulo_144" data-name="Rect치ngulo 144" class="cls-1" width="312.57" height="138.922" rx="10"/>
  </g>
  <g id="Grupo_279" data-name="Grupo 279" transform="translate(97.569 37.797)">
    <g id="Grupo_275" data-name="Grupo 275">
      <g id="Grupo_274" data-name="Grupo 274">
        <g id="Grupo_273" data-name="Grupo 273">
          <path id="Trazado_213" data-name="Trazado 213" class="cls-2" d="M39.117,2775.547h5.937v15.589a14.369,14.369,0,0,1,4.016-2.158,14.677,14.677,0,0,1,10.463.389,14.565,14.565,0,0,1,4.646,3.208,15.6,15.6,0,0,1,3.148,4.766,14.9,14.9,0,0,1,0,11.572,15.224,15.224,0,0,1-3.148,4.735,14.768,14.768,0,0,1-4.646,3.178,14.681,14.681,0,0,1-10.463.389,14.338,14.338,0,0,1-4.016-2.159v2.339H39.117Zm14.689,36.511a8.311,8.311,0,0,0,3.417-.719,8.864,8.864,0,0,0,2.787-1.918,9.087,9.087,0,0,0,1.859-2.818,8.8,8.8,0,0,0,.689-3.478,9.133,9.133,0,0,0-2.548-6.354,8.876,8.876,0,0,0-2.787-1.918,8.478,8.478,0,0,0-6.835,0,8.876,8.876,0,0,0-2.787,1.918,9.133,9.133,0,0,0-2.548,6.354,8.766,8.766,0,0,0,.689,3.478,9.087,9.087,0,0,0,1.859,2.818,8.864,8.864,0,0,0,2.787,1.918A8.317,8.317,0,0,0,53.806,2812.059Z" transform="translate(-39.117 -2775.488)"/>
          <path id="Trazado_214" data-name="Trazado 214" class="cls-2" d="M68.5,2818a10.541,10.541,0,0,1-4.226-.87,10.9,10.9,0,0,1-5.815-5.815,10.66,10.66,0,0,1-.87-4.287v-31.476H63.52v31.476a4.908,4.908,0,0,0,1.439,3.567,4.751,4.751,0,0,0,3.537,1.468Z" transform="translate(-24.611 -2775.488)"/>
          <path id="Trazado_215" data-name="Trazado 215" class="cls-2" d="M69.549,2783.986a3.89,3.89,0,0,1-3.839-3.837,3.756,3.756,0,0,1,1.139-2.757,3.691,3.691,0,0,1,2.7-1.14,3.89,3.89,0,0,1,3.9,3.9,3.689,3.689,0,0,1-1.139,2.7A3.749,3.749,0,0,1,69.549,2783.986Zm-2.939,4.2h5.935v28.657H66.61Z" transform="translate(-18.229 -2774.933)"/>
          <path id="Trazado_216" data-name="Trazado 216" class="cls-2" d="M87.7,2812.4a16.078,16.078,0,0,1-11.061-4.348,14.771,14.771,0,0,1-3.357-4.735,14.24,14.24,0,0,1,0-11.572,14.8,14.8,0,0,1,3.357-4.737,16.085,16.085,0,0,1,4.976-3.177,15.86,15.86,0,0,1,6.085-1.169,16.691,16.691,0,0,1,5.248.839,15.49,15.49,0,0,1,4.646,2.458L93.94,2790.7a10.027,10.027,0,0,0-2.909-1.559,10.537,10.537,0,0,0-7.074.15,9.581,9.581,0,0,0-3.087,1.919,9.455,9.455,0,0,0-2.1,2.848,8.154,8.154,0,0,0,0,6.954,9.123,9.123,0,0,0,2.1,2.818,10.28,10.28,0,0,0,3.087,1.918,9.839,9.839,0,0,0,3.746.719,10.263,10.263,0,0,0,3.328-.539,9.969,9.969,0,0,0,2.909-1.559l3.657,4.737a16.864,16.864,0,0,1-4.646,2.428A16.165,16.165,0,0,1,87.7,2812.4Z" transform="translate(-13.243 -2769.896)"/>
          <path id="Trazado_217" data-name="Trazado 217" class="cls-2" d="M88.375,2775.514h5.937v26.02a18.139,18.139,0,0,0,5.844-5.546,40.129,40.129,0,0,0,3.687-7.224h6.237l-.661,1.978a32.122,32.122,0,0,1-6.894,11.75l10.85,14.929H106l-8.094-11.152q-.841.541-1.739,1.02c-.6.322-1.219.62-1.857.9v9.233H88.375Z" transform="translate(-0.426 -2775.514)"/>
        </g>
      </g>
    </g>
    <g id="Grupo_278" data-name="Grupo 278" transform="translate(77.167 44.901)">
      <rect id="Rect치ngulo_145" data-name="Rect치ngulo 145" class="cls-2" width="40.264" height="18.427" rx="5.16"/>
      <g id="Grupo_277" data-name="Grupo 277" transform="translate(6.211 6.062)">
        <g id="Grupo_276" data-name="Grupo 276">
          <path id="Trazado_218" data-name="Trazado 218" class="cls-1" d="M90.357,2804.209a.153.153,0,0,1,.041-.111.144.144,0,0,1,.1-.041h1.832a.157.157,0,0,1,.107.041.142.142,0,0,1,.045.111v7.267a.148.148,0,0,1-.045.107.152.152,0,0,1-.107.045H90.439a.141.141,0,0,1-.129-.077l-2.369-4.192v4.117a.144.144,0,0,1-.045.11.156.156,0,0,1-.105.042H85.967a.153.153,0,0,1-.111-.042.155.155,0,0,1-.041-.11v-7.267a.142.142,0,0,1,.152-.152h1.893a.131.131,0,0,1,.121.068l2.376,3.823Z" transform="translate(-85.815 -2804.057)"/>
          <path id="Trazado_219" data-name="Trazado 219" class="cls-1" d="M90.359,2811.628a.145.145,0,0,1-.152-.152v-7.267a.147.147,0,0,1,.043-.111.149.149,0,0,1,.109-.041H94.8a.153.153,0,0,1,.105.041.143.143,0,0,1,.046.111v1.505a.147.147,0,0,1-.046.107.143.143,0,0,1-.105.045H92.335v1.075h2.134a.143.143,0,0,1,.145.145v1.514a.141.141,0,0,1-.145.143H92.335v1.084H94.8a.152.152,0,0,1,.105.041.135.135,0,0,1,.046.1v1.507a.145.145,0,0,1-.046.11.152.152,0,0,1-.105.042Z" transform="translate(-82.365 -2804.057)"/>
          <path id="Trazado_220" data-name="Trazado 220" class="cls-1" d="M99.152,2804.057a.131.131,0,0,1,.145.115l.893,3.989.553-3.975a.153.153,0,0,1,.048-.091.151.151,0,0,1,.1-.037h1.823a.145.145,0,0,1,.114.05.124.124,0,0,1,.03.116l-1.007,7.276a.148.148,0,0,1-.05.091.134.134,0,0,1-.095.038h-2a.131.131,0,0,1-.1-.038,2.435,2.435,0,0,1-.412-.631,8.1,8.1,0,0,1-.389-.925c-.116-.325-.223-.641-.32-.949s-.168-.559-.218-.757l-.077-.3c-.02.075-.048.18-.082.314s-.109.376-.216.73-.216.678-.323.976a8.016,8.016,0,0,1-.382.9,2.683,2.683,0,0,1-.412.648.142.142,0,0,1-.105.038H94.686a.142.142,0,0,1-.1-.038.148.148,0,0,1-.05-.091l-1.007-7.276a.138.138,0,0,1,.037-.116.145.145,0,0,1,.114-.05H95.5a.142.142,0,0,1,.095.037.153.153,0,0,1,.048.091l.561,3.975.893-3.989a.132.132,0,0,1,.145-.115Z" transform="translate(-79.758 -2804.057)"/>
          <path id="Trazado_221" data-name="Trazado 221" class="cls-1" d="M103.953,2804.314l-.145,1.477a.146.146,0,0,1-.061.1.121.121,0,0,1-.112.027,6.787,6.787,0,0,0-1.386-.173,1.108,1.108,0,0,0-.443.065.571.571,0,0,0-.266.183.954.954,0,0,0-.109.2.46.46,0,0,0-.03.15.554.554,0,0,0,.03.168,1,1,0,0,0,.121.227.939.939,0,0,0,.307.264,1.889,1.889,0,0,0,.525.205,2.368,2.368,0,0,1,.678.28,2.824,2.824,0,0,1,.609.494,2.2,2.2,0,0,1,.446.739,2.675,2.675,0,0,1,.166.953,1.953,1.953,0,0,1-.68,1.639,3.6,3.6,0,0,1-2.2.533,13.23,13.23,0,0,1-1.605-.091.141.141,0,0,1-.091-.053.159.159,0,0,1-.038-.105l.145-1.477a.137.137,0,0,1,.061-.105.139.139,0,0,1,.12-.023,6.664,6.664,0,0,0,1.334.166,1.143,1.143,0,0,0,.45-.064.548.548,0,0,0,.261-.18.933.933,0,0,0,.107-.2.487.487,0,0,0,.03-.156.549.549,0,0,0-.03-.166,1.212,1.212,0,0,0-.118-.227.9.9,0,0,0-.3-.264,1.889,1.889,0,0,0-.525-.205,2.334,2.334,0,0,1-.682-.281,2.854,2.854,0,0,1-.605-.491,2.19,2.19,0,0,1-.45-.739,2.626,2.626,0,0,1-.171-.957,1.868,1.868,0,0,1,.768-1.616,3.549,3.549,0,0,1,2.118-.557,15.667,15.667,0,0,1,1.65.1.147.147,0,0,1,.091.053A.161.161,0,0,1,103.953,2804.314Z" transform="translate(-75.231 -2804.057)"/>
        </g>
      </g>
    </g>
  </g>
</svg>
