<?xml version="1.0" encoding="utf-8"?>
<!-- Generator: Adobe Illustrator 25.3.1, SVG Export Plug-In . SVG Version: 6.00 Build 0)  -->
<svg version="1.2" baseProfile="tiny" id="Capa_1" xmlns="http://www.w3.org/2000/svg" xmlns:xlink="http://www.w3.org/1999/xlink"
	 x="0px" y="0px" viewBox="0 0 312.6 138.9" overflow="visible" xml:space="preserve">
<g>
	<circle fill="none" cx="83.7" cy="69.7" r="30.7"/>
	<g>
		<path d="M88.3,65c1.9-0.9,3.8-1.7,5.7-2.6c0.2-0.1,0.6-0.4,0.6-0.6c0-1.4,0-2.8,0-4.3c-1.6,0.1-3.2,0.3-4.8,0.4
			c-0.5,0-1-0.1-1.5-0.4c-1-0.7-2-1.4-3-2.1c-2.2-1.6-2.2-1.6-4.4-0.4c-0.4,0.2-0.7,0.6-0.6,1.1c0,2.6,0,5.1,0,7.7
			c0,0.7-0.3,1.4-0.9,1.7c-1.5,1-2.9,2.1-4.4,3.2c-0.2,0.2-0.4,0.4-0.5,0.7c-0.3,1.1-0.6,2.1-0.9,3.2c0.2,0.1,0.3,0.2,0.4,0.3
			c0.5,0.3,1.1,0.6,1.6,0.8c0.1,0,0.2,0.1,0.2,0.1c0.7,0.4,0.9,1.2,0.6,1.8c-0.2,0.7-0.4,1.5-0.7,2.1c-1.2,2.7-1.4,5.8-3.2,8.2
			l1.7,2.5c0.4-0.5,0.6-1.3,1.1-1.6c0.6-0.3,1-0.9,1.2-1.6c0.1-0.2,0.4-0.4,0.6-0.5h0c0.6-0.3,1.1-0.5,1.7-0.7
			c0.6-0.2,0.7-0.5,0.5-1c-0.5-2.2-1-4.4-1.6-6.6c-0.3-0.7,0.1-1.5,0.8-1.8c1.3-0.6,2.5-1.3,3.7-2c1.2-0.6,2.4-1.2,3.6-1.8
			c0.5-1.6,1-3.3,1.5-5C87.6,65.5,88,65.2,88.3,65z"/>
		<path d="M72,89.2c-0.1-0.3-0.3-0.6-0.5-0.8c-0.3-0.3-0.6-0.6-0.9-1l-0.3,0.2c0.1,0.3,0.2,0.7,0.4,1c1,1,1.2,2.6,0.5,3.8
			c-0.1,0.3-0.2,0.6-0.3,0.9c0.4-0.2,0.7-0.2,0.9-0.4l0,0C72.8,91.6,72.9,90.7,72,89.2z"/>
		<path d="M53.5,70.2c1.6,0.6,3.2,1.1,4.8,1.7c0.8-1.5,1.6-3,2.3-4.4c0.6-1.1,1.1-1.2,2.2-0.6c2.7,1.4,5.4,2.8,8.1,4.2
			c0.2,0.1,0.4,0.2,0.7,0.3c0.3-1.1,0.5-2.1,0.8-3.1c0.1-0.4,0.4-0.8,0.7-1.1c1.4-1.1,2.8-2.1,4.3-3.1c0.4-0.3,0.7-0.8,0.6-1.3
			c0-2.5,0-5.1,0-7.6c-0.1-0.8,0.4-1.6,1.2-1.9c1.1-0.5,2.1-1,3.1-1.6c0.5-0.3,1.3-0.3,1.7,0.1c1.7,1.2,3.4,2.4,5.1,3.5
			c0.3,0.2,0.7,0.3,1.1,0.3c2.5-0.2,5.1-0.4,7.6-0.6c0.7-0.2,1.5,0.3,1.7,1c0.8,1.7,1.7,3.5,2.5,5.2c0,0.1,0.1,0.3,0.2,0.4
			c0.5,0.6,1.3,0.7,1.9,0.2c1.9-1.4,3.8-2.8,5.8-4.2c0.4-0.3,0.7-0.8,0.6-1.3c0-0.4,0-0.8,0-1.2c-5.2-9.6-15.3-16.1-27-16.1
			C66.7,39,53,52.7,53,69.7c0,0,0,0,0,0C53.1,69.9,53.3,70.1,53.5,70.2z"/>
		<path d="M78.5,92.4c-0.5-1.4-1-2.7-1.4-4c-1,0.9-1.6,2.3-1.3,2.9l0,0C76.4,92.6,76.5,92.7,78.5,92.4z"/>
		<path d="M103.8,71.9c-0.1,0.2-0.1,0.6,0,0.7c1.7,1.7,3,3.8,5.5,4.8c1.8,0.7,2.9,0.5,4.1-0.8c0.1-0.1,0.2-0.2,0.3-0.3
			c0.5-2.2,0.7-4.4,0.7-6.7c0-1.2-0.1-2.3-0.2-3.5c-0.6-0.1-1.2-0.1-1.8-0.1c-0.1,0-0.2,0.1-0.3,0.2c-0.5,0.9-1.3,0.7-2,0.4
			c-0.5-0.2-1-0.3-1.5-0.5c-1.4-0.5-2.9-0.9-4.5-1.5c0.5,1.1,1,2,1.3,2.9c0.2,0.5,0.2,1,0,1.4C104.9,70,104.3,70.9,103.8,71.9z"/>
		<path d="M113.8,63.8c-0.2-0.9-0.4-1.8-0.6-2.6l-1.3,2.5C112.5,63.7,113.2,63.8,113.8,63.8z"/>
		<path d="M111.7,80.9c0.1,0.3,0.1,0.7,0.2,1c0.2-0.5,0.5-1.1,0.7-1.6L111.7,80.9z"/>
		<path d="M109.1,64c0.8-1.5,1.5-2.9,2.3-4.3l-0.1-0.1l-4.8,3.5L109.1,64z"/>
		<path d="M85.8,73.5c-1.8,0.9-3.6,1.8-5.3,2.8c-0.2,0.1-0.2,0.3-0.2,0.5c0.3,1.3,0.6,2.5,0.8,3.6c0.5-0.5,1.1-1.1,1.7-1.6
			c0.9-0.8,1.9-1.4,2.8-2.2c0.3-0.2,0.4-0.5,0.5-0.8h0c0-0.7,0.1-1.5,0-2.2C85.9,73.5,85.8,73.5,85.8,73.5z"/>
		<path d="M70.2,95.5L69,95.3c0.5-1-0.4-1.1-1-1.5c0.3-0.9,0.7-1.7,0.9-2.6c0.1-0.3,0.1-0.6,0-0.8c-0.6-1.2-1.3-2.4-2.8-2.7
			c-0.5-0.1-1-0.3-1.4-0.5c-1.4-0.6-2.7-1.2-4.1-1.8c-0.2,1,0.1,2.1,0.8,2.9c1.1,1.2,1.7,2.7,2,4.3c1.8,1.6,3.9,3,6,4.2
			C69.7,96.4,70,96,70.2,95.5z"/>
		<path d="M84.8,97.2c-0.1-0.4-0.3-0.8-0.7-1c-1.1-0.3-2.3-0.5-3.5-0.8c-0.2,0-0.6,0-0.7-0.1c-0.7-0.8-1.7-0.5-2.5-0.5
			c-1.3,0-2.7,0.2-3.2-1.8c-0.9,1.7-1.8,3.3-2.7,4.8c3.7,1.6,7.8,2.5,12.2,2.5c0.6,0,1.1,0,1.7,0C85.2,99.3,85,98.2,84.8,97.2z"/>
		<path d="M99.4,71.1c0.5,0,0.7-0.2,0.8-0.7c0.4-1.6,0.8-3.1,1.2-4.7c0.1-0.3,0-0.7-0.1-1c-1.1-2.3-2.2-4.6-3.3-6.9
			c-0.3-0.5-0.6-0.6-1.1-0.3c0,1.7,0,3.4,0,5h0c0.1,0.7-0.4,1.4-1,1.6c-1.9,0.8-3.8,1.7-5.7,2.5c-0.3,0.1-0.7,0.3-0.8,0.6
			c-0.4,1.2-0.8,2.5-1.2,3.8c0.2,0,0.4,0.1,0.5,0.1C92.3,71.1,95.9,71.1,99.4,71.1z"/>
		<path d="M110,84.9c0-1.6-0.5-3.1-1.4-4.5c-0.4-0.8-1.1-1.4-1.9-1.6c-0.4-0.2-0.8-0.5-1.1-0.8c-1.3-1.3-2.5-2.7-3.8-4.1
			c-0.2-0.2-0.6-0.4-0.9-0.4c-3.8,0-7.6,0-11.4,0c-0.3,0-0.7,0-1.1,0.1c0,1.1,0.1,2.1,0,3.1c-0.1,0.5-0.3,0.9-0.6,1.3
			c-0.7,0.7-1.5,1.3-2.4,1.8c-1.4,0.8-2.3,2.2-2.4,3.8c-0.2,1.4-1,2.5-2.3,3.1c-0.5,0.2-1,0.5-1.5,0.8c0.6,1.7,1.1,3.4,1.8,5
			c0.2,0.3,0.5,0.6,0.8,0.7c1.3,0.5,2.7,1,4.1,1.4c0.6,0.1,1.1,0.7,1.1,1.3c0.2,1.5,0.5,2.9,0.8,4.4c9.5-1.2,17.6-6.8,22.4-14.7
			C110,85.3,110,85.1,110,84.9z"/>
		<path d="M68,72.4l0-0.2c-1.9-1-3.7-2-5.7-3l0,0c-0.6,1.1-1.2,2.2-1.8,3.5c0.3,0,0.6,0.1,0.9,0.1c0.8-0.1,1.7-0.3,2.5-0.3
			C65.3,72.3,66.6,72.4,68,72.4z"/>
		<path d="M58.6,87.3c-0.3-1.1-0.3-2.2-0.2-3.4c0-0.6-0.2-1.1-0.6-1.5c-1-1.3-2.3-2.3-3-3.7c-0.4-0.7-0.7-1.4-1-2.1
			C54.7,80.5,56.3,84.1,58.6,87.3z"/>
		<path d="M60,76c-0.5,0.2-0.6,0.5-0.5,1c0.3,1.2,0.6,2.5,0.9,3.8c0.4,1.5,1.5,2.8,3,3.5c1,0.5,2.1,0.7,3.1,1.3l0,0
			c1.5,0.9,2.5,0.5,3.5-0.7c0.5-0.6,1.2-1,1.4-1.7c0.8-2.2,1.5-4.4,2.2-6.6c0.4-1.2,0.2-1.6-1-1.9c-0.2,0-0.4,0-0.5,0h-4.4
			c-2.6,0.1-5.3-0.5-7.5,1.3C60.2,76,60.1,76,60,76z"/>
		<path d="M54.6,73c0.6,1.1,1,2,1.5,3.1c0.4-0.8,0.8-1.4,1.2-2.2C56.4,73.6,55.6,73.4,54.6,73z"/>
	</g>
	<g id="Grupo_371" transform="translate(73.858 14.763)">
		<g id="Grupo_369">
			<path id="Trazado_529" d="M78.6,61.5h-6.2c-0.2-0.6-0.4-1.3-0.5-1.9c-1.5,1.7-3.4,2.5-7.3,2.5c-7.4,0-11.5-4.7-11.5-11.2
				C53,44.9,56.5,39,66.4,39c6.6,0,11.3,2.8,12.2,7.4H69c-0.2-1.3-1.3-2.2-2.6-2c-2.7,0-3.3,3-3.3,6c0,3.4,0.9,6.2,3.5,6.2
				c2.4,0,2.8-1.6,2.8-2.3V54h-3.1v-5.5h12.2L78.6,61.5z"/>
			<path id="Trazado_530" d="M91.8,53.7v7.8h-9.3V39.6h15.1c5.9,0,8.8,2.8,8.8,6.2c0.1,2.4-1.5,4.7-3.8,5.4c1.9,0.8,3.2,2.3,3.2,5.6
				v1.3c0,1.2,0.1,2.3,0.3,3.4h-9.2c-0.4-1.4-0.5-2.9-0.5-4.4v-0.8c0-2.1-0.5-2.6-2.7-2.6L91.8,53.7z M91.8,48.7h2.7
				c1.1,0,2.3-0.4,2.3-1.8c0-1.2-0.9-1.8-2.4-1.8h-2.7V48.7z"/>
			<path id="Trazado_531" d="M117.7,58.4l-0.8,3.1h-9.3l7.5-21.9h12.6l8.2,21.9h-10.2l-0.8-3.1H117.7z M123.1,52.5
				c-0.6-2.4-1.2-4.9-1.8-6.9h-0.2c-0.4,2.1-1.2,4.9-1.7,6.9H123.1z"/>
			<path id="Trazado_532" d="M141.1,61.5L133,39.6h10.2l2.5,9.3c0.8,3.1,1.1,4.5,1.5,6.3h0.1c0.3-1.6,0.6-3.1,1.4-6.2l2.2-9.4h10.3
				L153,61.5H141.1z"/>
			<path id="Trazado_533" d="M168.5,58.4l-0.8,3.1h-9.3l7.5-21.9h12.6l8.2,21.9h-10.2l-0.8-3.1H168.5z M173.9,52.5
				c-0.6-2.4-1.2-4.9-1.8-6.9h-0.2c-0.4,2.1-1.2,4.9-1.7,6.9H173.9z"/>
		</g>
		<g id="Grupo_370" transform="translate(1.812 29.403)">
			<path id="Trazado_534" d="M59.2,43.2c0-1.2,0-2.4,0-3.1h0c-0.3,1.2-1.1,3.4-2,5.8h-1.2c-0.6-2.1-1.5-4.6-1.9-5.8h0
				c0.1,0.8,0.1,2.1,0.1,3.2v2.5H53v-6.7h2c0.8,2.1,1.5,4.2,1.7,5h0c0.3-1,1.1-3,1.8-5h2v6.7h-1.4L59.2,43.2z"/>
			<path id="Trazado_535" d="M69.1,42.5c0.1,1.9-1.4,3.4-3.2,3.5c-0.1,0-0.2,0-0.4,0c-1.8,0.1-3.4-1.3-3.5-3.1c0-0.1,0-0.2,0-0.4
				c0-1.9,1.5-3.4,3.4-3.5c0.1,0,0.1,0,0.2,0c1.9-0.1,3.4,1.3,3.5,3.2C69.1,42.3,69.1,42.4,69.1,42.5z M63.4,42.4
				c-0.1,1.2,0.7,2.2,1.9,2.4c0.1,0,0.2,0,0.3,0c1.3,0.1,2.5-0.8,2.6-2.1c0.1-1.3-0.8-2.5-2.1-2.6c-1.3-0.1-2.5,0.8-2.6,2.1
				C63.4,42.3,63.4,42.4,63.4,42.4z"/>
			<path id="Trazado_536" d="M72.3,45.8l-2.8-6.7h1.5l1.3,3.3c0.5,1.2,0.7,1.9,0.8,2.3h0c0.1-0.4,0.3-0.8,0.8-2.3l1.3-3.3h1.5
				L74,45.8L72.3,45.8z"/>
			<path id="Trazado_537" d="M79.1,39.1v6.7h-1.4v-6.7H79.1z"/>
			<path id="Trazado_538" d="M87.1,43.2c0-1.2,0-2.4,0-3.1h0c-0.3,1.2-1.1,3.4-2,5.8H84c-0.6-2.1-1.5-4.6-1.9-5.8h0
				c0.1,0.8,0.1,2.1,0.1,3.2v2.5h-1.3v-6.7h2c0.7,2.1,1.5,4.2,1.7,5h0c0.3-1,1.1-3,1.8-5h2v6.7h-1.4V43.2z"/>
			<path id="Trazado_539" d="M91.7,39.1v6.7h-1.4v-6.7H91.7z"/>
			<path id="Trazado_540" d="M98.7,42.9h-3.8v1.8h4.2l-0.2,1.1h-5.5v-6.7h5.4v1.1h-4v1.5h3.8L98.7,42.9z"/>
			<path id="Trazado_541" d="M100.4,45.8v-6.7h1.7c1.8,2.6,2.9,4.2,3.4,5h0c-0.1-0.8-0.1-1.9-0.1-3v-1.9h1.3v6.7h-1.6
				c-0.7-1.1-3-4.5-3.5-5.3h0c0.1,0.8,0.1,1.8,0.1,3v2.3L100.4,45.8z"/>
			<path id="Trazado_542" d="M110.1,40.3h-2.4v-1.1h6.2v1.1h-2.4v5.5h-1.4L110.1,40.3z"/>
			<path id="Trazado_543" d="M121.5,42.5c0.1,1.9-1.4,3.4-3.2,3.5c-0.1,0-0.2,0-0.4,0c-1.8,0.1-3.4-1.3-3.5-3.1c0-0.1,0-0.2,0-0.4
				c0-1.9,1.5-3.4,3.4-3.5c0.1,0,0.1,0,0.2,0c1.9-0.1,3.4,1.3,3.5,3.2C121.5,42.3,121.5,42.4,121.5,42.5z M115.9,42.4
				c-0.1,1.2,0.7,2.2,1.9,2.4c0.1,0,0.2,0,0.3,0c1.3,0.1,2.5-0.8,2.6-2.1c0.1-1.3-0.8-2.5-2.1-2.6c-1.3-0.1-2.5,0.8-2.6,2.1
				C115.9,42.3,115.9,42.4,115.9,42.4z"/>
			<path id="Trazado_544" d="M123.8,43.8c0.2,0.6,0.7,1.1,1.9,1.1c1.1,0,1.5-0.4,1.5-0.9c0-0.5-0.3-0.8-1.8-1.1
				c-2.2-0.4-2.7-1.1-2.7-2c0-1.3,1.2-2,2.8-2c2.2,0,2.8,1.2,2.9,1.9h-1.4c-0.1-0.4-0.3-0.9-1.5-0.9c-0.8,0-1.3,0.3-1.3,0.8
				c0,0.4,0.3,0.7,1.6,0.9c2.5,0.4,2.9,1.2,2.9,2.2c0,1.1-0.9,2.1-3.1,2.1c-2,0-3-0.9-3.2-2.1L123.8,43.8z"/>
			<path id="Trazado_545" d="M132.7,39.1h2.9c1.7-0.2,3.3,1.1,3.4,2.9c0,0.1,0,0.2,0,0.4c0.1,1.8-1.4,3.4-3.2,3.4
				c-0.1,0-0.2,0-0.3,0h-2.9L132.7,39.1z M134.1,44.7h1.3c1.1,0.1,2.1-0.7,2.2-1.8c0-0.2,0-0.3,0-0.5c0.1-1.1-0.7-2.1-1.8-2.2
				c-0.1,0-0.3,0-0.4,0h-1.3V44.7z"/>
			<path id="Trazado_546" d="M145.6,42.9h-3.8v1.8h4.2l-0.2,1.1h-5.5v-6.7h5.4v1.1h-4v1.5h3.8L145.6,42.9z"/>
			<path id="Trazado_547" d="M150.8,43.8c0.2,0.6,0.7,1.1,1.9,1.1c1.1,0,1.5-0.4,1.5-0.9c0-0.5-0.3-0.8-1.8-1.1
				c-2.2-0.4-2.7-1.1-2.7-2c0-1.3,1.2-2,2.8-2c2.2,0,2.8,1.2,2.9,1.9h-1.4c-0.1-0.4-0.3-0.9-1.5-0.9c-0.8,0-1.3,0.3-1.3,0.8
				c0,0.4,0.3,0.7,1.6,0.9c2.5,0.4,2.9,1.2,2.9,2.2c0,1.1-0.9,2.1-3.1,2.1c-2,0-3-0.9-3.2-2.1L150.8,43.8z"/>
			<path id="Trazado_548" d="M158.2,39.1v3.8c0,1.5,0.8,1.9,1.7,1.9c1,0,1.6-0.4,1.6-1.9v-3.8h1.4v3.8c0,2.1-1.1,3-3.1,3
				c-1.9,0-3.1-0.9-3.1-3v-3.9L158.2,39.1z"/>
			<path id="Trazado_549" d="M169.9,42.9h-3.8v1.8h4.2l-0.2,1.1h-5.5v-6.7h5.4v1.1h-4v1.5h3.8V42.9z"/>
			<path id="Trazado_550" d="M171.6,39.1h1.4v5.5h3.8l-0.2,1.1h-5L171.6,39.1z"/>
			<path id="Trazado_551" d="M184.4,42.5c0.1,1.9-1.4,3.4-3.2,3.5c-0.1,0-0.2,0-0.4,0c-1.8,0.1-3.4-1.3-3.5-3.1c0-0.1,0-0.2,0-0.4
				c0-1.9,1.5-3.4,3.4-3.5c0.1,0,0.1,0,0.2,0c1.9-0.1,3.4,1.3,3.5,3.2C184.4,42.3,184.4,42.4,184.4,42.5z M178.8,42.4
				c-0.1,1.2,0.7,2.2,1.9,2.4c0.1,0,0.2,0,0.3,0c1.3,0.1,2.5-0.8,2.6-2.1c0.1-1.3-0.8-2.5-2.1-2.6c-1.3-0.1-2.5,0.8-2.6,2.1
				C178.8,42.3,178.8,42.4,178.8,42.4z"/>
		</g>
	</g>
</g>
</svg>
