<svg id="Grupo_283" data-name="Grupo 283" xmlns="http://www.w3.org/2000/svg" width="312.57" height="138.922" viewBox="0 0 312.57 138.922">
  <defs>
    <style>
      .cls-1 {
        fill: #fff;
      }

      .cls-2 {
        fill: #c3c18d;
      }
    </style>
  </defs>
  <g id="Grupo_281" data-name="Grupo 281">
    <rect id="Rectángulo_146" data-name="Rectángulo 146" class="cls-1" width="312.57" height="138.922" rx="10"/>
  </g>
  <g id="Grupo_282" data-name="Grupo 282" transform="translate(28.022 45.297)">
    <path id="Trazado_222" data-name="Trazado 222" class="cls-2" d="M-138.608,2789.627H-190.5a1.871,1.871,0,0,1-1.939-1.836v-6.242a1.974,1.974,0,0,1,1.939-1.835h51.888a1.869,1.869,0,0,1,1.939,1.835v6.242A1.87,1.87,0,0,1-138.608,2789.627Z" transform="translate(193.674 -2779.714)"/>
    <path id="Trazado_223" data-name="Trazado 223" class="cls-2" d="M-136.124,2802.621v15.805a2.462,2.462,0,0,1-.789,1.764l-.079.077-.157.154a3.307,3.307,0,0,1-1.737.535h-.316a2.44,2.44,0,0,1-.789-.151l-.475-.23-.079-.077-24.081-10.818-24.083,10.9a2.782,2.782,0,0,1-1.421.382h-.395a2.591,2.591,0,0,1-2.605-2.53v-15.805l28.5-13.884Z" transform="translate(193.129 -2772.627)"/>
    <path id="Trazado_224" data-name="Trazado 224" class="cls-2" d="M-148.663,2802.578v15.841a2.47,2.47,0,0,1-.789,1.769l-.079.077c-.079,0-.079.077-.157.153a3.31,3.31,0,0,1-1.737.537h-.316a2.387,2.387,0,0,1-.789-.153l-.475-.23h-.079l-24-10.92h-.079v-20.915h.079Z" transform="translate(205.668 -2772.627)"/>
    <path id="Trazado_225" data-name="Trazado 225" class="cls-2" d="M-132.472,2795.849h-6.346v10.436c0,2.186,1.221,2.912,3.173,2.912a3.645,3.645,0,0,0,1.709-.242v3.157a6.1,6.1,0,0,1-2.2.242c-3.66,0-6.346-1.943-6.346-5.826v-10.921h-4.148v-2.912h3.9v-3.884l3.9-1.943v5.826h7.078Z" transform="translate(229.656 -2774.095)"/>
    <path id="Trazado_226" data-name="Trazado 226" class="cls-2" d="M-126.05,2794.119c-.245,0-.977-.243-1.464-.243-2.684,0-5.369,1.214-5.369,5.826v9.95h-3.9v-19.417h4.148v3.884c.732-2.912,2.928-4.124,5.612-4.124.489,0,1.464.24,1.953.24Z" transform="translate(237.386 -2771.639)"/>
    <path id="Trazado_227" data-name="Trazado 227" class="cls-2" d="M-114.92,2809.547v-2.428c-.977,1.7-2.684,2.914-6.1,2.914-4.392,0-7.565-2.671-7.565-7.038V2790.13h3.9v12.622c0,1.941,1.219,4.126,4.637,4.126,3.173,0,4.635-2.186,4.635-4.126V2790.13h3.9v19.417Z" transform="translate(243.827 -2771.533)"/>
    <path id="Trazado_228" data-name="Trazado 228" class="cls-2" d="M-110.6,2809.9a8.811,8.811,0,0,1-5.369-1.455l-.732-3.883a9.763,9.763,0,0,0,6.1,2.184c1.707,0,2.928-.971,2.928-2.184,0-1.457-.977-2.185-2.685-2.671-3.9-1.455-6.1-3.155-6.1-6.31s2.684-5.581,6.587-5.581a11.17,11.17,0,0,1,5.124,1.212l-.73,3.4a8.63,8.63,0,0,0-4.394-1.213c-1.707,0-2.684.969-2.684,2.184s.977,1.7,2.684,2.427c3.9,1.457,6.1,3.157,6.1,6.555C-103.519,2807.47-105.96,2809.9-110.6,2809.9Z" transform="translate(253.166 -2771.639)"/>
    <path id="Trazado_229" data-name="Trazado 229" class="cls-2" d="M-94.313,2795.849h-6.346v10.436c0,2.186,1.221,2.912,3.173,2.912a3.645,3.645,0,0,0,1.709-.242v3.157a6.1,6.1,0,0,1-2.2.242c-3.658,0-6.344-1.943-6.344-5.826v-10.921h-3.9v-2.912h3.9v-3.884l3.9-1.943v5.826h7.078Z" transform="translate(259.821 -2774.095)"/>
    <path id="Trazado_230" data-name="Trazado 230" class="cls-2" d="M-78.986,2787.761a6.532,6.532,0,0,0-2.928-.728c-3.173,0-4.637,1.942-4.637,5.34v2.427h6.344l-.732,3.4h-5.612v16.263h-3.9v-16.506h-3.416v-2.912h3.416v-2.669c0-5.583,3.173-8.5,8.3-8.5a9.322,9.322,0,0,1,3.9.729Z" transform="translate(271.094 -2776.444)"/>
    <path id="Trazado_231" data-name="Trazado 231" class="cls-2" d="M-70.913,2809.547v-2.428c-.975,1.7-2.684,2.914-6.1,2.914-4.394,0-7.567-2.671-7.567-7.038V2790.13h3.9v12.622c0,1.941,1.221,4.126,4.637,4.126,3.173,0,4.635-2.186,4.635-4.126V2790.13h3.9v19.417Z" transform="translate(278.393 -2771.533)"/>
    <path id="Trazado_232" data-name="Trazado 232" class="cls-2" d="M-58.963,2809.762v-12.622c0-1.941-1.221-4.126-4.639-4.126-3.171,0-4.635,2.186-4.635,4.126v12.622h-3.9v-19.417h3.416v2.426c.977-1.7,2.685-2.912,6.1-2.912,4.392,0,7.565,2.67,7.565,7.039v12.865Z" transform="translate(288.162 -2771.746)"/>
    <path id="Trazado_233" data-name="Trazado 233" class="cls-2" d="M-44.879,2814.46v-2.186a7.044,7.044,0,0,1-5.856,2.671c-4.392,0-9.517-3.4-9.517-10.195a9.783,9.783,0,0,1,10-10.194,9.3,9.3,0,0,1,5.369,1.7v-12.379h3.9v30.583Zm-.245-14.562a6.094,6.094,0,0,0-4.88-1.943c-3.417,0-6.346,2.67-6.346,6.8s2.928,6.8,6.346,6.8a6.252,6.252,0,0,0,4.88-2.427Z" transform="translate(297.502 -2776.444)"/>
  </g>
</svg>
