<svg id="Grupo_245" data-name="Grupo 245" xmlns="http://www.w3.org/2000/svg" width="312.57" height="138.922" viewBox="0 0 312.57 138.922">
  <defs>
    <style>
      .cls-1 {
        fill: #fff;
      }

      .cls-2, .cls-3 {
        fill: #c3c18d;
      }

      .cls-2 {
        fill-rule: evenodd;
      }
    </style>
  </defs>
  <g id="Grupo_243" data-name="Grupo 243">
    <rect id="Rectángulo_139" data-name="Rectángulo 139" class="cls-1" width="312.57" height="138.922" rx="10"/>
  </g>
  <g id="Grupo_244" data-name="Grupo 244" transform="translate(30.987 54.894)">
    <path id="Trazado_156" data-name="Trazado 156" class="cls-2" d="M215.642,2790.052a9.6,9.6,0,1,1-7.1,16.075l-6.471-6.47,6.471-6.471a9.581,9.581,0,0,1,7.1-3.134m.03,4.535a5.062,5.062,0,1,1-5.062,5.062,5.061,5.061,0,0,1,5.062-5.062m.029-9.5a14.568,14.568,0,1,1-10.765,24.383l-9.815-9.815,9.815-9.815a14.526,14.526,0,0,1,10.765-4.753" transform="translate(-195.121 -2785.089)"/>
    <path id="Trazado_157" data-name="Trazado 157" class="cls-2" d="M220.734,2799.657H210.61v-.007a5.062,5.062,0,0,1,10.124,0Zm-5.033-14.568a14.568,14.568,0,0,1,14.568,14.568h-5.023a9.6,9.6,0,0,0-16.7-6.471l-6.471,6.471h-6.953l9.815-9.815a14.526,14.526,0,0,1,10.765-4.753" transform="translate(-195.121 -2785.089)"/>
    <path id="Trazado_158" data-name="Trazado 158" class="cls-3" d="M272.269,2806.646v-18.43h13.309v2.162H274.715v5.661h10.167v2.163H274.715v6.281h11.3v2.163Zm-9.249,0v-16.268h-6.074v-2.162H271.54v2.162h-6.074v16.268Zm-20.649-5.921,2.291-.205a5.108,5.108,0,0,0,.759,2.282,4.171,4.171,0,0,0,1.853,1.441,7,7,0,0,0,2.828.55,6.726,6.726,0,0,0,2.462-.416,3.4,3.4,0,0,0,1.587-1.146,2.653,2.653,0,0,0,.523-1.578,2.389,2.389,0,0,0-.5-1.51,3.762,3.762,0,0,0-1.661-1.086c-.493-.187-1.587-.489-3.282-.9a16.839,16.839,0,0,1-3.557-1.15,5.017,5.017,0,0,1-1.96-1.72,4.209,4.209,0,0,1-.648-2.3,4.691,4.691,0,0,1,.795-2.613,4.894,4.894,0,0,1,2.312-1.844,8.748,8.748,0,0,1,3.38-.63,9.215,9.215,0,0,1,3.612.661,5.189,5.189,0,0,1,2.407,1.943,5.591,5.591,0,0,1,.905,2.9l-2.341.181a3.762,3.762,0,0,0-1.275-2.635,4.98,4.98,0,0,0-3.214-.891,5.157,5.157,0,0,0-3.226.811,2.437,2.437,0,0,0-1.012,1.955,2.111,2.111,0,0,0,.716,1.636,9.8,9.8,0,0,0,3.678,1.312,24.346,24.346,0,0,1,4.08,1.175,5.567,5.567,0,0,1,2.371,1.875,4.559,4.559,0,0,1,.764,2.614,4.988,4.988,0,0,1-.841,2.768,5.529,5.529,0,0,1-2.416,2.019,8.423,8.423,0,0,1-3.548.721,10.612,10.612,0,0,1-4.182-.729,5.852,5.852,0,0,1-2.648-2.192,6.208,6.208,0,0,1-1.012-3.309m-13.593,5.921v-18.43h13.307v2.162H231.222v5.661h10.168v2.163H231.222v6.281h11.3v2.163Z" transform="translate(-168.684 -2782.876)"/>
    <path id="Trazado_159" data-name="Trazado 159" class="cls-3" d="M226.8,2787.96a9.647,9.647,0,1,0,9.645,9.646A9.659,9.659,0,0,0,226.8,2787.96Zm0,17.218a7.571,7.571,0,1,1,7.572-7.572A7.58,7.58,0,0,1,226.8,2805.178Z" transform="translate(-177.819 -2782.834)"/>
    <path id="Trazado_160" data-name="Trazado 160" class="cls-3" d="M378.551,2788.212h14.57v3.938h-9.106v2.933h8.442v3.755h-8.442v3.628h9.377v4.167H378.551Zm-17.408,12.329,5.169-.339a4.2,4.2,0,0,0,.684,2,2.84,2.84,0,0,0,2.405,1.115,2.585,2.585,0,0,0,1.793-.571,1.75,1.75,0,0,0,.63-1.325,1.727,1.727,0,0,0-.595-1.282,6.789,6.789,0,0,0-2.78-1.068,11.551,11.551,0,0,1-5.1-2.233,4.59,4.59,0,0,1-1.539-3.552,4.993,4.993,0,0,1,.787-2.675,5.263,5.263,0,0,1,2.368-1.985,10.667,10.667,0,0,1,4.332-.721,8.539,8.539,0,0,1,5.148,1.318,5.759,5.759,0,0,1,2.109,4.179l-5.119.318a2.975,2.975,0,0,0-.857-1.823,2.678,2.678,0,0,0-1.809-.57,2.141,2.141,0,0,0-1.432.419,1.315,1.315,0,0,0-.48,1.025,1.076,1.076,0,0,0,.389.789,4.4,4.4,0,0,0,1.818.677,21.776,21.776,0,0,1,5.106,1.63,5.456,5.456,0,0,1,2.248,2.041,5.385,5.385,0,0,1,.7,2.728,6.043,6.043,0,0,1-.936,3.265,5.919,5.919,0,0,1-2.621,2.269,10.189,10.189,0,0,1-4.237.771q-4.491,0-6.222-1.809a7.271,7.271,0,0,1-1.957-4.592m-18.449-12.329h5.081l6.608,10.172v-10.172h5.144v18.421h-5.144l-6.571-10.115v10.115h-5.119Zm-16.212,0h14.57v3.938h-9.106v2.933h8.442v3.755h-8.442v3.628h9.377v4.167H326.48Zm-17.316,0h16.564v4.555h-5.562v13.866h-5.44v-13.866h-5.562Zm-5.462,11.4-1.925-6.619-1.932,6.619Zm1.152,3.989h-6.169l-.886,3.035h-5.558l6.633-18.421h5.96l6.6,18.421h-5.7Zm-26.966-15.386h5.44v13.894h8.515v4.528H277.889Zm-10.188,7.873h1.341a3.346,3.346,0,0,0,2.227-.573,1.882,1.882,0,0,0,.641-1.468,2.078,2.078,0,0,0-.559-1.469,2.793,2.793,0,0,0-2.091-.605H267.7Zm-5.464-7.873h9.056a6.034,6.034,0,0,1,4.435,1.472,5.68,5.68,0,0,1,1.471,4.194,5.826,5.826,0,0,1-1.607,4.363,6.754,6.754,0,0,1-4.907,1.575H267.7v6.817h-5.464Z" transform="translate(-142.402 -2782.878)"/>
  </g>
</svg>
