<svg xmlns="http://www.w3.org/2000/svg" width="312.57" height="138.922" viewBox="0 0 312.57 138.922">
  <g id="Grupo_24" data-name="Grupo 24" transform="translate(-0.104 -0.043)">
    <rect id="Rectángulo_172" data-name="Rectángulo 172" width="312.57" height="138.922" rx="10" transform="translate(0.104 0.043)" fill="#fff"/>
    <g id="Grupo_377" data-name="Grupo 377" transform="translate(56.105 43.043)">
      <g id="Grupo_374" data-name="Grupo 374" transform="translate(65.233)">
        <path id="Trazado_557" data-name="Trazado 557" d="M460.311,3119.64l-2.435-.121v-4.35h18.437v6.976H471.44l-.15-2.148h-4.653v4.664h6.747v4.907h-6.733v4.895h5.056l.141-2.08H476.7v6.911H457.937v-4.135l2.375-.227Z" transform="translate(-424.503 -3115.151)" fill="#242523"/>
        <path id="Trazado_558" data-name="Trazado 558" d="M441.59,3119.587h-2.332v-4.428h18.276v6.969H452.68l-.159-2.112h-4.533v4.741h6.774v4.756H448v4.93h4.924l.166-2.007h4.885v6.89H439.185v-4.141l2.405-.246Z" transform="translate(-439.185 -3115.159)" fill="#242523"/>
        <path id="Trazado_559" data-name="Trazado 559" d="M481.258,3122.886v-3.334l-2.023-.2v-4.184h8.027v9.866c0,2.668.068,5.341-.027,8.007-.054,1.486.155,2.53,2.007,2.21v4.251c-2.623-.644-5.633,1.323-7.651-1.867a6.815,6.815,0,0,1-7.938,1.589c-2.955-1.236-4.266-3.735-4.628-6.763-.625-5.224,1.3-9.063,5.126-10.407A7.751,7.751,0,0,1,481.258,3122.886Zm-6.524,7.906c.038,2.5,1.455,4.173,3.5,4.128s3.459-1.832,3.385-4.26c-.071-2.458-1.569-4.239-3.519-4.188S474.7,3128.387,474.734,3130.792Z" transform="translate(-415.836 -3115.154)" fill="#21211e"/>
        <path id="Trazado_560" data-name="Trazado 560" d="M502.845,3137.047c-5.614.038-9.877-3.813-9.945-8.983-.07-5.327,4.1-9.3,9.8-9.331,5.676-.031,9.974,3.93,9.977,9.2C512.684,3133.088,508.453,3137.009,502.845,3137.047Zm-.05-13.439a4.147,4.147,0,0,0-3.98,4.319,3.971,3.971,0,1,0,7.933.036A4.148,4.148,0,0,0,502.795,3123.608Z" transform="translate(-396.994 -3112.352)" fill="#20201f"/>
        <path id="Trazado_561" data-name="Trazado 561" d="M512.56,3132.186l2.082.252v3.966H504.251v-3.99l2.239-.229c0-2.605.118-5.187-.091-7.742-.048-.569-1.246-1.044-2.185-1.771v-3.51a38.166,38.166,0,0,1,6.2.107c.85.141,1.5,1.468,2.3,2.32,1.207-1.395,2.76-3.155,5.551-2.677v5.383C513.123,3124.992,511.657,3127.018,512.56,3132.186Z" transform="translate(-388.107 -3112.276)" fill="#272725"/>
        <path id="Trazado_562" data-name="Trazado 562" d="M488.16,3125.373l-2.218-.221v-3.957l2.368-.366v-4.456h5.742v4.64h3.478v4.155l-3.442.175c0,2.08-.061,4.109.018,6.13.066,1.693.621,2.021,3.778,2.551v4.8a39.185,39.185,0,0,1-5.646-.868c-2.719-.828-4.007-2.941-4.067-5.751C488.122,3129.961,488.16,3127.721,488.16,3125.373Z" transform="translate(-402.458 -3114.206)" fill="#242523"/>
        <path id="Trazado_563" data-name="Trazado 563" d="M450.174,3115.163h8.176v3.037c0,4.708.032,9.418-.018,14.126-.016,1.575.055,2.917,2.212,2.523v4.4c-5.058,1.25-8.047-.954-8.108-6.024-.055-4.491-.013-8.983-.013-13.566l-2.25-.363Z" transform="translate(-430.553 -3115.156)" fill="#222220"/>
        <path id="Trazado_564" data-name="Trazado 564" d="M480.862,3136.26v-4.05l1.962-.127v-8.763l-2.071-.3v-3.975h8.069V3132l2.075.225v4.031Z" transform="translate(-406.534 -3112.109)" fill="#232322"/>
        <path id="Trazado_565" data-name="Trazado 565" d="M487.676,3115.176v4.426h-5.589v-4.426Z" transform="translate(-405.486 -3115.146)" fill="#272725"/>
      </g>
      <path id="Trazado_566" data-name="Trazado 566" d="M461.2,3151.226v4.13c-5.292,1.153-8.044-1.014-8.092-6.35-.039-4.29-.023-8.579-.043-12.869,0-.125-.112-.249-.207-.447l-2.048-.3v-4.117h8.219v13.541c0,1.127,0,2.252,0,3.377C459.042,3150.592,459.043,3150.592,461.2,3151.226Z" transform="translate(-364.818 -3102.502)" fill="#47a534"/>
      <path id="Trazado_567" data-name="Trazado 567" d="M474.974,3147.5c-.116-1.941-.025-3.9-.025-5.969h3.562v-.277l.084,0v-4.014l-.084-.008v-.5h-3.637v-4.272h-5.6v4.272h-2.516v4.808h2.221l.154.023c0,1.891,0,3.7,0,5.514,0,5.769,3.848,8.717,9.645,7.342v-4.36C476.993,3149.854,475.111,3149.8,474.974,3147.5Z" transform="translate(-352.293 -3101.574)" fill="#47a534"/>
      <path id="Trazado_568" data-name="Trazado 568" d="M503.153,3148.25c0-2.873.139-5.535-.034-8.176-.239-3.666-2.628-5.317-6.237-5.159-4.019.177-4.819,1.513-5.349,2.041-.8-1.795-2.7-2.312-5.235-1.994l-.154-.007-2.63.138v4.54H485.3l.377.073v8.543h-1.893v4.28h.027v.005h9.963v-4.087h-.036v-.2h-1.673V3142.7c.05-.193.1-.384.157-.573.427-1.461,2.334-1.8,3.653-1.839,1.58-.041,1.471,1.554,1.475,2.754.007,3.149,0,6.3,0,9.488h8.1v-4.28Z" transform="translate(-339.132 -3099.673)" fill="#47a534"/>
      <path id="Trazado_569" data-name="Trazado 569" d="M509.052,3143.373a17.361,17.361,0,0,0-3.962-1.435c-.782-.193-2.693-.252-2.693-1.4a.7.7,0,0,1,.021-.161l-.045-.025.064-.045c.2-.577,1.136-1.01,2.26-1.01a3.34,3.34,0,0,1,1.693.4c.5.3.571.68.73,1.211.077.259,3.817.109,3.817.1.412-3.144-.025-4.317-2.139-5.208a10.9,10.9,0,0,0-9.193.157,4.127,4.127,0,0,0-2.38,5.243,7.719,7.719,0,0,0,2.785,3.421,9.5,9.5,0,0,0,2.462,1.1c.7.234,1.4.486,2.1.739.511.184,1.289.42,1.289,1.1s-1.03,1.24-2.3,1.24c-.72,0-2.007-.191-2.255-1.023-.1-.324.025-.794-.3-1.009a1.488,1.488,0,0,0-.739-.116c-1.248-.07-2.5-.027-3.75-.027-.359,2.1-.25,3.821,1.557,5.048,2.864,1.948,8.352,2.027,11.286.116A4.772,4.772,0,0,0,509.052,3143.373Z" transform="translate(-329.046 -3099.682)" fill="#47a534"/>
      <g id="Grupo_376" data-name="Grupo 376" transform="translate(0 0.439)">
        <g id="Grupo_375" data-name="Grupo 375">
          <path id="Trazado_570" data-name="Trazado 570" d="M416.9,3156.488c14.346-2.5,25.357-16.975,19.058-34.117a19.285,19.285,0,0,1,7.731,11.929,19.5,19.5,0,0,1-1.623,12.773,4.088,4.088,0,0,0-.229,2.446c.561,2.545,1.286,5.053,2.034,7.9-2.518-.671-4.794-1.2-7.015-1.9a4.424,4.424,0,0,0-3.707.407,18.842,18.842,0,0,1-14.718,1.257A15.273,15.273,0,0,1,416.9,3156.488Z" transform="translate(-391.455 -3109.933)" fill="#47a534"/>
          <path id="Trazado_571" data-name="Trazado 571" d="M424.853,3115.4a21.936,21.936,0,0,0-19.872,12.644c-3.167,6.047-3.064,12.573.055,19.358a4.391,4.391,0,0,1,.223,2.625c-.636,2.787-1.444,5.533-2.287,8.665,2.841-.759,5.328-1.344,7.763-2.1a4.82,4.82,0,0,1,3.869.375c6.383,3.1,12.625,3.4,18.458.712a21.936,21.936,0,0,0-8.21-42.279Zm-.189,37.676a15.355,15.355,0,1,1,15.355-15.354A15.354,15.354,0,0,1,424.663,3153.081Z" transform="translate(-402.65 -3115.405)" fill="#47a534"/>
        </g>
      </g>
      <path id="Trazado_572" data-name="Trazado 572" d="M454.1,3131.539c-4.923-.382-9.9-.094-14.891-.094v4.112l2.5.136v15.2l-2.518.343v4.126h11.236v-4.187c-.882-.078-1.625-.146-2.4-.218v-3.464c1.852,0,3.6.134,5.326-.027,3.749-.348,6.283-3.4,6.463-7.581C459.993,3135.512,457.792,3131.827,454.1,3131.539Zm-.889,9.931c-1.036,2.076-3.262,1.275-5.2,1.367v-6.885c1.959.023,4.164-.632,5.2,1.369A5.218,5.218,0,0,1,453.206,3141.47Z" transform="translate(-373.952 -3102.448)" fill="#47a534"/>
      <path id="Trazado_573" data-name="Trazado 573" d="M479.826,3145.12h10.7c.405-3.689-.161-6.829-3.192-8.856a8.737,8.737,0,0,0-9.04-.414c-3.521,1.693-4.832,4.765-4.751,8.476a8.6,8.6,0,0,0,5.883,8.188c4,1.38,7.66.582,11.166-1.811-.761-1.432-1.409-2.649-2.043-3.845C482.792,3149.034,480.421,3148.575,479.826,3145.12Zm2.8-6.3a3.021,3.021,0,0,1,3.021,3.021h-6.04A3.021,3.021,0,0,1,482.631,3138.815Z" transform="translate(-346.964 -3099.739)" fill="#47a534"/>
      <path id="Trazado_574" data-name="Trazado 574" d="M520.19,3146.765c-5.178,2.357-7.642,1.916-8.824-1.641h10.816c.7-6.25-2.268-10.067-7.687-10.206-5.681-.147-9.5,3.844-9.19,9.587a8.306,8.306,0,0,0,5.422,7.825c4.087,1.646,7.9.823,11.595-1.593C521.538,3149.273,520.859,3148.011,520.19,3146.765Zm-8.838-5.387.184-.461a3.019,3.019,0,0,1,5.715,1.357h-6.042A2.984,2.984,0,0,1,511.352,3141.378Z" transform="translate(-322.029 -3099.642)" fill="#47a534"/>
      <path id="Trazado_575" data-name="Trazado 575" d="M473.426,3146.1a39.092,39.092,0,0,0-.064-5.053,6.035,6.035,0,0,0-3.3-5.271,11.543,11.543,0,0,0-11.691,1.562l1.891,3.6c4.815-2.2,6.688-2.014,7.154.345a73.544,73.544,0,0,0-7.558,2.183c-2.119.854-2.8,2.816-2.534,5.066a4.887,4.887,0,0,0,3.758,4.308,6.169,6.169,0,0,0,6.654-1.992c1.93,3.309,4.987,1.313,7.649,1.919v-4.158C473.4,3148.835,473.362,3147.574,473.426,3146.1Zm-5.647-.742-.082.689a4.217,4.217,0,0,1-.809,1.916c-1.52,1.9-4.453.841-3.771-1.512a2.325,2.325,0,0,1,1.826-1.487,12.162,12.162,0,0,1,2.857-.155C467.8,3144.985,467.791,3145.169,467.779,3145.355Z" transform="translate(-359.746 -3099.705)" fill="#47a534"/>
    </g>
  </g>
</svg>
