<svg xmlns="http://www.w3.org/2000/svg" xmlns:xlink="http://www.w3.org/1999/xlink" width="312.57" height="138.922" viewBox="0 0 312.57 138.922">
  <defs>
    <linearGradient id="linear-gradient" x1="0.001" y1="-798.701" x2="1" y2="-798.701" gradientUnits="objectBoundingBox">
      <stop offset="0" stop-color="#01579a"/>
      <stop offset="1" stop-color="#5190f2"/>
    </linearGradient>
    <linearGradient id="linear-gradient-2" y1="-247.114" x2="1" y2="-247.114" gradientUnits="objectBoundingBox">
      <stop offset="0" stop-color="#5d87c4"/>
      <stop offset="0.183" stop-color="#5a99cd"/>
      <stop offset="0.469" stop-color="#57afd9"/>
      <stop offset="0.746" stop-color="#56bce0"/>
      <stop offset="1" stop-color="#55c0e2"/>
    </linearGradient>
  </defs>
  <g id="Grupo_34" data-name="Grupo 34" transform="translate(-0.285 -0.043)">
    <g id="Grupo_389" data-name="Grupo 389" transform="translate(0.285 0.043)">
      <rect id="Rectángulo_183" data-name="Rectángulo 183" width="312.57" height="138.922" rx="10" fill="#fff"/>
    </g>
    <g id="Grupo_390" data-name="Grupo 390" transform="translate(28.285 45.043)">
      <path id="Trazado_601" data-name="Trazado 601" d="M-141.988,3126.854h-51.888a1.872,1.872,0,0,1-1.939-1.835v-6.244a1.974,1.974,0,0,1,1.939-1.836h51.888a1.872,1.872,0,0,1,1.939,1.836v6.244A1.872,1.872,0,0,1-141.988,3126.854Z" transform="translate(197.054 -3116.939)" fill="url(#linear-gradient)"/>
      <path id="Trazado_602" data-name="Trazado 602" d="M-139.5,3139.848v15.8a2.461,2.461,0,0,1-.789,1.764l-.079.077-.159.153a3.3,3.3,0,0,1-1.737.538h-.316a2.406,2.406,0,0,1-.789-.153l-.473-.23-.079-.077-24.083-10.816-24.081,10.894a2.78,2.78,0,0,1-1.421.384h-.395a2.591,2.591,0,0,1-2.605-2.532v-15.8l28.5-13.886Z" transform="translate(196.509 -3109.852)" fill="#01579a"/>
      <path id="Trazado_603" data-name="Trazado 603" d="M-152.043,3139.806v15.84a2.472,2.472,0,0,1-.789,1.767l-.079.077c-.08,0-.08.079-.159.155a3.3,3.3,0,0,1-1.737.538h-.316a2.406,2.406,0,0,1-.789-.153l-.473-.23h-.079l-24-10.92h-.08v-20.917h.08Z" transform="translate(209.048 -3109.852)" opacity="0.39" fill="url(#linear-gradient-2)" style="isolation: isolate"/>
      <path id="Trazado_604" data-name="Trazado 604" d="M-135.854,3133.075H-142.2v10.436c0,2.183,1.219,2.912,3.173,2.912a3.623,3.623,0,0,0,1.707-.243v3.155a6.089,6.089,0,0,1-2.2.243c-3.66,0-6.344-1.94-6.344-5.824v-10.922h-4.148v-2.912h3.9v-3.884l3.9-1.942v5.826h7.076Z" transform="translate(233.036 -3111.319)" fill="#01579a"/>
      <path id="Trazado_605" data-name="Trazado 605" d="M-129.429,3131.347c-.245,0-.977-.243-1.464-.243-2.685,0-5.369,1.214-5.369,5.826v9.951h-3.9v-19.417h4.149v3.884c.732-2.912,2.928-4.126,5.612-4.126.487,0,1.464.242,1.952.242Z" transform="translate(240.765 -3108.864)" fill="#01579a"/>
      <path id="Trazado_606" data-name="Trazado 606" d="M-118.3,3146.772v-2.427c-.977,1.7-2.685,2.912-6.1,2.912-4.392,0-7.565-2.668-7.565-7.038v-12.863h3.9v12.62c0,1.943,1.22,4.126,4.635,4.126,3.173,0,4.637-2.184,4.637-4.126v-12.62h3.9v19.416Z" transform="translate(247.206 -3108.757)" fill="#01579a"/>
      <path id="Trazado_607" data-name="Trazado 607" d="M-113.976,3147.123a8.8,8.8,0,0,1-5.367-1.457l-.734-3.884a9.763,9.763,0,0,0,6.1,2.186c1.709,0,2.928-.972,2.928-2.186,0-1.455-.975-2.184-2.684-2.669-3.9-1.458-6.1-3.156-6.1-6.311s2.685-5.583,6.588-5.583a11.173,11.173,0,0,1,5.124,1.214l-.732,3.4a8.634,8.634,0,0,0-4.392-1.214c-1.709,0-2.684.971-2.684,2.185s.975,1.7,2.684,2.427c3.9,1.457,6.1,3.155,6.1,6.553C-106.9,3144.7-109.339,3147.123-113.976,3147.123Z" transform="translate(256.545 -3108.864)" fill="#01579a"/>
      <path id="Trazado_608" data-name="Trazado 608" d="M-97.7,3133.075h-6.344v10.436c0,2.183,1.219,2.912,3.171,2.912a3.639,3.639,0,0,0,1.711-.243v3.155a6.1,6.1,0,0,1-2.2.243c-3.66,0-6.344-1.94-6.344-5.824v-10.922h-3.9v-2.912h3.9v-3.884l3.9-1.942v5.826h7.078Z" transform="translate(263.201 -3111.319)" fill="#01579a"/>
      <path id="Trazado_609" data-name="Trazado 609" d="M-82.366,3124.988a6.533,6.533,0,0,0-2.928-.729c-3.173,0-4.637,1.941-4.637,5.338v2.428h6.344l-.732,3.4h-5.612v16.26h-3.9v-16.5h-3.417v-2.912h3.417V3129.6c0-5.581,3.173-8.494,8.3-8.494a9.349,9.349,0,0,1,3.9.727Z" transform="translate(274.473 -3113.667)" fill="#01579a"/>
      <path id="Trazado_610" data-name="Trazado 610" d="M-74.293,3146.772v-2.427c-.977,1.7-2.685,2.912-6.1,2.912-4.392,0-7.565-2.668-7.565-7.038v-12.863h3.9v12.62c0,1.943,1.221,4.126,4.637,4.126,3.171,0,4.635-2.184,4.635-4.126v-12.62h3.9v19.416Z" transform="translate(281.773 -3108.757)" fill="#01579a"/>
      <path id="Trazado_611" data-name="Trazado 611" d="M-62.345,3146.986v-12.62c0-1.943-1.219-4.127-4.637-4.127-3.171,0-4.637,2.184-4.637,4.127v12.62h-3.9v-19.417h3.416V3130c.977-1.7,2.684-2.912,6.1-2.912,4.392,0,7.565,2.67,7.565,7.038v12.863Z" transform="translate(291.542 -3108.969)" fill="#01579a"/>
      <path id="Trazado_612" data-name="Trazado 612" d="M-48.259,3151.684V3149.5a7.046,7.046,0,0,1-5.858,2.669c-4.391,0-9.515-3.4-9.515-10.193a9.782,9.782,0,0,1,10-10.194,9.318,9.318,0,0,1,5.369,1.7V3121.1h3.9v30.58Zm-.245-14.562a6.1,6.1,0,0,0-4.88-1.941c-3.417,0-6.346,2.669-6.346,6.8s2.928,6.8,6.346,6.8a6.262,6.262,0,0,0,4.88-2.427Z" transform="translate(300.882 -3113.667)" fill="#01579a"/>
    </g>
  </g>
</svg>
