<?xml version="1.0" encoding="utf-8"?>
<!-- Generator: Adobe Illustrator 25.3.1, SVG Export Plug-In . SVG Version: 6.00 Build 0)  -->
<svg version="1.2" baseProfile="tiny" id="Capa_1" xmlns="http://www.w3.org/2000/svg" xmlns:xlink="http://www.w3.org/1999/xlink"
	 x="0px" y="0px" viewBox="0 0 312.6 138.9" overflow="visible" xml:space="preserve">
<g id="Grupo_24" transform="translate(-0.104 -0.043)">
	<g id="Grupo_377" transform="translate(56.105 43.043)">
		<g id="Grupo_374" transform="translate(65.233)">
			<path id="Trazado_557" fill="#C3C18D" d="M35.8,4.5l-2.4-0.1V0h18.4v7h-4.9l-0.1-2.1h-4.7v4.7h6.7v4.9h-6.7v4.9h5.1l0.1-2.1h4.9
				v6.9H33.4V20l2.4-0.2L35.8,4.5z"/>
			<path id="Trazado_558" fill="#C3C18D" d="M2.4,4.4H0.1V0h18.3v7h-4.9l-0.2-2.1H8.8v4.7h6.8v4.8H8.8v4.9h4.9l0.2-2h4.9v6.9H0V20
				l2.4-0.2V4.4z"/>
			<path id="Trazado_559" fill="#C3C18D" d="M65.4,7.7V4.4l-2-0.2V0h8v9.9c0,2.7,0.1,5.3,0,8c-0.1,1.5,0.2,2.5,2,2.2v4.3
				c-2.6-0.6-5.6,1.3-7.7-1.9c-2,2.2-5.2,2.9-7.9,1.6c-3-1.2-4.3-3.7-4.6-6.8c-0.6-5.2,1.3-9.1,5.1-10.4C60.7,6,63.3,6.3,65.4,7.7z
				 M58.9,15.6c0,2.5,1.5,4.2,3.5,4.1s3.5-1.8,3.4-4.3c-0.1-2.5-1.6-4.2-3.5-4.2S58.9,13.2,58.9,15.6z"/>
			<path id="Trazado_560" fill="#C3C18D" d="M105.9,24.7c-5.6,0-9.9-3.8-9.9-9c-0.1-5.3,4.1-9.3,9.8-9.3c5.7,0,10,3.9,10,9.2
				C115.7,20.7,111.5,24.7,105.9,24.7z M105.8,11.3c-2.3,0.1-4.1,2-4,4.3c0,0,0,0,0,0c-0.1,2.2,1.6,4.1,3.8,4.2
				c2.2,0.1,4.1-1.6,4.2-3.8c0-0.1,0-0.3,0-0.4C109.9,13.3,108.1,11.4,105.8,11.3C105.8,11.3,105.8,11.3,105.8,11.3L105.8,11.3z"/>
			<path id="Trazado_561" fill="#C3C18D" d="M124.5,19.9l2.1,0.3v4h-10.4v-4l2.2-0.2c0-2.6,0.1-5.2-0.1-7.7c0-0.6-1.2-1-2.2-1.8V6.9
				c2.1-0.1,4.1-0.1,6.2,0.1c0.9,0.1,1.5,1.5,2.3,2.3c1.2-1.4,2.8-3.2,5.6-2.7V12C125,12.7,123.6,14.7,124.5,19.9z"/>
			<path id="Trazado_562" fill="#C3C18D" d="M85.7,11.2l-2.2-0.2V7l2.4-0.4V2.2h5.7v4.6h3.5V11l-3.4,0.2c0,2.1-0.1,4.1,0,6.1
				c0.1,1.7,0.6,2,3.8,2.6v4.8c-1.9-0.2-3.8-0.4-5.6-0.9c-2.7-0.8-4-2.9-4.1-5.8C85.7,15.8,85.7,13.5,85.7,11.2z"/>
			<path id="Trazado_563" fill="#C3C18D" d="M19.6,0h8.2v3c0,4.7,0,9.4,0,14.1c0,1.6,0.1,2.9,2.2,2.5v4.4c-5.1,1.2-8-1-8.1-6
				c-0.1-4.5,0-9,0-13.6l-2.2-0.4L19.6,0z"/>
			<path id="Trazado_564" fill="#C3C18D" d="M74.3,24.2v-4.1l2-0.1v-8.8l-2.1-0.3v-4h8.1v13l2.1,0.2v4L74.3,24.2z"/>
			<path id="Trazado_565" fill="#C3C18D" d="M82.2,0v4.4h-5.6V0H82.2z"/>
		</g>
		<path id="Trazado_566" fill="#C3C18D" d="M96.4,48.7v4.1c-5.3,1.2-8-1-8.1-6.4c0-4.3,0-8.6,0-12.9c0-0.1-0.1-0.2-0.2-0.4l-2-0.3
			v-4.1h8.2v13.5c0,1.1,0,2.3,0,3.4C94.2,48.1,94.2,48.1,96.4,48.7z"/>
		<path id="Trazado_567" fill="#C3C18D" d="M122.7,45.9c-0.1-1.9,0-3.9,0-6h3.6v-0.3h0.1v-4l-0.1,0v-0.5h-3.6v-4.3H117v4.3h-2.5V40
			h2.2l0.2,0c0,1.9,0,3.7,0,5.5c0,5.8,3.8,8.7,9.6,7.3v-4.4C124.7,48.3,122.8,48.2,122.7,45.9z"/>
		<path id="Trazado_568" fill="#C3C18D" d="M164,48.6c0-2.9,0.1-5.5,0-8.2c-0.2-3.7-2.6-5.3-6.2-5.2c-4,0.2-4.8,1.5-5.3,2
			c-0.8-1.8-2.7-2.3-5.2-2l-0.2,0l-2.6,0.1V40h1.8l0.4,0.1v8.5h-1.9v4.3h0v0h10v-4.1h0v-0.2h-1.7V43c0-0.2,0.1-0.4,0.2-0.6
			c0.4-1.5,2.3-1.8,3.7-1.8c1.6,0,1.5,1.6,1.5,2.8c0,3.1,0,6.3,0,9.5h8.1v-4.3L164,48.6z"/>
		<path id="Trazado_569" fill="#C3C18D" d="M180,43.7c-1.3-0.6-2.6-1.1-4-1.4c-0.8-0.2-2.7-0.3-2.7-1.4c0-0.1,0-0.1,0-0.2l0,0l0.1,0
			c0.2-0.6,1.1-1,2.3-1c0.6,0,1.2,0.1,1.7,0.4c0.5,0.3,0.6,0.7,0.7,1.2c0.1,0.3,3.8,0.1,3.8,0.1c0.4-3.1,0-4.3-2.1-5.2
			c-2.9-1.3-6.3-1.2-9.2,0.2c-2.1,0.8-3.1,3.1-2.4,5.2c0.6,1.4,1.5,2.6,2.8,3.4c0.8,0.5,1.6,0.9,2.5,1.1c0.7,0.2,1.4,0.5,2.1,0.7
			c0.5,0.2,1.3,0.4,1.3,1.1s-1,1.2-2.3,1.2c-0.7,0-2-0.2-2.3-1c-0.1-0.3,0-0.8-0.3-1c-0.2-0.1-0.5-0.1-0.7-0.1c-1.2-0.1-2.5,0-3.8,0
			c-0.4,2.1-0.2,3.8,1.6,5c2.9,1.9,8.4,2,11.3,0.1c2.3-1.3,3.1-4.2,1.7-6.5C181.6,44.8,180.9,44.1,180,43.7z"/>
		<g id="Grupo_376" transform="translate(0 0.439)">
			<g id="Grupo_375">
				<path id="Trazado_570" fill="#C3C18D" d="M25.4,46.6c14.3-2.5,25.4-17,19.1-34.1c4,2.8,6.8,7.1,7.7,11.9
					c0.9,4.3,0.3,8.8-1.6,12.8c-0.3,0.8-0.4,1.6-0.2,2.4c0.6,2.5,1.3,5.1,2,7.9c-2.5-0.7-4.8-1.2-7-1.9c-1.2-0.4-2.6-0.3-3.7,0.4
					c-4.5,2.4-9.8,2.9-14.7,1.3C26.5,47,25.9,46.8,25.4,46.6z"/>
				<path id="Trazado_571" fill="#C3C18D" d="M22.2,0C13.7,0,5.9,4.9,2.3,12.6c-3.2,6-3.1,12.6,0.1,19.4c0.3,0.8,0.4,1.7,0.2,2.6
					c-0.6,2.8-1.4,5.5-2.3,8.7c2.8-0.8,5.3-1.3,7.8-2.1c1.3-0.4,2.7-0.3,3.9,0.4c6.4,3.1,12.6,3.4,18.5,0.7
					C41.6,37.7,47.1,25,42.5,13.7C39.2,5.4,31.1,0,22.2,0L22.2,0z M22,37.7c-8.5,0-15.4-6.9-15.4-15.4C6.7,13.8,13.5,7,22,7
					c8.5,0,15.4,6.9,15.4,15.4c0,0,0,0,0,0C37.4,30.8,30.5,37.7,22,37.7C22,37.7,22,37.7,22,37.7L22,37.7z"/>
			</g>
		</g>
		<path id="Trazado_572" fill="#C3C18D" d="M80.1,29.1c-4.9-0.4-9.9-0.1-14.9-0.1v4.1l2.5,0.1v15.2l-2.5,0.3v4.1h11.2v-4.2
			c-0.9-0.1-1.6-0.1-2.4-0.2V45c1.9,0,3.6,0.1,5.3,0c3.7-0.3,6.3-3.4,6.5-7.6C86,33.1,83.8,29.4,80.1,29.1z M79.3,39
			c-1,2.1-3.3,1.3-5.2,1.4v-6.9c2,0,4.2-0.6,5.2,1.4C79.8,36.2,79.8,37.7,79.3,39L79.3,39z"/>
		<path id="Trazado_573" fill="#C3C18D" d="M132.9,45.4h10.7c0.4-3.7-0.2-6.8-3.2-8.9c-2.7-1.8-6.2-2-9-0.4
			c-3.5,1.7-4.8,4.8-4.8,8.5c0,3.7,2.4,7,5.9,8.2c4,1.4,7.7,0.6,11.2-1.8c-0.8-1.4-1.4-2.6-2-3.8C135.8,49.3,133.5,48.8,132.9,45.4z
			 M135.7,39.1c1.7,0,3,1.4,3,3h-6C132.6,40.4,134,39.1,135.7,39.1C135.7,39.1,135.7,39.1,135.7,39.1L135.7,39.1z"/>
		<path id="Trazado_574" fill="#C3C18D" d="M198.2,47.1c-5.2,2.4-7.6,1.9-8.8-1.6h10.8c0.7-6.2-2.3-10.1-7.7-10.2
			c-5.7-0.1-9.5,3.8-9.2,9.6c0,3.5,2.2,6.6,5.4,7.8c4.1,1.6,7.9,0.8,11.6-1.6C199.5,49.6,198.8,48.4,198.2,47.1z M189.3,41.7
			l0.2-0.5c0.8-1.5,2.6-2.1,4.1-1.3c1,0.5,1.7,1.6,1.7,2.7h-6C189.2,42.3,189.2,42,189.3,41.7z"/>
		<path id="Trazado_575" fill="#C3C18D" d="M113.7,46.4c0.1-1.7,0.1-3.4-0.1-5.1c0-2.2-1.3-4.3-3.3-5.3c-3.9-1.7-8.4-1.1-11.7,1.6
			l1.9,3.6c4.8-2.2,6.7-2,7.2,0.3c-2.6,0.6-5.1,1.3-7.6,2.2c-2.1,0.9-2.8,2.8-2.5,5.1c0.2,2.1,1.7,3.8,3.8,4.3c2.4,0.8,5.1,0,6.7-2
			c1.9,3.3,5,1.3,7.6,1.9v-4.2C113.7,49.1,113.6,47.9,113.7,46.4z M108,45.7l-0.1,0.7c-0.1,0.7-0.4,1.4-0.8,1.9
			c-1.5,1.9-4.5,0.8-3.8-1.5c0.3-0.8,1-1.4,1.8-1.5c0.9-0.2,1.9-0.2,2.9-0.2C108.1,45.3,108,45.5,108,45.7L108,45.7z"/>
	</g>
</g>
</svg>
