<?xml version="1.0" encoding="utf-8"?>
<!-- Generator: Adobe Illustrator 25.3.1, SVG Export Plug-In . SVG Version: 6.00 Build 0)  -->
<svg version="1.2" baseProfile="tiny" id="Capa_1" xmlns="http://www.w3.org/2000/svg" xmlns:xlink="http://www.w3.org/1999/xlink"
	 x="0px" y="0px" viewBox="0 0 312.6 138.9" overflow="visible" xml:space="preserve">
<g id="Grupo_21" transform="translate(0.273 -0.043)">
	<g id="Grupo_358">
		<g id="Grupo_357" transform="translate(23.835 8.026)">
			<path id="Trazado_519" fill="#C3C18D" d="M78.7,34.1h5.8v15.3c1.2-0.9,2.5-1.6,4-2.1c3.4-1.1,7-1,10.3,0.4
				c1.7,0.7,3.3,1.8,4.6,3.2c1.3,1.4,2.4,2.9,3.1,4.7c1.5,3.6,1.5,7.7,0,11.4c-0.7,1.7-1.8,3.3-3.1,4.7c-1.3,1.3-2.9,2.4-4.6,3.1
				c-3.3,1.4-6.9,1.5-10.3,0.4c-1.4-0.5-2.8-1.2-4-2.1v2.3h-5.8V34.1z M93.2,70c1.2,0,2.3-0.2,3.4-0.7c1-0.4,2-1.1,2.7-1.9
				c0.8-0.8,1.4-1.7,1.8-2.8c0.5-1.1,0.7-2.2,0.7-3.4c0-2.3-0.9-4.6-2.5-6.3c-0.8-0.8-1.7-1.4-2.7-1.9c-2.1-0.9-4.6-0.9-6.7,0
				c-2.1,0.9-3.7,2.6-4.6,4.7c-0.5,1.1-0.7,2.3-0.7,3.4c0,1.2,0.2,2.3,0.7,3.4c0.4,1,1.1,2,1.8,2.8c0.8,0.8,1.7,1.4,2.7,1.9
				C90.9,69.8,92,70,93.2,70L93.2,70z"/>
			<path id="Trazado_520" fill="#C3C18D" d="M121.9,75.9c-1.4,0-2.8-0.3-4.2-0.9c-2.6-1.1-4.6-3.1-5.7-5.7c-0.6-1.3-0.9-2.8-0.9-4.2
				v-31h5.8v31c0,1.3,0.5,2.6,1.4,3.5c0.9,0.9,2.2,1.5,3.5,1.4L121.9,75.9z"/>
			<path id="Trazado_521" fill="#C3C18D" d="M129.2,42.9c-2.1,0-3.7-1.7-3.8-3.8c0-1,0.4-2,1.1-2.7c0.7-0.7,1.7-1.1,2.7-1.1
				c2.1,0,3.8,1.7,3.8,3.8c0,0,0,0,0,0c0,1-0.4,2-1.1,2.7C131.2,42.6,130.2,43,129.2,42.9z M126.3,47.1h5.8v28.2h-5.8V47.1z"/>
			<path id="Trazado_522" fill="#C3C18D" d="M152,75.9c-2.1,0-4.1-0.4-6-1.1c-1.8-0.7-3.5-1.8-4.9-3.1c-1.4-1.3-2.5-2.9-3.3-4.7
				c-1.6-3.6-1.6-7.8,0-11.4c0.8-1.8,1.9-3.3,3.3-4.7c1.4-1.3,3.1-2.4,4.9-3.1c1.9-0.8,3.9-1.2,6-1.2c1.8,0,3.5,0.3,5.2,0.8
				c1.6,0.5,3.2,1.4,4.6,2.4l-3.6,4.7c-0.9-0.7-1.8-1.2-2.9-1.5c-2.3-0.8-4.7-0.7-7,0.1c-2.2,0.9-4.1,2.5-5.1,4.7
				c-1,2.2-1,4.7,0,6.8c0.5,1,1.2,2,2.1,2.8c0.9,0.8,1.9,1.4,3,1.9c1.2,0.5,2.4,0.7,3.7,0.7c1.1,0,2.2-0.2,3.3-0.5
				c1-0.4,2-0.9,2.9-1.5l3.6,4.7c-1.4,1-2.9,1.8-4.6,2.4C155.5,75.6,153.7,75.9,152,75.9z"/>
			<path id="Trazado_523" fill="#C3C18D" d="M165.3,34h5.8v25.6c2.3-1.4,4.3-3.2,5.8-5.5c1.4-2.2,2.7-4.6,3.6-7.1h6.1L186,49
				c-1.4,4.3-3.7,8.2-6.8,11.6l10.7,14.7h-7.3l-8-11c-0.6,0.4-1.1,0.7-1.7,1c-0.6,0.3-1.2,0.6-1.8,0.9v9.1h-5.8V34z"/>
		</g>
	</g>
	<path fill="#C3C18D" d="M213,86.2h-29.5c-2.8,0-5.1,2.3-5.1,5.1v8c0,2.8,2.3,5.1,5.1,5.1H213c2.8,0,5.1-2.3,5.1-5.1v-8
		C218.1,88.5,215.8,86.2,213,86.2z M191.2,99.5c0,0,0,0.1,0,0.1c0,0-0.1,0-0.1,0h-1.9c-0.1,0-0.1,0-0.1-0.1l-2.3-4.1v4.1
		c0,0,0,0.1,0,0.1c0,0-0.1,0-0.1,0h-1.8c-0.1,0-0.1-0.1-0.1-0.1c0,0,0,0,0,0v-7.1c0,0,0-0.1,0-0.1c0,0,0.1,0,0.1,0h1.9
		c0,0,0.1,0,0.1,0.1l2.3,3.8l0-3.7c0,0,0-0.1,0-0.1c0,0,0.1,0,0.1,0h1.8c0,0,0.1,0,0.1,0c0,0,0,0.1,0,0.1V99.5z M197,93.8
		c0,0.1-0.1,0.1-0.1,0.1h-2.4V95h2.1c0,0,0.1,0,0.1,0c0,0,0,0.1,0,0.1v1.5c0,0,0,0.1,0,0.1c0,0-0.1,0-0.1,0h-2.1v1.1h2.4
		c0,0,0.1,0,0.1,0c0,0,0,0.1,0,0.1v1.5c0,0,0,0.1,0,0.1c0,0-0.1,0-0.1,0l-4.4,0c0,0-0.1,0-0.1,0c0,0,0-0.1,0-0.1v-7.1
		c0-0.1,0.1-0.1,0.1-0.1c0,0,0,0,0,0h4.4c0,0,0.1,0,0.1,0c0,0,0,0.1,0,0.1V93.8z M206.3,99.5C206.3,99.6,206.3,99.6,206.3,99.5
		c-0.1,0.1-0.1,0.1-0.1,0.1h-2c0,0-0.1,0-0.1,0c-0.2-0.2-0.3-0.4-0.4-0.6c-0.1-0.3-0.3-0.6-0.4-0.9c-0.1-0.3-0.2-0.6-0.3-0.9
		s-0.2-0.6-0.2-0.7l-0.1-0.3c0,0.1,0,0.2-0.1,0.3s-0.1,0.4-0.2,0.7c-0.1,0.3-0.2,0.7-0.3,1c-0.1,0.3-0.2,0.6-0.4,0.9
		c-0.1,0.2-0.2,0.4-0.4,0.6c0,0-0.1,0-0.1,0h-2c0,0-0.1,0-0.1,0c0,0,0-0.1,0-0.1l-1-7.2c0,0,0-0.1,0-0.1c0,0,0.1,0,0.1,0h1.8
		c0,0,0.1,0,0.1,0c0,0,0,0.1,0,0.1l0.6,3.9l0.9-3.9c0-0.1,0.1-0.1,0.1-0.1l1.9,0c0.1,0,0.1,0,0.1,0.1l0.9,3.9l0.5-3.9
		c0,0,0-0.1,0-0.1c0,0,0.1,0,0.1,0h1.8c0,0,0.1,0,0.1,0c0,0,0,0.1,0,0.1L206.3,99.5z M212.5,99.3c-0.6,0.4-1.4,0.6-2.2,0.5
		c-0.5,0-1.1,0-1.6-0.1c0,0-0.1,0-0.1-0.1c0,0,0-0.1,0-0.1l0.1-1.5c0,0,0-0.1,0.1-0.1c0,0,0.1,0,0.1,0c0.4,0.1,0.9,0.2,1.3,0.2
		c0.2,0,0.3,0,0.4-0.1c0.1,0,0.2-0.1,0.3-0.2c0-0.1,0.1-0.1,0.1-0.2c0,0,0-0.1,0-0.2c0-0.1,0-0.1,0-0.2c0-0.1-0.1-0.2-0.1-0.2
		c-0.1-0.1-0.2-0.2-0.3-0.3c-0.2-0.1-0.3-0.2-0.5-0.2c-0.2-0.1-0.5-0.1-0.7-0.3c-0.2-0.1-0.4-0.3-0.6-0.5c-0.2-0.2-0.3-0.5-0.4-0.7
		c-0.1-0.3-0.2-0.6-0.2-0.9c0-0.6,0.2-1.2,0.8-1.6c0.6-0.4,1.3-0.6,2.1-0.5c0.5,0,1.1,0,1.6,0.1c0,0,0.1,0,0.1,0.1c0,0,0,0.1,0,0.1
		l-0.1,1.5c0,0,0,0.1-0.1,0.1c0,0-0.1,0-0.1,0c-0.4-0.1-0.9-0.2-1.4-0.2c-0.1,0-0.3,0-0.4,0.1c-0.1,0-0.2,0.1-0.3,0.2
		c0,0.1-0.1,0.1-0.1,0.2c0,0,0,0.1,0,0.1c0,0.1,0,0.1,0,0.2c0,0.1,0.1,0.2,0.1,0.2c0.1,0.1,0.2,0.2,0.3,0.3c0.2,0.1,0.3,0.2,0.5,0.2
		c0.2,0.1,0.5,0.1,0.7,0.3c0.2,0.1,0.4,0.3,0.6,0.5c0.2,0.2,0.3,0.5,0.4,0.7c0.1,0.3,0.2,0.6,0.2,0.9
		C213.2,98.3,213,98.9,212.5,99.3z"/>
</g>
</svg>
