<svg id="Grupo_260" data-name="Grupo 260" xmlns="http://www.w3.org/2000/svg" width="312.57" height="138.922" viewBox="0 0 312.57 138.922">
  <defs>
    <style>
      .cls-1 {
        fill: #fff;
      }

      .cls-2 {
        fill: #c3c18d;
      }
    </style>
  </defs>
  <g id="Grupo_255" data-name="Grupo 255">
    <rect id="Rectángulo_142" data-name="Rectángulo 142" class="cls-1" width="312.57" height="138.922" rx="10"/>
  </g>
  <g id="Grupo_259" data-name="Grupo 259" transform="translate(60.03 39.317)">
    <g id="Grupo_258" data-name="Grupo 258">
      <g id="Grupo_257" data-name="Grupo 257" transform="translate(0 22.417)">
        <path id="Trazado_182" data-name="Trazado 182" class="cls-2" d="M807.319,2788.92a22.674,22.674,0,0,1,8.2,1.4,18.467,18.467,0,0,1,6.185,3.857,16.382,16.382,0,0,1,3.926,5.865,20.793,20.793,0,0,1,.036,14.673,16.541,16.541,0,0,1-3.823,5.8,17.271,17.271,0,0,1-6.185,3.819,23.955,23.955,0,0,1-8.34,1.365H791.271V2788.92Zm-11.393,4.23v28.316h11.393a17.871,17.871,0,0,0,6.4-1.059,13.02,13.02,0,0,0,4.655-2.931,12.442,12.442,0,0,0,2.85-4.469,16.061,16.061,0,0,0,.971-5.663,15.82,15.82,0,0,0-1.007-5.7,12.419,12.419,0,0,0-2.919-4.5,13.373,13.373,0,0,0-4.689-2.934,17.449,17.449,0,0,0-6.256-1.059Z" transform="translate(-791.271 -2788.92)"/>
        <path id="Trazado_183" data-name="Trazado 183" class="cls-2" d="M815,2793.582h27.1v4.092H819.45v7.164h14.87v4.1H819.45v9.006h23.9v4.094H815Z" transform="translate(-772.63 -2785.258)"/>
        <path id="Trazado_184" data-name="Trazado 184" class="cls-2" d="M835.251,2793.582H839.7v24.357h21.538v4.094H835.251Z" transform="translate(-756.726 -2785.258)"/>
        <g id="Grupo_256" data-name="Grupo 256" transform="translate(109.67 7.597)">
          <path id="Trazado_185" data-name="Trazado 185" class="cls-2" d="M881.117,2814.1a7.806,7.806,0,0,1-.88,3.61,9,9,0,0,1-2.534,2.977,12.773,12.773,0,0,1-4.078,2.015,18.744,18.744,0,0,1-5.522.75,26.039,26.039,0,0,1-8.086-1.223,24.317,24.317,0,0,1-7.167-3.839l-.155-.121,2.337-3.414.179.136a24.524,24.524,0,0,0,6.374,3.562,18.727,18.727,0,0,0,6.464,1.2,14.386,14.386,0,0,0,3.714-.441,8.47,8.47,0,0,0,2.753-1.236,6.038,6.038,0,0,0,1.745-1.836,4.322,4.322,0,0,0,.62-2.244,4.108,4.108,0,0,0-1.623-3.219,8.737,8.737,0,0,0-4.964-1.643c-1.164-.1-2.312-.182-3.525-.262-1.139-.072-2.173-.161-3.155-.268a25.976,25.976,0,0,1-2.846-.448,12.1,12.1,0,0,1-2.494-.839c-2.83-1.334-4.266-3.371-4.266-6.056a6.545,6.545,0,0,1,.805-3.164,7.953,7.953,0,0,1,2.321-2.58,11.6,11.6,0,0,1,3.617-1.723,16.8,16.8,0,0,1,4.714-.615,22.467,22.467,0,0,1,7.279,1.2,25.987,25.987,0,0,1,6.726,3.49l.175.123-2.352,3.312-.173-.139a18.488,18.488,0,0,0-11.6-4.231,9.988,9.988,0,0,0-5.376,1.262,3.5,3.5,0,0,0-1.948,2.909,2.874,2.874,0,0,0,1.318,2.367,5.772,5.772,0,0,0,2.075.966,19.294,19.294,0,0,0,2.716.475c1.034.1,2.13.185,3.269.232,1.164.052,2.435.153,3.782.3a12.446,12.446,0,0,1,7.2,2.906A7.613,7.613,0,0,1,881.117,2814.1Z" transform="translate(-852.694 -2793.175)"/>
        </g>
        <path id="Trazado_186" data-name="Trazado 186" class="cls-2" d="M876.9,2793.622v18.213a10.852,10.852,0,0,0,.455,3.446,4.149,4.149,0,0,0,1.575,2.116,7.287,7.287,0,0,0,3.042,1.091,37.791,37.791,0,0,0,9.59,0,7.306,7.306,0,0,0,3.044-1.091,4.156,4.156,0,0,0,1.573-2.116,10.8,10.8,0,0,0,.455-3.446v-18.213h4.448v19.372q0,5.325-3.407,7.61t-10.977,2.285q-7.644,0-10.945-2.319t-3.3-7.576v-19.372Z" transform="translate(-727.506 -2785.228)"/>
        <path id="Trazado_187" data-name="Trazado 187" class="cls-2" d="M905.519,2793.581a18.828,18.828,0,0,1,6.6,1.091,14.788,14.788,0,0,1,4.967,3,12.758,12.758,0,0,1,3.125,4.537,14.853,14.853,0,0,1,1.08,5.7,15.078,15.078,0,0,1-1.043,5.662,12.274,12.274,0,0,1-3.059,4.47,14.214,14.214,0,0,1-4.969,2.934,19.759,19.759,0,0,1-6.7,1.059H892.665v-28.454Zm-8.406,4.094v20.263h8.436q5.439,0,8.261-2.83a9.842,9.842,0,0,0,2.826-7.267,10.446,10.446,0,0,0-.766-4.028,9.347,9.347,0,0,0-2.2-3.2,10.324,10.324,0,0,0-3.485-2.148,12.941,12.941,0,0,0-4.639-.787Z" transform="translate(-711.628 -2785.259)"/>
      </g>
      <path id="Trazado_188" data-name="Trazado 188" class="cls-2" d="M928.69,2780.227a4.745,4.745,0,0,1,3.175,1.018,4.273,4.273,0,0,1,1.457,2.741h-1.85a2.629,2.629,0,0,0-.861-1.691,2.825,2.825,0,0,0-1.964-.661,2.441,2.441,0,0,0-1.625.493,1.661,1.661,0,0,0-.586,1.334,1.371,1.371,0,0,0,.393,1.017,2.527,2.527,0,0,0,.978.588,16.6,16.6,0,0,0,1.6.432,15.583,15.583,0,0,1,2.093.6,3.268,3.268,0,0,1,1.361.975,2.724,2.724,0,0,1,.562,1.807,2.819,2.819,0,0,1-1.073,2.287,4.36,4.36,0,0,1-2.857.882,5.512,5.512,0,0,1-3.4-.987,3.93,3.93,0,0,1-1.552-2.75h1.869a2.4,2.4,0,0,0,.925,1.7,3.357,3.357,0,0,0,2.157.651,2.255,2.255,0,0,0,1.56-.5,1.686,1.686,0,0,0,.564-1.323,1.443,1.443,0,0,0-.4-1.071,2.694,2.694,0,0,0-1-.609,14.842,14.842,0,0,0-1.636-.439,16.144,16.144,0,0,1-2.071-.589,3.166,3.166,0,0,1-1.318-.934,2.6,2.6,0,0,1-.541-1.732,2.884,2.884,0,0,1,1.084-2.341,4.511,4.511,0,0,1,2.953-.893Zm-12.025,1.68a4.064,4.064,0,0,0-1.923.463,3.49,3.49,0,0,0-1.423,1.416,5.365,5.365,0,0,0,0,4.7,3.5,3.5,0,0,0,1.423,1.418,4.24,4.24,0,0,0,3.844,0,3.5,3.5,0,0,0,1.425-1.418,5.381,5.381,0,0,0,0-4.7,3.492,3.492,0,0,0-1.425-1.416A4.06,4.06,0,0,0,916.664,2781.907Zm0-1.68a6.261,6.261,0,0,1,3,.714,5.143,5.143,0,0,1,2.082,2.057,6.923,6.923,0,0,1,0,6.289,5.135,5.135,0,0,1-2.082,2.046,6.683,6.683,0,0,1-6.012,0,5.206,5.206,0,0,1-2.093-2.046,6.837,6.837,0,0,1,0-6.289,5.214,5.214,0,0,1,2.093-2.057A6.264,6.264,0,0,1,916.664,2780.227Zm-8.394-3.862V2791.9h-1.932v-15.535Zm-5.035,0V2791.9H901.3v-15.535Zm-10.3,5.542a4.063,4.063,0,0,0-1.923.463,3.489,3.489,0,0,0-1.423,1.416,5.365,5.365,0,0,0,0,4.7,3.5,3.5,0,0,0,1.423,1.418,4.244,4.244,0,0,0,3.846,0,3.5,3.5,0,0,0,1.423-1.418,5.365,5.365,0,0,0,0-4.7,3.488,3.488,0,0,0-1.423-1.416A4.063,4.063,0,0,0,892.932,2781.907Zm0-1.68a6.263,6.263,0,0,1,3.007.714A5.153,5.153,0,0,1,898.02,2783a6.937,6.937,0,0,1,0,6.289,5.146,5.146,0,0,1-2.082,2.046,6.687,6.687,0,0,1-6.013,0,5.227,5.227,0,0,1-2.093-2.046,6.851,6.851,0,0,1,0-6.289,5.235,5.235,0,0,1,2.093-2.057A6.263,6.263,0,0,1,892.932,2780.227Zm-11.515,2.478a4.248,4.248,0,0,1,1.678-1.858,5.026,5.026,0,0,1,2.634-.661v2.078h-.595a4.165,4.165,0,0,0-2.677.829,3.3,3.3,0,0,0-1.041,2.74v6.067h-1.934v-11.525h1.934Zm-8.159,0a4.257,4.257,0,0,1,1.678-1.858,5.036,5.036,0,0,1,2.635-.661v2.078h-.595a4.173,4.173,0,0,0-2.678.829,3.3,3.3,0,0,0-1.041,2.74v6.067h-1.932v-11.525h1.932Zm-10.92-.777a3.76,3.76,0,0,0-2.857,1.123,5,5,0,0,0,0,6.192,3.76,3.76,0,0,0,2.857,1.123,4.006,4.006,0,0,0,2.05-.525,3.689,3.689,0,0,0,1.414-1.479,4.649,4.649,0,0,0,.509-2.216,4.7,4.7,0,0,0-.509-2.225,3.6,3.6,0,0,0-1.414-1.48A4.069,4.069,0,0,0,862.337,2781.929Zm-.552-1.7a4.83,4.83,0,0,1,2.878.841,4.37,4.37,0,0,1,1.646,2.246v-2.939h1.934V2791.9H866.31v-2.939a4.381,4.381,0,0,1-1.646,2.246,4.839,4.839,0,0,1-2.878.839,5.328,5.328,0,0,1-2.762-.714,4.954,4.954,0,0,1-1.9-2.046,7.5,7.5,0,0,1,0-6.289,4.965,4.965,0,0,1,1.9-2.057A5.349,5.349,0,0,1,861.786,2780.227Zm-12.111,0a4.746,4.746,0,0,1,3.176,1.018,4.28,4.28,0,0,1,1.455,2.741h-1.848a2.637,2.637,0,0,0-.861-1.691,2.834,2.834,0,0,0-1.966-.661,2.444,2.444,0,0,0-1.625.493,1.659,1.659,0,0,0-.584,1.334,1.364,1.364,0,0,0,.393,1.017,2.517,2.517,0,0,0,.977.588q.584.2,1.605.432a15.657,15.657,0,0,1,2.093.6,3.274,3.274,0,0,1,1.359.975,2.715,2.715,0,0,1,.564,1.807,2.823,2.823,0,0,1-1.073,2.287,4.365,4.365,0,0,1-2.859.882,5.516,5.516,0,0,1-3.4-.987,3.921,3.921,0,0,1-1.55-2.75h1.87a2.4,2.4,0,0,0,.925,1.7,3.353,3.353,0,0,0,2.155.651,2.261,2.261,0,0,0,1.562-.5,1.691,1.691,0,0,0,.562-1.323,1.436,1.436,0,0,0-.4-1.071,2.7,2.7,0,0,0-1-.609,14.946,14.946,0,0,0-1.635-.439,16.2,16.2,0,0,1-2.073-.589,3.162,3.162,0,0,1-1.316-.934,2.587,2.587,0,0,1-.543-1.732,2.884,2.884,0,0,1,1.084-2.341A4.514,4.514,0,0,1,849.675,2780.227Zm-8.136,5.4a3.9,3.9,0,0,0-.425-2.141,3.1,3.1,0,0,0-1.339-1.282,4.132,4.132,0,0,0-1.848-.42,3.86,3.86,0,0,0-2.678.977,3.92,3.92,0,0,0-1.168,2.866Zm1.953-.125a5.719,5.719,0,0,1-.084,1.048H834.08a4.014,4.014,0,0,0,1.137,2.961,3.727,3.727,0,0,0,2.623.987,3.822,3.822,0,0,0,2.348-.7,2.91,2.91,0,0,0,1.159-1.878h2.06a4.808,4.808,0,0,1-.946,2.14,4.874,4.874,0,0,1-1.9,1.47,6.359,6.359,0,0,1-2.634.524,6.054,6.054,0,0,1-2.975-.714,5.051,5.051,0,0,1-2.028-2.046,7.1,7.1,0,0,1,0-6.289,5.06,5.06,0,0,1,2.028-2.057,6.078,6.078,0,0,1,2.975-.714,5.939,5.939,0,0,1,2.964.714,4.949,4.949,0,0,1,1.934,1.911A5.344,5.344,0,0,1,843.492,2785.5Zm-21.351,4.68a6.223,6.223,0,0,0,4.482-1.489,5.548,5.548,0,0,0,1.552-4.2,5.605,5.605,0,0,0-1.541-4.208,6.18,6.18,0,0,0-4.492-1.5h-2.678v11.4Zm8.01-5.689a8.03,8.03,0,0,1-.914,3.916,6.233,6.233,0,0,1-2.687,2.582,9.212,9.212,0,0,1-4.26.914h-4.76v-14.8h4.76a9.4,9.4,0,0,1,4.26.893,6.1,6.1,0,0,1,2.687,2.562A8.076,8.076,0,0,1,830.151,2784.489Z" transform="translate(-770.646 -2776.365)"/>
    </g>
  </g>
</svg>
