<?xml version="1.0" encoding="utf-8"?>
<!-- Generator: Adobe Illustrator 25.3.1, SVG Export Plug-In . SVG Version: 6.00 Build 0)  -->
<svg version="1.2" baseProfile="tiny" id="Capa_1" xmlns="http://www.w3.org/2000/svg" xmlns:xlink="http://www.w3.org/1999/xlink"
	 x="0px" y="0px" viewBox="0 0 312.6 138.9" overflow="visible" xml:space="preserve">
<g id="Grupo_34" transform="translate(-0.285 -0.043)">
	<g id="Grupo_390" transform="translate(28.285 45.043)">
		<path id="Trazado_601" fill="#C3C18D" d="M55.1,9.9H3.2c-1,0-1.9-0.8-1.9-1.8c0,0,0,0,0,0V1.8C1.3,0.8,2.2,0,3.2,0h51.9
			c1,0,1.9,0.8,1.9,1.8c0,0,0,0,0,0v6.2C57,9.1,56.1,9.9,55.1,9.9C55.1,9.9,55.1,9.9,55.1,9.9z"/>
		<path id="Trazado_602" fill="#C3C18D" d="M57,30v15.8c0,0.7-0.3,1.3-0.8,1.8l-0.1,0.1L56,47.8c-0.5,0.3-1.1,0.5-1.7,0.5h-0.3
			c-0.3,0-0.5-0.1-0.8-0.2l-0.5-0.2l-0.1-0.1L28.5,37.1L4.4,47.9C4,48.2,3.5,48.3,3,48.3H2.6c-1.4,0-2.6-1.1-2.6-2.5V30l28.5-13.9
			L57,30z"/>
		<image width="30" height="33" id="Trazado_603" xlink:href="AB638325.png"  transform="matrix(1 0 0 1 28 15.922)">
		</image>
		<path id="Trazado_604" fill="#C3C18D" d="M97.2,21.8h-6.3v10.4c0,2.2,1.2,2.9,3.2,2.9c0.6,0.1,1.2,0,1.7-0.2V38
			c-0.7,0.2-1.5,0.3-2.2,0.2c-3.7,0-6.3-1.9-6.3-5.8V21.5H83v-2.9h3.9v-3.9l3.9-1.9v5.8h7.1L97.2,21.8z"/>
		<path id="Trazado_605" fill="#C3C18D" d="M111.3,22.5c-0.2,0-1-0.2-1.5-0.2c-2.7,0-5.4,1.2-5.4,5.8v10h-3.9V18.6h4.1v3.9
			c0.7-2.9,2.9-4.1,5.6-4.1c0.5,0,1.5,0.2,2,0.2L111.3,22.5z"/>
		<path id="Trazado_606" fill="#C3C18D" d="M128.9,38v-2.4c-1,1.7-2.7,2.9-6.1,2.9c-4.4,0-7.6-2.7-7.6-7V18.6h3.9v12.6
			c0,1.9,1.2,4.1,4.6,4.1c3.2,0,4.6-2.2,4.6-4.1V18.6h3.9V38H128.9z"/>
		<path id="Trazado_607" fill="#C3C18D" d="M142.6,38.3c-1.9,0.1-3.8-0.4-5.4-1.5l-0.7-3.9c1.7,1.4,3.9,2.2,6.1,2.2
			c1.7,0,2.9-1,2.9-2.2c0-1.5-1-2.2-2.7-2.7c-3.9-1.5-6.1-3.2-6.1-6.3s2.7-5.6,6.6-5.6c1.8,0,3.5,0.4,5.1,1.2l-0.7,3.4
			c-1.3-0.8-2.8-1.2-4.4-1.2c-1.7,0-2.7,1-2.7,2.2s1,1.7,2.7,2.4c3.9,1.5,6.1,3.2,6.1,6.6C149.6,35.8,147.2,38.3,142.6,38.3z"/>
		<path id="Trazado_608" fill="#C3C18D" d="M165.5,21.8h-6.3v10.4c0,2.2,1.2,2.9,3.2,2.9c0.6,0.1,1.2,0,1.7-0.2V38
			c-0.7,0.2-1.5,0.3-2.2,0.2c-3.7,0-6.3-1.9-6.3-5.8V21.5h-3.9v-2.9h3.9v-3.9l3.9-1.9v5.8h7.1L165.5,21.8z"/>
		<path id="Trazado_609" fill="#C3C18D" d="M192.1,11.3c-0.9-0.5-1.9-0.7-2.9-0.7c-3.2,0-4.6,1.9-4.6,5.3v2.4h6.3l-0.7,3.4h-5.6V38
			h-3.9V21.5h-3.4v-2.9h3.4v-2.7c0-5.6,3.2-8.5,8.3-8.5c1.3,0,2.7,0.2,3.9,0.7L192.1,11.3z"/>
		<path id="Trazado_610" fill="#C3C18D" d="M207.5,38v-2.4c-1,1.7-2.7,2.9-6.1,2.9c-4.4,0-7.6-2.7-7.6-7V18.6h3.9v12.6
			c0,1.9,1.2,4.1,4.6,4.1c3.2,0,4.6-2.2,4.6-4.1V18.6h3.9V38H207.5z"/>
		<path id="Trazado_611" fill="#C3C18D" d="M229.2,38V25.4c0-1.9-1.2-4.1-4.6-4.1c-3.2,0-4.6,2.2-4.6,4.1V38H216V18.6h3.4V21
			c1-1.7,2.7-2.9,6.1-2.9c4.4,0,7.6,2.7,7.6,7V38L229.2,38z"/>
		<path id="Trazado_612" fill="#C3C18D" d="M252.6,38v-2.2c-1.4,1.8-3.6,2.8-5.9,2.7c-4.4,0-9.5-3.4-9.5-10.2
			c-0.2-5.4,4-10,9.4-10.2c0.2,0,0.4,0,0.6,0c1.9,0,3.8,0.6,5.4,1.7V7.4h3.9V38L252.6,38z M252.4,23.5c-1.3-1.3-3-2.1-4.9-1.9
			c-3.4,0-6.3,2.7-6.3,6.8s2.9,6.8,6.3,6.8c1.9,0,3.7-0.9,4.9-2.4V23.5z"/>
	</g>
</g>
</svg>
