<?xml version="1.0" encoding="utf-8"?>
<!-- Generator: Adobe Illustrator 25.3.1, SVG Export Plug-In . SVG Version: 6.00 Build 0)  -->
<svg version="1.2" baseProfile="tiny" id="Grupo_260"
	 xmlns="http://www.w3.org/2000/svg" xmlns:xlink="http://www.w3.org/1999/xlink" x="0px" y="0px" viewBox="0 0 312.6 138.9"
	 overflow="visible" xml:space="preserve">
<g id="Grupo_259" transform="translate(60.03 39.317)">
	<g id="Grupo_258">
		<g id="Grupo_257" transform="translate(0 22.417)">
			<path id="Trazado_182" fill="#032854" d="M7.5,0c2.8,0,5.6,0.4,8.2,1.4c2.3,0.9,4.4,2.2,6.2,3.9c1.7,1.6,3.1,3.6,3.9,5.9
				c1.8,4.7,1.8,9.9,0,14.7C25,28,23.7,30,22,31.6c-1.8,1.7-3.9,3-6.2,3.8c-2.7,0.9-5.5,1.4-8.3,1.4h-16V0H7.5z M-3.9,4.2v28.3H7.5
				c2.2,0,4.3-0.3,6.4-1.1c1.7-0.6,3.3-1.6,4.7-2.9c1.3-1.3,2.2-2.8,2.8-4.5c0.7-1.8,1-3.7,1-5.7c0-1.9-0.3-3.9-1-5.7
				c-0.6-1.7-1.6-3.2-2.9-4.5c-1.3-1.3-2.9-2.3-4.7-2.9c-2-0.7-4.1-1.1-6.3-1.1L-3.9,4.2z"/>
			<path id="Trazado_183" fill="#032854" d="M33.8,8.3h27.1v4.1H38.2v7.2h14.9v4.1H38.2v9h23.9v4.1H33.8V8.3z"/>
			<path id="Trazado_184" fill="#032854" d="M69.9,8.3h4.4v24.4h21.5v4.1h-26V8.3z"/>
			<g id="Grupo_256" transform="translate(109.67 7.597)">
				<path id="Trazado_185" fill="#032854" d="M19.8,20.9c0,1.3-0.3,2.5-0.9,3.6c-0.6,1.2-1.5,2.2-2.5,3c-1.2,0.9-2.6,1.6-4.1,2
					c-1.8,0.5-3.7,0.8-5.5,0.8c-2.7,0-5.5-0.4-8.1-1.2c-2.6-0.9-5-2.2-7.2-3.8l-0.2-0.1l2.3-3.4l0.2,0.1c1.9,1.5,4.1,2.7,6.4,3.6
					c2.1,0.8,4.3,1.2,6.5,1.2c1.3,0,2.5-0.1,3.7-0.4c1-0.2,1.9-0.7,2.8-1.2c0.7-0.5,1.3-1.1,1.7-1.8c0.4-0.7,0.6-1.5,0.6-2.2
					c0-1.3-0.6-2.5-1.6-3.2c-1.4-1-3.2-1.6-5-1.6c-1.2-0.1-2.3-0.2-3.5-0.3c-1.1-0.1-2.2-0.2-3.2-0.3c-1-0.1-1.9-0.2-2.8-0.4
					c-0.9-0.2-1.7-0.5-2.5-0.8c-2.8-1.3-4.3-3.4-4.3-6.1C-7.3,7-7,5.9-6.5,4.9c0.6-1,1.4-1.9,2.3-2.6C-3,1.6-1.8,1-0.5,0.6
					C1,0.2,2.6,0,4.2,0c2.5,0,4.9,0.4,7.3,1.2c2.4,0.8,4.7,2,6.7,3.5l0.2,0.1L16,8.1L15.8,8C12.6,5.3,8.5,3.8,4.2,3.8
					C2.4,3.7,0.5,4.1-1.1,5C-2.2,5.6-3,6.7-3.1,7.9c0,1,0.5,1.8,1.3,2.4c0.6,0.5,1.3,0.8,2.1,1c0.9,0.2,1.8,0.4,2.7,0.5
					c1,0.1,2.1,0.2,3.3,0.2c1.2,0.1,2.4,0.2,3.8,0.3c2.6,0.2,5.2,1.2,7.2,2.9C18.9,16.6,19.9,18.7,19.8,20.9z"/>
			</g>
			<path id="Trazado_186" fill="#032854" d="M140.8,8.4v18.2c0,1.2,0.1,2.3,0.5,3.4c0.3,0.9,0.8,1.6,1.6,2.1c0.9,0.6,2,1,3,1.1
				c3.2,0.4,6.4,0.4,9.6,0c1.1-0.1,2.1-0.5,3-1.1c0.7-0.5,1.3-1.3,1.6-2.1c0.3-1.1,0.5-2.3,0.5-3.4V8.4h4.4v19.4
				c0,3.6-1.1,6.1-3.4,7.6c-2.3,1.5-5.9,2.3-11,2.3c-5.1,0-8.7-0.8-10.9-2.3c-2.2-1.5-3.3-4.1-3.3-7.6V8.4H140.8z"/>
			<path id="Trazado_187" fill="#032854" d="M185.3,8.3c2.2,0,4.5,0.3,6.6,1.1c1.8,0.7,3.5,1.7,5,3c1.4,1.3,2.4,2.8,3.1,4.5
				c0.7,1.8,1.1,3.7,1.1,5.7c0,1.9-0.3,3.9-1,5.7c-0.7,1.7-1.7,3.2-3.1,4.5c-1.4,1.3-3.1,2.3-5,2.9c-2.2,0.7-4.4,1.1-6.7,1.1h-12.9
				V8.3L185.3,8.3z M176.9,12.4v20.3h8.4c3.6,0,6.4-0.9,8.3-2.8c1.9-1.9,2.9-4.6,2.8-7.3c0-1.4-0.2-2.7-0.8-4
				c-0.5-1.2-1.3-2.3-2.2-3.2c-1-0.9-2.2-1.7-3.5-2.1c-1.5-0.5-3.1-0.8-4.6-0.8L176.9,12.4z"/>
		</g>
		<path id="Trazado_188" fill="#032854" d="M149.5,3.9c1.1-0.1,2.3,0.3,3.2,1c0.8,0.7,1.3,1.7,1.5,2.7h-1.8
			c-0.1-0.7-0.4-1.3-0.9-1.7c-0.5-0.5-1.2-0.7-2-0.7c-0.6,0-1.2,0.1-1.6,0.5c-0.4,0.3-0.6,0.8-0.6,1.3c0,0.4,0.1,0.7,0.4,1
			c0.3,0.3,0.6,0.5,1,0.6c0.5,0.2,1.1,0.3,1.6,0.4c0.7,0.2,1.4,0.4,2.1,0.6c0.5,0.2,1,0.5,1.4,1c0.4,0.5,0.6,1.2,0.6,1.8
			c0,0.9-0.4,1.7-1.1,2.3c-0.8,0.6-1.8,0.9-2.9,0.9c-1.2,0.1-2.4-0.3-3.4-1c-0.9-0.7-1.4-1.7-1.6-2.8h1.9c0.1,0.7,0.4,1.3,0.9,1.7
			c0.6,0.5,1.4,0.7,2.2,0.7c0.6,0,1.1-0.1,1.6-0.5c0.4-0.3,0.6-0.8,0.6-1.3c0-0.4-0.1-0.8-0.4-1.1c-0.3-0.3-0.6-0.5-1-0.6
			c-0.5-0.2-1.1-0.3-1.6-0.4c-0.7-0.2-1.4-0.3-2.1-0.6c-0.5-0.2-1-0.5-1.3-0.9c-0.4-0.5-0.6-1.1-0.5-1.7c0-0.9,0.4-1.8,1.1-2.3
			C147.4,4.1,148.4,3.8,149.5,3.9L149.5,3.9z M137.4,5.5c-0.7,0-1.3,0.2-1.9,0.5c-0.6,0.3-1.1,0.8-1.4,1.4c-0.7,1.5-0.7,3.2,0,4.7
			c0.3,0.6,0.8,1.1,1.4,1.4c1.2,0.6,2.6,0.6,3.8,0c0.6-0.3,1.1-0.8,1.4-1.4c0.7-1.5,0.7-3.2,0-4.7c-0.3-0.6-0.8-1.1-1.4-1.4
			C138.8,5.7,138.1,5.5,137.4,5.5L137.4,5.5z M137.4,3.9c1,0,2.1,0.2,3,0.7c0.9,0.5,1.6,1.2,2.1,2.1c1,2,1,4.3,0,6.3
			c-0.5,0.9-1.2,1.6-2.1,2c-1.9,1-4.1,1-6,0c-0.9-0.5-1.6-1.2-2.1-2c-1-2-1-4.3,0-6.3c0.5-0.9,1.2-1.6,2.1-2.1
			C135.4,4.1,136.4,3.8,137.4,3.9L137.4,3.9z M129,0v15.5h-1.9V0H129z M124,0v15.5h-1.9V0H124z M113.7,5.5c-0.7,0-1.3,0.2-1.9,0.5
			c-0.6,0.3-1.1,0.8-1.4,1.4c-0.7,1.5-0.7,3.2,0,4.7c0.3,0.6,0.8,1.1,1.4,1.4c1.2,0.6,2.6,0.6,3.8,0c0.6-0.3,1.1-0.8,1.4-1.4
			c0.7-1.5,0.7-3.2,0-4.7c-0.3-0.6-0.8-1.1-1.4-1.4C115,5.7,114.4,5.5,113.7,5.5L113.7,5.5z M113.7,3.9c1,0,2.1,0.2,3,0.7
			c0.9,0.5,1.6,1.2,2.1,2.1c1,2,1,4.3,0,6.3c-0.5,0.9-1.2,1.6-2.1,2c-1.9,1-4.1,1-6,0c-0.9-0.5-1.6-1.2-2.1-2c-1-2-1-4.3,0-6.3
			c0.5-0.9,1.2-1.6,2.1-2.1C111.6,4.1,112.7,3.8,113.7,3.9L113.7,3.9z M102.2,6.3c0.4-0.8,0.9-1.4,1.7-1.9c0.8-0.5,1.7-0.7,2.6-0.7
			v2.1h-0.6c-1,0-1.9,0.3-2.7,0.8c-0.8,0.7-1.1,1.7-1,2.7v6.1h-1.9V4h1.9L102.2,6.3z M94,6.3c0.4-0.8,0.9-1.4,1.7-1.9
			c0.8-0.5,1.7-0.7,2.6-0.7v2.1h-0.6c-1,0-1.9,0.3-2.7,0.8c-0.8,0.7-1.1,1.7-1,2.7v6.1h-1.9V4H94L94,6.3z M83.1,5.6
			c-1.1,0-2.1,0.4-2.9,1.1c-1.4,1.8-1.4,4.4,0,6.2c0.7,0.8,1.8,1.2,2.9,1.1c0.7,0,1.4-0.2,2-0.5c0.6-0.3,1.1-0.9,1.4-1.5
			c0.4-0.7,0.5-1.4,0.5-2.2c0-0.8-0.2-1.5-0.5-2.2c-0.3-0.6-0.8-1.1-1.4-1.5C84.5,5.7,83.8,5.5,83.1,5.6L83.1,5.6z M82.6,3.9
			c1,0,2,0.3,2.9,0.8c0.8,0.5,1.4,1.3,1.6,2.2V4H89v11.5h-1.9v-2.9c-0.3,0.9-0.9,1.7-1.6,2.2c-0.8,0.6-1.9,0.9-2.9,0.8
			c-1,0-1.9-0.2-2.8-0.7c-0.8-0.5-1.5-1.2-1.9-2c-0.9-2-0.9-4.3,0-6.3c0.4-0.9,1.1-1.6,1.9-2.1C80.6,4.1,81.6,3.8,82.6,3.9L82.6,3.9
			z M70.5,3.9c1.1-0.1,2.3,0.3,3.2,1c0.8,0.7,1.3,1.7,1.5,2.7h-1.8c-0.1-0.7-0.4-1.3-0.9-1.7c-0.5-0.5-1.3-0.7-2-0.7
			c-0.6,0-1.2,0.1-1.6,0.5c-0.4,0.3-0.6,0.8-0.6,1.3c0,0.4,0.1,0.7,0.4,1c0.3,0.3,0.6,0.5,1,0.6C70,8.8,70.5,9,71.2,9.1
			c0.7,0.2,1.4,0.4,2.1,0.6c0.5,0.2,1,0.5,1.4,1c0.4,0.5,0.6,1.2,0.6,1.8c0,0.9-0.4,1.7-1.1,2.3c-0.8,0.6-1.8,0.9-2.9,0.9
			c-1.2,0.1-2.4-0.3-3.4-1C67,14,66.4,13,66.3,11.9h1.9c0.1,0.7,0.4,1.3,0.9,1.7c0.6,0.5,1.4,0.7,2.2,0.7c0.6,0,1.1-0.1,1.6-0.5
			c0.4-0.3,0.6-0.8,0.6-1.3c0-0.4-0.1-0.8-0.4-1.1c-0.3-0.3-0.6-0.5-1-0.6c-0.5-0.2-1.1-0.3-1.6-0.4c-0.7-0.2-1.4-0.3-2.1-0.6
			c-0.5-0.2-1-0.5-1.3-0.9c-0.4-0.5-0.6-1.1-0.5-1.7c0-0.9,0.4-1.8,1.1-2.3C68.4,4.1,69.4,3.8,70.5,3.9L70.5,3.9z M62.3,9.3
			c0.1-0.7-0.1-1.5-0.4-2.1c-0.3-0.6-0.8-1-1.3-1.3c-0.6-0.3-1.2-0.4-1.8-0.4c-1,0-1.9,0.3-2.7,1c-0.8,0.8-1.2,1.8-1.2,2.9H62.3z
			 M64.3,9.1c0,0.4,0,0.7-0.1,1h-9.3c0,1.1,0.4,2.2,1.1,3c0.7,0.7,1.7,1,2.6,1c0.8,0,1.7-0.2,2.3-0.7c0.6-0.4,1-1.1,1.2-1.9h2.1
			c-0.1,0.8-0.5,1.5-0.9,2.1c-0.5,0.6-1.2,1.1-1.9,1.5c-0.8,0.4-1.7,0.5-2.6,0.5c-1,0-2.1-0.2-3-0.7c-0.9-0.5-1.6-1.2-2-2
			c-1-2-1-4.3,0-6.3c0.5-0.9,1.2-1.6,2-2.1c0.9-0.5,1.9-0.7,3-0.7c1,0,2.1,0.2,3,0.7c0.8,0.4,1.5,1.1,1.9,1.9
			C64,7.3,64.3,8.2,64.3,9.1L64.3,9.1z M42.9,13.8c1.6,0.1,3.2-0.4,4.5-1.5c1.1-1.1,1.6-2.6,1.6-4.2C49,6.6,48.5,5,47.4,3.9
			c-1.2-1.1-2.9-1.6-4.5-1.5h-2.7v11.4L42.9,13.8z M50.9,8.1c0,1.4-0.3,2.7-0.9,3.9c-0.6,1.1-1.5,2-2.7,2.6c-1.3,0.6-2.8,1-4.3,0.9
			h-4.8V0.7h4.8c1.5,0,2.9,0.3,4.3,0.9c1.1,0.6,2.1,1.4,2.7,2.6C50.6,5.4,51,6.8,50.9,8.1L50.9,8.1z"/>
	</g>
</g>
</svg>
