<svg id="Grupo_250" data-name="Grupo 250" xmlns="http://www.w3.org/2000/svg" width="312.57" height="138.922" viewBox="0 0 312.57 138.922">
  <defs>
    <style>
      .cls-1 {
        fill: #fff;
      }

      .cls-2 {
        fill: #c3c18d;
      }
    </style>
  </defs>
  <g id="Grupo_246" data-name="Grupo 246">
    <rect id="Rectángulo_140" data-name="Rectángulo 140" class="cls-1" width="312.57" height="138.922" rx="10"/>
  </g>
  <g id="Grupo_249" data-name="Grupo 249" transform="translate(53.531 42.691)">
    <g id="Grupo_247" data-name="Grupo 247" transform="translate(65.226)">
      <path id="Trazado_161" data-name="Trazado 161" class="cls-2" d="M458.7,2782.734l-2.435-.121v-4.348H474.7v6.974h-4.873l-.148-2.147h-4.653v4.664h6.746v4.906h-6.733v4.894h5.058l.139-2.078h4.855v6.909H456.321v-4.135l2.376-.227Z" transform="translate(-422.893 -2778.248)"/>
      <path id="Trazado_162" data-name="Trazado 162" class="cls-2" d="M439.978,2782.681h-2.334v-4.426h18.276v6.967h-4.855l-.159-2.112h-4.533v4.74h6.772v4.754H446.39v4.93h4.924l.166-2.007h4.883v6.89h-18.79v-4.141l2.405-.246Z" transform="translate(-437.573 -2778.255)"/>
      <path id="Trazado_163" data-name="Trazado 163" class="cls-2" d="M479.641,2785.98v-3.333l-2.023-.2v-4.182h8.026v9.863c0,2.67.07,5.341-.027,8.007-.052,1.487.157,2.53,2.009,2.21v4.251c-2.623-.645-5.633,1.323-7.651-1.868a6.814,6.814,0,0,1-7.936,1.589c-2.955-1.235-4.265-3.735-4.628-6.763-.625-5.225,1.3-9.062,5.126-10.406A7.749,7.749,0,0,1,479.641,2785.98Zm-6.522,7.906c.036,2.5,1.453,4.171,3.5,4.126s3.458-1.832,3.387-4.26c-.073-2.457-1.571-4.237-3.521-4.187S473.083,2791.481,473.118,2793.886Z" transform="translate(-414.228 -2778.25)"/>
      <path id="Trazado_164" data-name="Trazado 164" class="cls-2" d="M501.224,2800.14c-5.614.038-9.875-3.814-9.943-8.981-.07-5.328,4.1-9.3,9.8-9.331,5.674-.032,9.972,3.93,9.976,9.2C511.064,2796.182,506.832,2800.1,501.224,2800.14Zm-.05-13.439a4.151,4.151,0,0,0-3.98,4.321,3.971,3.971,0,1,0,7.933.034A4.151,4.151,0,0,0,501.174,2786.7Z" transform="translate(-395.387 -2775.448)"/>
      <path id="Trazado_165" data-name="Trazado 165" class="cls-2" d="M510.94,2795.279l2.078.252v3.966H502.63v-3.99l2.237-.229c0-2.6.118-5.185-.091-7.74-.046-.57-1.246-1.045-2.184-1.772v-3.51a38.343,38.343,0,0,1,6.2.107c.85.141,1.5,1.468,2.3,2.319,1.207-1.394,2.759-3.153,5.549-2.676v5.383C511.5,2788.087,510.035,2790.111,510.94,2795.279Z" transform="translate(-386.501 -2775.372)"/>
      <path id="Trazado_166" data-name="Trazado 166" class="cls-2" d="M486.542,2788.468l-2.218-.221v-3.957l2.366-.366v-4.456h5.744v4.64h3.476v4.155l-3.442.175c0,2.08-.061,4.107.018,6.13.066,1.691.621,2.019,3.778,2.55v4.8a39.154,39.154,0,0,1-5.646-.868c-2.719-.828-4.007-2.939-4.067-5.751C486.5,2793.056,486.542,2790.814,486.542,2788.468Z" transform="translate(-400.851 -2777.303)"/>
      <path id="Trazado_167" data-name="Trazado 167" class="cls-2" d="M448.56,2778.258h8.176v3.039c0,4.706.032,9.415-.018,14.124-.018,1.574.054,2.917,2.212,2.523v4.4c-5.058,1.248-8.047-.954-8.108-6.024-.055-4.491-.012-8.982-.012-13.565l-2.25-.363Z" transform="translate(-428.943 -2778.253)"/>
      <path id="Trazado_168" data-name="Trazado 168" class="cls-2" d="M479.245,2799.353v-4.05l1.962-.127v-8.761l-2.071-.3v-3.975H487.2V2795.1l2.075.225v4.032Z" transform="translate(-404.926 -2775.206)"/>
      <path id="Trazado_169" data-name="Trazado 169" class="cls-2" d="M486.058,2778.271v4.426h-5.589v-4.426Z" transform="translate(-403.879 -2778.242)"/>
    </g>
    <path id="Trazado_170" data-name="Trazado 170" class="cls-2" d="M459.588,2814.316v4.13c-5.29,1.153-8.042-1.014-8.09-6.349-.039-4.289-.023-8.578-.043-12.868,0-.125-.112-.249-.207-.446l-2.048-.3v-4.118h8.217v13.54c0,1.125,0,2.25,0,3.375C457.426,2813.682,457.428,2813.682,459.588,2814.316Z" transform="translate(-363.214 -2765.599)"/>
    <path id="Trazado_171" data-name="Trazado 171" class="cls-2" d="M473.356,2810.6c-.114-1.943-.023-3.9-.023-5.969H476.9v-.277l.084-.005v-4.014l-.084-.005v-.505h-3.639v-4.272h-5.6v4.272h-2.516v4.807h2.221l.154.023c0,1.889,0,3.7,0,5.513,0,5.769,3.848,8.715,9.645,7.338v-4.358C475.377,2812.944,473.494,2812.892,473.356,2810.6Z" transform="translate(-350.691 -2764.672)"/>
    <path id="Trazado_172" data-name="Trazado 172" class="cls-2" d="M501.533,2811.344c0-2.873.139-5.535-.034-8.176-.239-3.666-2.628-5.317-6.235-5.158-4.019.177-4.821,1.512-5.349,2.041-.8-1.794-2.7-2.312-5.235-1.994l-.154-.007-2.63.137v4.54h1.784l.377.073v8.543h-1.893v4.278h.027v.005h9.961v-4.087h-.034v-.2h-1.675v-5.551c.052-.193.1-.384.159-.571.425-1.463,2.334-1.805,3.651-1.839,1.58-.041,1.473,1.554,1.475,2.753.009,3.148,0,6.3,0,9.486h8.094v-4.278Z" transform="translate(-337.532 -2762.771)"/>
    <path id="Trazado_173" data-name="Trazado 173" class="cls-2" d="M507.429,2806.465a17.237,17.237,0,0,0-3.96-1.435c-.782-.192-2.693-.251-2.693-1.4a.678.678,0,0,1,.021-.159l-.045-.027.064-.045c.2-.575,1.136-1.01,2.26-1.01a3.344,3.344,0,0,1,1.693.4c.5.3.571.68.73,1.209.077.261,3.816.11,3.817.105.411-3.142-.025-4.316-2.139-5.207a10.911,10.911,0,0,0-9.193.157,4.128,4.128,0,0,0-2.378,5.244,7.733,7.733,0,0,0,2.784,3.421,9.6,9.6,0,0,0,2.462,1.1c.7.235,1.4.487,2.1.739.509.185,1.287.419,1.287,1.1s-1.03,1.239-2.3,1.239c-.72,0-2.007-.191-2.255-1.021-.1-.327.025-.8-.3-1.01a1.489,1.489,0,0,0-.737-.116c-1.25-.07-2.5-.027-3.75-.027-.359,2.1-.252,3.821,1.555,5.048,2.864,1.946,8.353,2.026,11.286.116A4.771,4.771,0,0,0,507.429,2806.465Z" transform="translate(-327.447 -2762.78)"/>
    <g id="Grupo_248" data-name="Grupo 248" transform="translate(0 0.439)">
      <path id="Trazado_174" data-name="Trazado 174" class="cls-2" d="M415.292,2819.578c14.345-2.5,25.356-16.971,19.056-34.112a19.276,19.276,0,0,1,7.731,11.927,19.509,19.509,0,0,1-1.623,12.771,4.075,4.075,0,0,0-.23,2.446c.561,2.544,1.287,5.053,2.035,7.9-2.518-.671-4.794-1.2-7.015-1.9a4.436,4.436,0,0,0-3.707.407,18.834,18.834,0,0,1-14.716,1.257A15.245,15.245,0,0,1,415.292,2819.578Z" transform="translate(-389.849 -2773.03)"/>
      <path id="Trazado_175" data-name="Trazado 175" class="cls-2" d="M423.241,2778.5a21.935,21.935,0,0,0-19.869,12.642c-3.167,6.047-3.064,12.571.055,19.356a4.385,4.385,0,0,1,.223,2.623c-.636,2.786-1.444,5.533-2.287,8.662,2.841-.757,5.328-1.344,7.763-2.1a4.824,4.824,0,0,1,3.867.376c6.383,3.1,12.623,3.4,18.457.714a21.934,21.934,0,0,0-8.21-42.273Zm-.187,37.671a15.353,15.353,0,1,1,15.353-15.352A15.352,15.352,0,0,1,423.054,2816.172Z" transform="translate(-401.042 -2778.501)"/>
    </g>
    <path id="Trazado_176" data-name="Trazado 176" class="cls-2" d="M452.482,2794.633c-4.923-.382-9.9-.095-14.891-.095v4.11l2.5.138v15.2l-2.518.343v4.126h11.234v-4.185c-.882-.08-1.625-.149-2.4-.218v-3.464c1.851,0,3.6.132,5.326-.026,3.748-.349,6.283-3.4,6.462-7.582C458.379,2798.606,456.178,2794.919,452.482,2794.633Zm-.889,9.929c-1.036,2.076-3.262,1.275-5.2,1.368v-6.885c1.959.023,4.164-.632,5.2,1.369A5.226,5.226,0,0,1,451.593,2804.563Z" transform="translate(-372.347 -2765.546)"/>
    <path id="Trazado_177" data-name="Trazado 177" class="cls-2" d="M478.209,2808.213h10.7c.405-3.688-.161-6.83-3.192-8.854a8.728,8.728,0,0,0-9.038-.416c-3.521,1.693-4.83,4.765-4.751,8.473a8.6,8.6,0,0,0,5.883,8.188c3.994,1.381,7.66.583,11.165-1.811l-2.043-3.846C481.175,2812.125,478.8,2811.666,478.209,2808.213Zm2.8-6.3a3.022,3.022,0,0,1,3.021,3.021h-6.042A3.022,3.022,0,0,1,481.014,2801.908Z" transform="translate(-345.363 -2762.836)"/>
    <path id="Trazado_178" data-name="Trazado 178" class="cls-2" d="M518.566,2809.856c-5.176,2.357-7.64,1.916-8.82-1.639h10.813c.7-6.249-2.268-10.067-7.685-10.206-5.681-.146-9.5,3.844-9.188,9.588a8.3,8.3,0,0,0,5.421,7.822c4.087,1.646,7.9.823,11.6-1.593Zm-8.836-5.385.184-.46a3.017,3.017,0,0,1,5.714,1.357h-6.04A2.982,2.982,0,0,1,509.73,2804.47Z" transform="translate(-320.431 -2762.74)"/>
    <path id="Trazado_179" data-name="Trazado 179" class="cls-2" d="M471.811,2809.191a39.1,39.1,0,0,0-.066-5.053,6.038,6.038,0,0,0-3.3-5.271,11.547,11.547,0,0,0-11.691,1.562l1.891,3.6c4.815-2.2,6.687-2.014,7.154.345a73.05,73.05,0,0,0-7.558,2.182c-2.118.854-2.8,2.818-2.534,5.067a4.89,4.89,0,0,0,3.758,4.306,6.168,6.168,0,0,0,6.655-1.993c1.93,3.309,4.985,1.313,7.649,1.919V2811.7C471.783,2811.926,471.747,2810.666,471.811,2809.191Zm-5.649-.742-.082.687a4.232,4.232,0,0,1-.807,1.916c-1.521,1.9-4.453.841-3.771-1.513a2.327,2.327,0,0,1,1.827-1.486,12.061,12.061,0,0,1,2.857-.157C466.185,2808.077,466.176,2808.26,466.162,2808.448Z" transform="translate(-358.144 -2762.803)"/>
  </g>
</svg>
