<svg id="Grupo_271" data-name="Grupo 271" xmlns="http://www.w3.org/2000/svg" xmlns:xlink="http://www.w3.org/1999/xlink" width="312.57" height="138.922" viewBox="0 0 312.57 138.922">
  <defs>
    <style>
      .cls-1 {
        fill: none;
      }

      .cls-2 {
        fill: #fff;
      }

      .cls-3 {
        fill: #c3c18d;
      }

      .cls-4 {
        clip-path: url(#clip-path);
      }
    </style>
    <clipPath id="clip-path">
      <ellipse id="Elipse_20" data-name="Elipse 20" class="cls-1" cx="30.779" cy="30.779" rx="30.779" ry="30.779"/>
    </clipPath>
  </defs>
  <g id="Grupo_261" data-name="Grupo 261">
    <rect id="Rectángulo_143" data-name="Rectángulo 143" class="cls-2" width="312.57" height="138.922" rx="10"/>
  </g>
  <g id="Grupo_270" data-name="Grupo 270" transform="translate(44.213 38.683)">
    <g id="Grupo_266" data-name="Grupo 266">
      <ellipse id="Elipse_19" data-name="Elipse 19" class="cls-3" cx="30.779" cy="30.779" rx="30.779" ry="30.779"/>
      <g id="Grupo_265" data-name="Grupo 265">
        <g id="Grupo_264" data-name="Grupo 264" class="cls-4">
          <g id="Grupo_263" data-name="Grupo 263" transform="translate(-2.979 11.379)">
            <g id="Grupo_262" data-name="Grupo 262">
              <path id="Trazado_189" data-name="Trazado 189" class="cls-2" d="M1013.544,2832.305c-.557.089-1.129.087-1.744.128-.28-1.578-.579-3.078-.805-4.59a1.46,1.46,0,0,0-1.145-1.321c-1.378-.43-2.742-.914-4.09-1.432a1.479,1.479,0,0,1-.8-.719c-.614-1.6-1.155-3.23-1.762-4.969a15.017,15.017,0,0,1,1.469-.823,3.765,3.765,0,0,0,2.323-3.071,4.8,4.8,0,0,1,2.4-3.775,13.012,13.012,0,0,0,2.38-1.793,2.179,2.179,0,0,0,.63-1.289c.093-.98.029-1.976.029-3.058.421-.02.77-.049,1.12-.051,3.8-.017,7.6-.042,11.4-.028a1.444,1.444,0,0,1,.916.429c1.3,1.346,2.541,2.741,3.83,4.092a2.9,2.9,0,0,0,1.137.846,3.466,3.466,0,0,1,1.905,1.653,8.042,8.042,0,0,1,1.43,4.465c.036,1.618.293,3.232.459,4.9-.518.234-1.071.462-1.607.729-1,.5-1.155.853-.8,1.865.111.32.223.639.336.961a55.517,55.517,0,0,0,4.05-6.667c-.091-.966-.168-1.931-.28-2.894-.116-.994-.311-1.978-.457-2.889.911-.688,1.875-1.413,2.714-2.044.327.145.643.286.962.427.254-.9.477-1.806.663-2.733l-.132.116c-1.146-1.03-1.509-1.11-2.5-.025-1.23,1.346-2.334,1.51-4.119.811-2.5-.983-3.753-3.115-5.492-4.805-.114-.111-.061-.5.034-.7.468-1.009,1.036-1.975,1.443-3.007a2.194,2.194,0,0,0-.027-1.434c-.336-.916-.812-1.782-1.334-2.884,1.666.543,3.114,1.012,4.56,1.486.514.168,1.043.307,1.541.513.791.325,1.509.452,2.055-.412a.39.39,0,0,1,.295-.17,15.2,15.2,0,0,1,3.617.493,16,16,0,0,1,1.769.812,27.235,27.235,0,0,0-.518-3.382c-1.737-.089-3.492-.182-5.363-.279,1.028-1.967,2-3.813,3.021-5.774l.925.486a19.585,19.585,0,0,0-1.518-3.135c-.411.043-.734.4-1.362,1.191v-.879c0-.8,0-1.6,0-2.394-.7-.982-1.45-1.943-2.216-2.9,0,1.994,0,3.99.012,5.985a1.364,1.364,0,0,1-.625,1.27c-1.944,1.378-3.867,2.785-5.8,4.172a1.357,1.357,0,0,1-2.114-.6c-.841-1.734-1.714-3.455-2.53-5.2a1.5,1.5,0,0,0-1.716-.966c-2.551.252-5.11.453-7.667.635a1.875,1.875,0,0,1-1.093-.266c-1.732-1.154-3.448-2.33-5.135-3.548a1.477,1.477,0,0,0-1.752-.119c-1.034.557-2.057,1.15-3.139,1.6a1.73,1.73,0,0,0-1.155,1.895c.047,2.533,0,5.07.027,7.606a1.308,1.308,0,0,1-.63,1.262c-1.469,1-2.9,2.055-4.31,3.146a2.478,2.478,0,0,0-.75,1.15c-.323.992-.546,2.017-.827,3.089-.293-.123-.516-.2-.725-.309-2.694-1.414-5.392-2.825-8.079-4.255-1.118-.6-1.6-.479-2.187.624-.762,1.437-1.519,2.876-2.335,4.418-1.652-.564-3.25-1.087-4.826-1.671a1.416,1.416,0,0,1-.629-.7c-.7-1.393-1.371-2.794-2.044-4.2-.209,1.211-.489,2.411-.811,3.6,1.573,3.307,3.148,6.612,4.844,9.854.721,1.378,2.021,2.446,2.984,3.71a2.376,2.376,0,0,1,.566,1.5,9.284,9.284,0,0,0,2.091,7.222c1.018,1.27.65,2.832.875,4.266.039.248.061.5.093.75.778.3,1.562.578,2.346.853l-.012-.116a17.153,17.153,0,0,1-.227-2.789,8.81,8.81,0,0,0-2.1-5.717,3.894,3.894,0,0,1-.755-2.959c1.389.6,2.751,1.193,4.117,1.772a7.81,7.81,0,0,0,1.439.528c1.518.3,2.2,1.448,2.78,2.689a1.279,1.279,0,0,1-.005.844c-.275.859-.605,1.7-.93,2.591.525.341,1.419.448.968,1.492l1.2.2c-.578,1.025-1.132,2.01-1.694,2.984.76.214,1.534.4,2.3.587,1.089-1.951,2.205-3.942,3.4-6.078.482,2.01,1.876,1.791,3.21,1.784.864-.006,1.8-.271,2.526.524.127.136.464.07.7.118,1.166.246,2.348.441,3.483.786a1.45,1.45,0,0,1,.7.989c.271,1.311.471,2.635.669,3.96,2.087.141,4.174.236,6.265.307-.134-.177-.279-.348-.4-.53A1.76,1.76,0,0,0,1013.544,2832.305Zm21.9-40.718.148.118c-.743,1.416-1.487,2.832-2.282,4.344-.911-.316-1.723-.595-2.719-.938ZM980.1,2808.212l-1.518-3.064c1,.31,1.8.561,2.727.846C980.889,2806.766,980.534,2807.416,980.1,2808.212Zm30.1-.389a1.44,1.44,0,0,1-.514.852c-.928.76-1.923,1.445-2.85,2.207-.6.493-1.118,1.075-1.664,1.607-.25-1.076-.555-2.335-.823-3.6a.6.6,0,0,1,.232-.5c1.773-.948,3.56-1.871,5.346-2.8.041-.021.113.018.3.053A21.12,21.12,0,0,1,1010.2,2807.823Zm10.924-13.225c-.039-1.688-.011-3.377-.011-5.052.527-.316.832-.216,1.091.329,1.094,2.314,2.237,4.606,3.328,6.924a1.7,1.7,0,0,1,.091,1.03c-.366,1.582-.793,3.152-1.178,4.732-.114.47-.3.7-.848.692-3.562-.027-7.124-.014-10.684-.016-.145,0-.289-.036-.545-.07.395-1.307.743-2.58,1.187-3.819.1-.271.521-.47.836-.615,1.887-.868,3.776-1.733,5.687-2.551A1.5,1.5,0,0,0,1021.121,2794.6Zm-34.753,6.66,5.689,2.994-.03.2c-1.357,0-2.714-.043-4.067.016-.85.037-1.691.239-2.539.34a5.11,5.11,0,0,1-.886-.07Zm4.235,16.34c-.93-.575-2.107-.742-3.075-1.269a5.516,5.516,0,0,1-3.012-3.476c-.312-1.255-.582-2.52-.916-3.77-.136-.509-.018-.81.475-.973a.506.506,0,0,0,.161-.08c2.28-1.8,4.971-1.246,7.551-1.32h4.432a2.275,2.275,0,0,1,.539.023c1.216.311,1.432.7,1.036,1.891-.729,2.2-1.411,4.415-2.244,6.573-.25.646-.95,1.111-1.421,1.678C993.143,2818.059,992.1,2818.525,990.6,2817.6Zm5.126,7.481c-.145.166-.432.209-.88.41a5.325,5.325,0,0,1,.282-.949,3.135,3.135,0,0,0-.452-3.824,4,4,0,0,1-.428-.987l.346-.218c.318.318.659.618.946.961a6.47,6.47,0,0,1,.516.85C996.972,2822.865,996.906,2823.735,995.73,2825.079Zm4.107-1.678c-.277-.573.305-1.923,1.305-2.876.489,1.359.957,2.662,1.453,4.042C1000.6,2824.849,1000.515,2824.808,999.836,2823.4Zm1.368-6.531c-.237.115-.566.266-.634.471a2.458,2.458,0,0,1-1.166,1.557c-.507.291-.764,1.018-1.139,1.562-.582-.862-1.143-1.692-1.687-2.5,1.839-2.352,2.1-5.455,3.251-8.188.291-.691.475-1.427.7-2.146a1.354,1.354,0,0,0-.784-1.93c-.532-.282-1.068-.557-1.6-.839-.105-.057-.2-.134-.4-.272.3-1.111.566-2.188.889-3.253a1.451,1.451,0,0,1,.52-.677c1.45-1.079,2.9-2.155,4.392-3.18a1.846,1.846,0,0,0,.909-1.717c-.044-2.564,0-5.128-.03-7.694a1.026,1.026,0,0,1,.618-1.056c2.16-1.148,2.226-1.149,4.414.427,1,.724,1.982,1.48,3.026,2.135a2.785,2.785,0,0,0,1.5.432c1.591-.057,3.18-.225,4.819-.354,0,1.471.023,2.882-.027,4.289-.007.2-.328.47-.564.579-1.914.882-3.85,1.714-5.756,2.61a1.7,1.7,0,0,0-.855.841c-.573,1.7-1.062,3.432-1.541,5.022-1.207.593-2.417,1.164-3.607,1.775-1.259.648-2.489,1.351-3.75,2a1.371,1.371,0,0,0-.8,1.766c.548,2.191,1.025,4.4,1.566,6.592.134.544.046.825-.521,1A13.549,13.549,0,0,0,1001.2,2816.87Z" transform="translate(-974.038 -2782.384)"/>
            </g>
          </g>
        </g>
      </g>
    </g>
    <g id="Grupo_269" data-name="Grupo 269" transform="translate(74.082 14.807)">
      <g id="Grupo_267" data-name="Grupo 267">
        <path id="Trazado_190" data-name="Trazado 190" class="cls-3" d="M1042.85,2806.863H1036.6a8.278,8.278,0,0,1-.5-1.937c-1.468,1.687-3.4,2.5-7.342,2.5-7.437,0-11.561-4.687-11.561-11.249,0-5.967,3.562-11.874,13.466-11.874,6.656,0,11.374,2.782,12.186,7.406h-9.592a2.364,2.364,0,0,0-2.625-2.032c-2.719,0-3.312,3.031-3.312,5.969,0,3.437.937,6.187,3.53,6.187,2.375,0,2.782-1.657,2.782-2.344v-.125h-3.062V2793.9h12.279Z" transform="translate(-1017.198 -2784.303)"/>
        <path id="Trazado_191" data-name="Trazado 191" class="cls-3" d="M1043.077,2798.836v7.779h-9.342v-22h15.153c5.969,0,8.781,2.813,8.781,6.25a5.441,5.441,0,0,1-3.812,5.406c1.937.812,3.187,2.312,3.187,5.592v1.312a15.612,15.612,0,0,0,.343,3.437h-9.217a13.775,13.775,0,0,1-.469-4.4v-.782c0-2.125-.53-2.593-2.75-2.593Zm0-5.031h2.749c1.095,0,2.344-.406,2.344-1.812,0-1.218-.937-1.843-2.407-1.843h-2.687Z" transform="translate(-1004.209 -2784.056)"/>
        <path id="Trazado_192" data-name="Trazado 192" class="cls-3" d="M1058.013,2803.49l-.782,3.125h-9.374l7.561-22h12.656l8.249,22h-10.249l-.845-3.125Zm5.437-5.937c-.562-2.375-1.187-4.874-1.782-6.937h-.25c-.437,2.063-1.187,4.937-1.687,6.937Z" transform="translate(-993.116 -2784.056)"/>
        <path id="Trazado_193" data-name="Trazado 193" class="cls-3" d="M1070.248,2806.615l-8.094-22h10.218l2.5,9.281c.843,3.093,1.125,4.563,1.468,6.313h.062c.345-1.625.625-3.095,1.437-6.187l2.25-9.406h10.343l-8.249,22Z" transform="translate(-981.886 -2784.056)"/>
        <path id="Trazado_194" data-name="Trazado 194" class="cls-3" d="M1086.538,2803.49l-.782,3.125h-9.374l7.561-22H1096.6l8.249,22H1094.6l-.843-3.125Zm5.437-5.937c-.562-2.375-1.187-4.874-1.782-6.937h-.25c-.437,2.063-1.187,4.937-1.687,6.937Z" transform="translate(-970.71 -2784.056)"/>
      </g>
      <g id="Grupo_268" data-name="Grupo 268" transform="translate(1.818 29.493)">
        <path id="Trazado_195" data-name="Trazado 195" class="cls-3" d="M1024.455,2804.923c0-1.182.007-2.384.045-3.111h-.009c-.332,1.162-1.132,3.37-1.973,5.776h-1.232c-.646-2.066-1.534-4.574-1.893-5.772h-.009c.054.773.105,2.11.105,3.246v2.527h-1.273V2800.9h2.027c.752,2.11,1.535,4.222,1.735,5.042h.009c.295-.982,1.075-3.034,1.787-5.042h2.039v6.688h-1.359Z" transform="translate(-1018.216 -2800.759)"/>
        <path id="Trazado_196" data-name="Trazado 196" class="cls-3" d="M1030.415,2804.285a3.387,3.387,0,0,1-3.621,3.507,3.35,3.35,0,0,1-3.544-3.5,3.434,3.434,0,0,1,3.6-3.468A3.376,3.376,0,0,1,1030.415,2804.285Zm-5.681-.02a2.148,2.148,0,0,0,2.133,2.413,2.389,2.389,0,1,0-2.133-2.413Z" transform="translate(-1014.262 -2800.821)"/>
        <path id="Trazado_197" data-name="Trazado 197" class="cls-3" d="M1030.3,2807.589l-2.789-6.688h1.552l1.287,3.308c.482,1.241.682,1.875.8,2.285h.018c.105-.366.266-.789.836-2.319l1.289-3.275h1.5l-2.835,6.688Z" transform="translate(-1010.911 -2800.759)"/>
        <path id="Trazado_198" data-name="Trazado 198" class="cls-3" d="M1033.486,2800.9v6.688h-1.4V2800.9Z" transform="translate(-1007.324 -2800.759)"/>
        <path id="Trazado_199" data-name="Trazado 199" class="cls-3" d="M1040.125,2804.923c0-1.182.007-2.384.045-3.111h-.009c-.332,1.162-1.132,3.37-1.973,5.776h-1.234c-.646-2.066-1.532-4.574-1.891-5.772h-.009c.052.773.105,2.11.105,3.246v2.527h-1.273V2800.9h2.026c.75,2.11,1.536,4.222,1.734,5.042h.011c.293-.982,1.073-3.034,1.787-5.042h2.039v6.688h-1.359Z" transform="translate(-1005.908 -2800.759)"/>
        <path id="Trazado_200" data-name="Trazado 200" class="cls-3" d="M1040.56,2800.9v6.688h-1.4V2800.9Z" transform="translate(-1001.767 -2800.759)"/>
        <path id="Trazado_201" data-name="Trazado 201" class="cls-3" d="M1046.186,2804.673h-3.823v1.777h4.239l-.168,1.139h-5.474V2800.9h5.43v1.139h-4.026v1.495h3.823Z" transform="translate(-1000.351 -2800.759)"/>
        <path id="Trazado_202" data-name="Trazado 202" class="cls-3" d="M1044.831,2807.589V2800.9h1.666c1.759,2.619,2.958,4.212,3.366,4.971h.018c-.063-.755-.054-1.945-.054-3.039V2800.9h1.293v6.688h-1.566c-.746-1.105-3.042-4.521-3.465-5.289h-.02c.053.836.053,1.785.053,2.973v2.315Z" transform="translate(-997.31 -2800.759)"/>
        <path id="Trazado_203" data-name="Trazado 203" class="cls-3" d="M1051.36,2802.036h-2.416V2800.9h6.235v1.135h-2.41v5.553h-1.409Z" transform="translate(-994.08 -2800.759)"/>
        <path id="Trazado_204" data-name="Trazado 204" class="cls-3" d="M1059.865,2804.285a3.387,3.387,0,0,1-3.621,3.507,3.35,3.35,0,0,1-3.542-3.5,3.434,3.434,0,0,1,3.6-3.468A3.375,3.375,0,0,1,1059.865,2804.285Zm-5.681-.02a2.149,2.149,0,0,0,2.134,2.413,2.389,2.389,0,1,0-2.134-2.413Z" transform="translate(-991.128 -2800.821)"/>
        <path id="Trazado_205" data-name="Trazado 205" class="cls-3" d="M1058.6,2805.663c.207.645.705,1.079,1.882,1.079,1.129,0,1.495-.38,1.495-.873,0-.523-.329-.83-1.839-1.085-2.219-.378-2.66-1.093-2.66-1.994,0-1.284,1.23-1.964,2.771-1.964,2.257,0,2.844,1.168,2.919,1.912h-1.411c-.107-.371-.35-.866-1.552-.866-.834,0-1.3.271-1.3.78,0,.439.275.682,1.616.916,2.5.443,2.894,1.2,2.894,2.159,0,1.128-.889,2.058-3.058,2.058-2.019,0-2.964-.908-3.171-2.121Z" transform="translate(-987.605 -2800.819)"/>
        <path id="Trazado_206" data-name="Trazado 206" class="cls-3" d="M1062.971,2800.9h2.936a3.172,3.172,0,0,1,3.464,3.23,3.331,3.331,0,0,1-3.495,3.458h-2.905Zm1.405,5.583h1.294a2.043,2.043,0,0,0,2.21-2.314,1.988,1.988,0,0,0-2.173-2.171h-1.332Z" transform="translate(-983.062 -2800.759)"/>
        <path id="Trazado_207" data-name="Trazado 207" class="cls-3" d="M1072.556,2804.673h-3.823v1.777h4.239l-.168,1.139h-5.474V2800.9h5.432v1.139h-4.028v1.495h3.823Z" transform="translate(-979.638 -2800.759)"/>
        <path id="Trazado_208" data-name="Trazado 208" class="cls-3" d="M1073.756,2805.663c.207.645.705,1.079,1.882,1.079,1.128,0,1.495-.38,1.495-.873,0-.523-.327-.83-1.837-1.085-2.221-.378-2.662-1.093-2.662-1.994,0-1.284,1.23-1.964,2.771-1.964,2.257,0,2.844,1.168,2.919,1.912h-1.409c-.109-.371-.352-.866-1.553-.866-.834,0-1.3.271-1.3.78,0,.439.273.682,1.614.916,2.5.443,2.895,1.2,2.895,2.159,0,1.128-.889,2.058-3.059,2.058-2.019,0-2.962-.908-3.171-2.121Z" transform="translate(-975.701 -2800.819)"/>
        <path id="Trazado_209" data-name="Trazado 209" class="cls-3" d="M1077.946,2800.9v3.787c0,1.53.837,1.928,1.723,1.928.987,0,1.621-.441,1.621-1.928V2800.9h1.405v3.821c0,2.074-1.139,3.009-3.069,3.009-1.882,0-3.084-.882-3.084-2.961V2800.9Z" transform="translate(-972.402 -2800.759)"/>
        <path id="Trazado_210" data-name="Trazado 210" class="cls-3" d="M1086.189,2804.673h-3.821v1.777h4.239l-.168,1.139h-5.476V2800.9h5.432v1.139h-4.026v1.495h3.821Z" transform="translate(-968.929 -2800.759)"/>
        <path id="Trazado_211" data-name="Trazado 211" class="cls-3" d="M1084.834,2800.9h1.4v5.548h3.837l-.189,1.141h-5.049Z" transform="translate(-965.889 -2800.759)"/>
        <path id="Trazado_212" data-name="Trazado 212" class="cls-3" d="M1095.208,2804.285a3.387,3.387,0,0,1-3.621,3.507,3.35,3.35,0,0,1-3.542-3.5,3.434,3.434,0,0,1,3.6-3.468A3.376,3.376,0,0,1,1095.208,2804.285Zm-5.681-.02a2.148,2.148,0,0,0,2.133,2.413,2.389,2.389,0,1,0-2.133-2.413Z" transform="translate(-963.366 -2800.821)"/>
      </g>
    </g>
  </g>
</svg>
