<svg xmlns="http://www.w3.org/2000/svg" width="312.57" height="138.922" viewBox="0 0 312.57 138.922">
  <g id="Grupo_23" data-name="Grupo 23" transform="translate(0.084 -0.043)">
    <rect id="Rectángulo_171" data-name="Rectángulo 171" width="312.57" height="138.922" rx="10" transform="translate(-0.084 0.043)" fill="#fff"/>
    <g id="Grupo_373" data-name="Grupo 373" transform="translate(29.916 55.043)">
      <path id="Trazado_552" data-name="Trazado 552" d="M215.833,3126.948a9.638,9.638,0,1,1-7.122,16.132l-6.494-6.494,6.494-6.494a9.611,9.611,0,0,1,7.122-3.145m.03,4.551a5.081,5.081,0,1,1-5.08,5.081,5.081,5.081,0,0,1,5.08-5.081m.029-9.533a14.62,14.62,0,1,1-10.8,24.47l-9.851-9.85,9.851-9.851a14.587,14.587,0,0,1,10.8-4.769" transform="translate(-195.237 -3121.966)" fill="#dd1d1b" fill-rule="evenodd"/>
      <path id="Trazado_553" data-name="Trazado 553" d="M220.943,3136.586H210.783v-.006a5.081,5.081,0,1,1,10.161,0Zm-5.051-14.62a14.62,14.62,0,0,1,14.62,14.62h-5.04a9.638,9.638,0,0,0-16.76-6.494l-6.494,6.494h-6.979l9.851-9.851a14.587,14.587,0,0,1,10.8-4.769" transform="translate(-195.237 -3121.966)" fill="#c91718" fill-rule="evenodd"/>
      <path id="Trazado_554" data-name="Trazado 554" d="M272.663,3143.6v-18.5h13.355v2.171h-10.9v5.683h10.2v2.169h-10.2v6.3h11.341v2.17Zm-9.283,0v-16.326h-6.1V3125.1h14.646v2.171h-6.1V3143.6Zm-20.722-5.942,2.3-.207a5.139,5.139,0,0,0,.762,2.291,4.187,4.187,0,0,0,1.86,1.447,7.015,7.015,0,0,0,2.837.551,6.721,6.721,0,0,0,2.471-.418,3.41,3.41,0,0,0,1.593-1.15,2.659,2.659,0,0,0,.527-1.583,2.4,2.4,0,0,0-.505-1.516,3.757,3.757,0,0,0-1.666-1.089,34.032,34.032,0,0,0-3.292-.9,16.979,16.979,0,0,1-3.571-1.153A5.064,5.064,0,0,1,244,3132.2a4.237,4.237,0,0,1-.65-2.3,4.727,4.727,0,0,1,.8-2.623,4.933,4.933,0,0,1,2.321-1.852,8.783,8.783,0,0,1,3.392-.632,9.277,9.277,0,0,1,3.626.663,5.249,5.249,0,0,1,2.416,1.949,5.615,5.615,0,0,1,.907,2.915l-2.35.181a3.774,3.774,0,0,0-1.278-2.643,4.991,4.991,0,0,0-3.226-.9,5.171,5.171,0,0,0-3.237.814,2.441,2.441,0,0,0-1.016,1.962,2.109,2.109,0,0,0,.72,1.641,9.809,9.809,0,0,0,3.689,1.318,23.989,23.989,0,0,1,4.094,1.18,5.559,5.559,0,0,1,2.382,1.88,4.583,4.583,0,0,1,.766,2.623,5.014,5.014,0,0,1-.843,2.777,5.547,5.547,0,0,1-2.425,2.028,8.461,8.461,0,0,1-3.56.723,10.624,10.624,0,0,1-4.2-.732,5.852,5.852,0,0,1-2.657-2.2,6.228,6.228,0,0,1-1.016-3.319m-13.643,5.942v-18.5H242.37v2.171h-10.9v5.683h10.2v2.169h-10.2v6.3h11.34v2.17Z" transform="translate(-168.705 -3119.745)" fill="#221e20"/>
      <path id="Trazado_555" data-name="Trazado 555" d="M227.027,3124.848a9.681,9.681,0,1,0,9.681,9.679A9.691,9.691,0,0,0,227.027,3124.848Zm0,17.278a7.6,7.6,0,1,1,7.6-7.6A7.607,7.607,0,0,1,227.027,3142.126Z" transform="translate(-177.872 -3119.703)" fill="#221e20"/>
      <path id="Trazado_556" data-name="Trazado 556" d="M379.325,3125.1h14.621v3.951h-9.138v2.942h8.472v3.771h-8.472v3.639h9.41v4.183H379.325Zm-17.471,12.371,5.187-.339a4.186,4.186,0,0,0,.687,2,2.848,2.848,0,0,0,2.412,1.12,2.585,2.585,0,0,0,1.8-.573,1.752,1.752,0,0,0,.634-1.33,1.734,1.734,0,0,0-.6-1.286,6.792,6.792,0,0,0-2.791-1.071,11.611,11.611,0,0,1-5.121-2.243,4.6,4.6,0,0,1-1.544-3.564,5,5,0,0,1,.791-2.685,5.287,5.287,0,0,1,2.375-1.992,10.747,10.747,0,0,1,4.348-.722,8.576,8.576,0,0,1,5.165,1.32,5.771,5.771,0,0,1,2.116,4.2l-5.137.32a2.979,2.979,0,0,0-.861-1.831,2.681,2.681,0,0,0-1.816-.571,2.134,2.134,0,0,0-1.435.421,1.317,1.317,0,0,0-.482,1.029,1.082,1.082,0,0,0,.391.792,4.442,4.442,0,0,0,1.823.679,21.865,21.865,0,0,1,5.126,1.635,5.478,5.478,0,0,1,2.255,2.048,5.407,5.407,0,0,1,.7,2.737,6.075,6.075,0,0,1-.937,3.28,5.968,5.968,0,0,1-2.63,2.277,10.259,10.259,0,0,1-4.253.775q-4.507,0-6.246-1.815a7.312,7.312,0,0,1-1.962-4.61M343.339,3125.1h5.1l6.633,10.207V3125.1h5.162v18.486h-5.162l-6.6-10.15v10.15h-5.137Zm-16.271,0h14.623v3.951h-9.14v2.942h8.472v3.771h-8.472v3.639h9.411v4.183H327.068Zm-17.376,0h16.621v4.571h-5.581v13.916h-5.458v-13.916h-5.581Zm-5.483,11.438-1.93-6.644-1.939,6.644Zm1.157,4h-6.192l-.889,3.046h-5.578l6.656-18.486h5.981l6.628,18.486h-5.723ZM278.3,3125.1h5.458v13.942h8.545v4.544h-14Zm-10.225,7.9h1.346a3.362,3.362,0,0,0,2.235-.576,1.884,1.884,0,0,0,.643-1.471,2.091,2.091,0,0,0-.561-1.476,2.814,2.814,0,0,0-2.1-.608h-1.564Zm-5.483-7.9h9.09a6.048,6.048,0,0,1,4.449,1.477,5.7,5.7,0,0,1,1.478,4.208,5.846,5.846,0,0,1-1.614,4.38,6.779,6.779,0,0,1-4.924,1.58h-3v6.842h-5.483Z" transform="translate(-142.329 -3119.747)" fill="#dd1d1b"/>
    </g>
  </g>
</svg>
